<?xml version="1.0" encoding="UTF-8"?>
<svg id="Ebene_1" xmlns="http://www.w3.org/2000/svg" version="1.1" viewBox="0 0 396.8503937 470">
  <!-- Generator: Adobe Illustrator 29.7.1, SVG Export Plug-In . SVG Version: 2.1.1 Build 8)  -->
  <defs>
    <style>
      .st0 {
        fill: #556060;
      }
    </style>
  </defs>
  <path class="st0" d="M161.9013753,470v-30.9242361c112.3145241,0,203.689525-91.3764573,203.689525-203.6909925h30.9242524c0,129.3678069-105.2459704,234.6152286-234.6137773,234.6152286"/>
  <path class="st0" d="M161.9013753,396.9495907C72.8156546,396.9495907.3352411,324.4706363.3352411,235.3849268h30.9242413c0,72.0382524,58.6036295,130.6404282,130.6418929,130.6404282s130.6404393-58.6021758,130.6404393-130.6404282-58.6021869-130.6404504-130.6404393-130.6404504v-30.924208c89.0857207,0,161.5646695,72.4789266,161.5646695,161.5646584s-72.4789488,161.5646639-161.5646695,161.5646639"/>
  <path class="st0" d="M161.9013753,323.895839c-48.8079953,0-88.5170375-39.7075774-88.5170375-88.5112007V0h30.9256949v235.3846383c0,31.7561772,25.8351654,57.5869706,57.5913426,57.5869706v30.9242302Z"/>
  <path class="st0" d="M250.4125871,235.3846161h-30.9242524c0-31.7561772-25.8322581-57.5855058-57.5869706-57.5855058v-30.9256949c48.8036233,0,88.5112229,39.7075774,88.5112229,88.5112007"/>
</svg>