<?xml version="1.0" encoding="UTF-8"?>
<svg id="Ebene_1" xmlns="http://www.w3.org/2000/svg" xmlns:xlink="http://www.w3.org/1999/xlink" version="1.1" viewBox="0 0 917 917">
  <!-- Generator: Adobe Illustrator 29.7.1, SVG Export Plug-In . SVG Version: 2.1.1 Build 8)  -->
  <defs>
    <style>
      .st0, .st1, .st2 {
        fill: none;
      }

      .st3 {
        fill: #434f4f;
      }

      .st4 {
        fill: #323c3c;
      }

      .st1 {
        stroke-width: 20px;
      }

      .st1, .st2 {
        stroke: #fff;
      }

      .st2 {
        stroke-width: 10px;
      }

      .st5 {
        clip-path: url(#clippath-1);
      }

      .st6 {
        clip-path: url(#clippath-3);
      }

      .st7 {
        clip-path: url(#clippath-2);
      }

      .st8 {
        fill: #fff;
      }

      .st9 {
        fill: #f0f1f1;
      }

      .st10 {
        fill: #7ac546;
      }

      .st11 {
        clip-path: url(#clippath);
      }
    </style>
    <clipPath id="clippath">
      <rect class="st0" width="917" height="917"/>
    </clipPath>
    <clipPath id="clippath-1">
      <path class="st0" d="M270.1539917,486.9920044c0,25.8320007,20.9400024,46.7720032,46.7709961,46.7720032,25.8310242,0,46.7720032-20.9400024,46.7720032-46.7720032,0-25.8309937-20.940979-46.7720032-46.7720032-46.7720032-25.8309937,0-46.7709961,20.9410095-46.7709961,46.7720032"/>
    </clipPath>
    <clipPath id="clippath-2">
      <rect class="st0" width="917" height="917"/>
    </clipPath>
    <clipPath id="clippath-3">
      <path class="st0" d="M87.3190002,564.3309937c0,25.8309937,20.9400024,46.7720032,46.7709961,46.7720032,25.8320007,0,46.7720032-20.9410095,46.7720032-46.7720032s-20.9400024-46.7720032-46.7720032-46.7720032c-25.8309937,0-46.7709961,20.9410095-46.7709961,46.7720032"/>
    </clipPath>
  </defs>
  <rect class="st9" width="917" height="917"/>
  <g class="st11">
    <path class="st4" d="M853.3667603,207.758728c-.7940063-2.3759766.3510132-4.6499634,2.4290161-5.5429688,2.1019897-.9030151,4.4110107-.3389893,5.6449585,2.0739746l-8.0739746,3.4689941ZM860.7797852,213.4877319c2.914978-1.2520142,4.3800049-3.8349609,4.0780029-6.4500122l-1.9590454.842041c.052002,1.7039795-1.1859741,3.1690063-2.8339844,3.8769531-2.5559692,1.098999-4.8649902.1380005-6.0280151-2.3049927l10.1290283-4.3519897-.3590088-.8359985c-1.539978-3.5830078-4.9760132-5.3900146-8.75-3.7680054-3.3920288,1.4570312-4.992981,5.1730347-3.289978,9.1390381,1.6009521,3.7259521,5.2149658,5.4849854,9.0130005,3.8529663M846.5427856,219.6047363c3.3439941-1.4370117,4.8059692-4.3579712,3.2869873-7.8930054-1.0469971-2.4370117-3.3829956-3.3289795-5.3660278-3.0709839l-.0609741-.1439819c.835022-.9530029,1.4279785-2.5370483.651001-4.4110107-1.0910034-2.6719971-4.072998-3.6829834-6.8439941-2.493042-2.8900146,1.2420044-4.0759888,4.0150146-2.7620239,7.0730591l5.5629883,12.947998,1.8870239-.8110352-5.5529785-12.9240112c-.882019-2.0539551-.3780518-3.7139893,1.6040039-4.565979,1.9349976-.8309937,3.492981.0280151,4.1699829,1.6040039.697998,1.625.1469727,3.5029907-1.9320068,4.3959961l-.2150269.09198.7290039,1.6960449.8120117-.348999c1.8400269-.7900391,4.3660278-.5740356,5.382019,1.7909546.9749756,2.2700195.0379639,4.3699951-2.1829834,5.3250122-.5970459.2559814-1.3760376.4210205-2.0210571.5l.7600098,1.7680054c.6790161-.065979,1.4710083-.2650146,2.092041-.5310059M830.2147827,224.6097412c-2.6040039,1.1190186-5.1820068-.0089722-6.434021-2.9229736-1.2109985-2.8190308-.3059692-5.585022,2.25-6.6830444,2.4609985-1.0570068,5.1309814-.1109619,6.4450073,2.9470215,1.1190186,2.6040039.4389648,5.5-2.2609863,6.6589966M830.8247681,226.3577271c2.6989746-1.1599731,3.2089844-3.5299683,3.3250122-4.1170044l.1430054-.0620117.8410034,1.9590454,1.815979-.7800293-5.3369751-12.4219971-1.8870239.8110352.8619995,2.006958-.1430054.0610352c-.6599731-.4810181-2.7639771-1.5580444-5.367981-.4390259-3.5110474,1.5090332-4.8730469,5.3200073-3.2310181,9.1420288,1.632019,3.7989502,5.3239746,5.4099731,8.9790039,3.8399658M816.3817749,232.1947632l1.8869629-.8110352-2.7509766-6.4019775c-1.0159912-2.3649902-.5089722-4.677002,1.7600098-5.6520386l1.0280151-.440979-.8110352-1.8869629-1.0509644.4509888c-1.81604.7799683-2.4900513,2.5700073-2.3970337,3.7749634l-.1430054.0620117-.9959717-2.3179932-1.8630371.8010254,5.3370361,12.4219971ZM811.0307617,234.4937134l1.8389893-.789978-.7080078-1.6489868-1.7199707.7390137c-1.4329834.6159668-2.2730103.0429688-2.8480225-1.2950439l-3.0280151-7.0469971,3.8220215-1.6419678-.6870117-1.6000366-3.8219604,1.6420288-1.5500488-3.6069946-1.7679443.7589722,1.282959,2.9860229c.1740112.4060059.0040283.7340088-.3300171.8779907l-1.8639526.7999878.6879883,1.6010132,2.3410034-1.0059814,3.0379639,7.0709839c1.0780029,2.5079956,3.0210571,3.1450195,5.3140259,2.1599731M797.1657715,240.8187256c3.6549683-1.5709839,4.9019775-4.5969849,3.7730103-7.223999-2.9050293-6.7609863-10.809021.3989868-12.769043-4.1640015-.5949707-1.3859863-.1329956-3.1409912,2.2319946-4.1569824,2.2700195-.9749756,4.0390015-.3480225,4.8600464,1.5629883l1.9829712-.8519897c-1.4879761-3.4639893-5.0459595-3.5770264-7.5780029-2.4890137-3.367981,1.4470215-4.4580078,4.3770142-3.4320068,6.7659912,2.8740234,6.6890259,10.5480347-.9379883,12.7960205,4.2940063.7490234,1.7440186-.3660278,3.4960327-2.5629883,4.4400024-2.5319824,1.0880127-4.776001.2130127-5.6080322-1.7219849l-1.9349976.8309937c1.335022,3.1060181,4.9200439,4.1400146,8.2410278,2.7139893M779.5117798,240.5647583l6.09198-2.618042-.7600098-1.7669678-6.0910034,2.6170044.7590332,1.7680054ZM768.1757812,252.9057617l1.8869629-.8110352-3.1820068-7.4049683c-.881958-2.0549927,0-4.217041,1.9590454-5.0580444,1.742981-.7489624,3.7550049-.0849609,4.6069946,1.8970337l3.3049927,7.6920166,1.8869629-.8099976-3.355957-7.8120117c-1.1810303-2.7470093-3.8580322-4.1719971-6.7490234-2.9299927-1.9349976.8309937-2.84198,2.4089966-2.8850098,3.7579956l-.1430054.0620117-.7799683-1.81604-1.8870239.8110352,5.3370361,12.4219971ZM753.5557861,259.1867676l1.8869629-.8110352-3.242981-7.5490112c-.8619995-2.0059814.1569824-4.1129761,2.0679932-4.9349976,1.742981-.7489624,3.8029785-.1049805,4.6550293,1.8770142l3.3039551,7.6929932,1.8880005-.8109741-3.3569946-7.8120117c-1.1799927-2.7470093-3.9049683-4.151001-6.7960205-2.9089966-1.9349976.8309937-2.8889771,2.4299927-2.9329834,3.7780151l-.1430054.0619507-3.1409912-7.3099976-1.8869629.8110352,7.697998,17.9160156ZM742.7597656,262.1837158c-2.6030273,1.1190186-5.1820068-.0089722-6.434021-2.9239502-1.2109985-2.8179932-.3059692-5.585022,2.2510376-6.6830444,2.4599609-1.0570068,5.1309814-.1099854,6.4439697,2.947998,1.1190186,2.6030273.4390259,5.4990234-2.2609863,6.6589966M743.369751,263.9307251c2.6990356-1.1589966,3.2089844-3.5289917,3.3250122-4.1170044l.1430054-.0609741.84198,1.9589844,1.8150024-.7799683-5.3369751-12.4219971-1.8870239.8099976.8619995,2.006958-.1430054.0620117c-.6599731-.4810181-2.7639771-1.5579834-5.3670044-.4389648-3.5119629,1.5079956-4.8739624,5.3199463-3.2319946,9.1419678,1.632019,3.7980347,5.3240356,5.4100342,8.9790039,3.8389893M728.3917847,270.3657227c3.7979736-1.631958,4.2869873-5.0390015,3.0959473-7.8099976l-4.96698-11.5620117-8.3850098,3.6020508.7590332,1.7680054,6.4500122-2.7709961,4.2289429,9.84198c.7800293,1.8150024.53302,4.0719604-1.8799438,5.1090088-1.9590454.8410034-3.8850098.3109741-4.7230225-1.5079956l-1.9349976.8309937c1.4329834,3.2039795,4.7520142,3.617981,7.3560181,2.4989624M711.5267334,269.7737427l6.0910034-2.617981-.7589722-1.7670288-6.09198,2.6170044.7599487,1.7680054ZM703.9187622,278.8717651c-2.6040039,1.117981-5.1829834-.0090332-6.4349976-2.9240112-1.2109985-2.8190308-.3049927-5.585022,2.2509766-6.6829834,2.460022-1.0570068,5.1310425-.1100464,6.4440308,2.9469604,1.1189575,2.6040039.4389648,5.5-2.2600098,6.6600342M707.1027832,286.020752c3.7269897-1.6010132,5.1199951-4.7470093,3.5499878-8.4020386l-5.3370361-12.4219971-1.8869629.8110352.8619995,2.007019-.1430054.0609741c-.6600342-.4799805-2.7639771-1.5570068-5.3670044-.4390259-3.5120239,1.5090332-4.8740234,5.3200073-3.2319946,9.1430054,1.632019,3.7980347,5.3239746,5.4089966,8.9790039,3.8390503,2.6989746-1.1600342,3.2089844-3.5290527,3.3250122-4.1170044l.1430054-.0610352.84198,1.9589844c1.0880127,2.5320435.4719849,4.7210083-2.4429932,5.9730225-1.8389893.789978-3.6010132.6409912-4.5610352-.6719971l-1.7919922.7700195c1.3599854,2.0469971,4.0270386,2.8540039,7.0610352,1.5499878M693.2147827,285.1117554l1.8869629-.8110352-5.3369751-12.4219971-1.8870239.8110352,5.3370361,12.4219971ZM687.8917847,270.0227661c.8129883-.348999,1.1289673-1.1920166.7909546-1.9810181-.3289795-.7639771-1.1589966-1.1149902-1.9710083-.7659912-.7879639.3389893-1.1049805,1.1820068-.776001,1.9469604.3380127.7880249,1.1680298,1.1390381,1.9560547.8000488M675.0587769,292.9117432l2.4369507-1.0469971-1.1299438-11.4559937.1429443-.0620117,7.5090332,8.7160034,2.4359741-1.0469971-1.4429932-14.0950317-2.0539551.8830566,1.3789673,11.5749512-.1430054.0620117-7.6859741-8.8659668-2.1500244.9239502,1.1160278,11.6880493-.1430054.0619507-7.4230347-8.9790039-2.0539551.882019,9.2059937,10.7600098ZM661.8267822,296.9547729c-2.6030273,1.1189575-5.1820068-.0090332-6.434021-2.9230347-1.2109985-2.8189697-.3060303-5.585022,2.25-6.6829834,2.4609985-1.0570068,5.132019-.1110229,6.4450073,2.9469604,1.1190186,2.6040039.4389648,5.5-2.2609863,6.6590576M662.4367676,298.7027588c2.6989746-1.1600342,3.2089844-3.5300293,3.3250122-4.1170044l.1430054-.0620117.8409424,1.9589844,1.81604-.7799683-7.6970215-17.9160156-1.8880005.8109741,3.2230225,7.5010376-.1430054.0609741c-.6600342-.480957-2.7639771-1.5570068-5.3670044-.4389648-3.5120239,1.5089722-4.8740234,5.3200073-3.2319946,9.1419678,1.632019,3.7990112,5.3239746,5.4100342,8.9790039,3.8400269M647.3147583,305.1987305c1.9349976-.8309937,2.84198-2.4089966,2.8850098-3.756958l.1439819-.0620117.7800293,1.8150024,1.8869629-.8099976-5.3369751-12.4219971-1.8870239.8099976,3.2020264,7.4539795c.881958,2.0540161,0,4.2160034-1.9589844,5.0570068-1.7440186.75-3.7550049.0859985-4.6070557-1.8970337l-3.3249512-7.7399902-1.8870239.8110352,3.3560181,7.8119507c1.1799927,2.7470093,3.8579712,4.1710205,6.7479858,2.9290161M630.2927856,312.1447144l9.1489868-3.9309692-.7490234-1.7440186-7.2139893,3.1000366-6.4349976-14.9780273-1.9349976.8309937,7.184021,16.7219849Z"/>
    <path class="st4" d="M462.7012024,287.1290283c-.7940063-2.375.3509827-4.6499634,2.4289856-5.5429688,2.1019897-.9030151,4.4110107-.3389893,5.644989,2.0739746l-8.0739746,3.4689941ZM470.1141968,292.8580322c2.914978-1.2520142,4.3800049-3.8349609,4.0780029-6.4489746l-1.9590149.8410034c.052002,1.7039795-1.1849976,3.1690063-2.8339844,3.8769531-2.5559998,1.098999-4.8650208.1380005-6.0280151-2.3049927l10.1289978-4.3519897-.3589783-.8359985c-1.5390015-3.5830078-4.9760132-5.3900146-8.75-3.7680054-3.3920288,1.4570312-4.9930115,5.1730347-3.2900085,9.1390381,1.6009827,3.7259521,5.2149963,5.4849854,9.0130005,3.8529663M455.8771973,298.9750366c3.3439941-1.4370117,4.8059998-4.3579712,3.2869873-7.8930054-1.0469971-2.4370117-3.3829956-3.3289795-5.3659973-3.0709839l-.0610046-.1439819c.835022-.9530029,1.428009-2.5370483.651001-4.4110107-1.0910034-2.6719971-4.072998-3.6829834-6.8439941-2.493042-2.8900146,1.2420044-4.0759888,4.0150146-2.7619934,7.0730591l5.5629883,12.947998,1.8869934-.8110352-5.5529785-12.9240112c-.882019-2.0539551-.3780212-3.7139893,1.6040039-4.565979,1.9349976-.8309937,3.492981.0280151,4.1699829,1.6040039.697998,1.625.1470032,3.5029907-1.9320068,4.3959961l-.2149963.09198.7290039,1.6960449.8120117-.348999c1.8399963-.7900391,4.3659973-.5740356,5.3819885,1.7909546.9750061,2.2700195.0379944,4.3699951-2.1829834,5.3250122-.5970154.2559814-1.3760071.4210205-2.0210266.5l.7600098,1.7680054c.6790161-.065979,1.4710083-.2650146,2.0920105-.5310059M439.5491943,303.9800415c-2.6040039,1.1190186-5.1820068-.0089722-6.4339905-2.9229736-1.2110291-2.8190308-.3059998-5.585022,2.25-6.6830444,2.4609985-1.0570068,5.1309814-.1109619,6.4449768,2.9470215,1.1190186,2.6040039.4389954,5.5-2.2609863,6.6589966M440.1591797,305.7280273c2.6990051-1.1599731,3.2090149-3.5299683,3.3240051-4.1170044l.1440125-.0620117.8410034,1.9590454,1.815979-.7800293-5.3369751-12.4219971-1.8870239.8110352.8619995,2.006958-.1430054.0610352c-.6599731-.4810181-2.7639771-1.5580444-5.367981-.4390259-3.5110168,1.5090332-4.8730164,5.3200073-3.2310181,9.1420288,1.632019,3.7989502,5.3240051,5.4099731,8.9790039,3.8399658M425.7161865,311.5650635l1.8869934-.8110352-2.7509766-6.4019775c-1.0160217-2.3649902-.5090027-4.677002,1.7599792-5.6520386l1.0280151-.440979-.8110046-1.8869629-1.0509949.4509888c-1.8160095.7799683-2.4900208,2.5700073-2.3970032,3.7749634l-.1430054.0620117-.9960022-2.3179932-1.8630066.8010254,5.3370056,12.4219971ZM420.3652039,313.8640137l1.8389893-.789978-.7080078-1.6489868-1.7200012.7390137c-1.4329834.6159668-2.2729797.0429688-2.8479919-1.2950439l-3.0280151-7.0469971,3.8220215-1.6419678-.6870117-1.6000366-3.821991,1.6420288-1.5500183-3.6069946-1.7679749.7589722,1.2829895,2.9860229c.1740112.4060059.0039978.7340088-.3300171.8779907l-1.8639832.7999878.6879883,1.6010132,2.3410034-1.0059814,3.0379944,7.0709839c1.0780029,2.5079956,3.0210266,3.1450195,5.3140259,2.1599731M406.5001831,320.1890259c3.6549988-1.5709839,4.9020081-4.5969849,3.7730103-7.223999-2.9049988-6.7609863-10.8089905.3989868-12.7690125-4.1640015-.5950012-1.3859863-.1329956-3.1409912,2.2319946-4.1569824,2.2700195-.9749756,4.0390015-.3480225,4.8600159,1.5629883l1.9830017-.8519897c-1.4880066-3.4639893-5.04599-3.5770264-7.5780029-2.4890137-3.3680115,1.4470215-4.4580078,4.3770142-3.4320068,6.7659912,2.8739929,6.6890259,10.5480042-.9379883,12.7960205,4.2940063.7489929,1.7440186-.3660278,3.4960327-2.5630188,4.4400024-2.5319824,1.0880127-4.776001.2130127-5.6080017-1.7219849l-1.9349976.8309937c1.3349915,3.1060181,4.9200134,4.1400146,8.2409973,2.7139893M388.8461914,319.9350586l6.0920105-2.6170044-.7600098-1.7680054-6.0910034,2.6170044.7590027,1.7680054ZM377.5101929,332.276062l1.8869934-.8110352-3.1820068-7.4049683c-.8829956-2.0549927,0-4.217041,1.9590149-5.0580444,1.743988-.7489624,3.7550049-.0849609,4.6069946,1.8970337l3.3049927,7.6920166,1.8869934-.8099976-3.3559875-7.8120117c-1.1809998-2.7470093-3.8580017-4.1719971-6.7489929-2.9299927-1.9349976.8309937-2.8420105,2.4099731-2.8850098,3.7579956l-.1430054.0620117-.7799988-1.81604-1.8869934.8110352,5.3370056,12.4219971ZM362.8901978,338.5570679l1.8869934-.8110352-3.2430115-7.5479736c-.8619995-2.007019.1570129-4.1140137,2.0679932-4.9360352,1.7430115-.7489624,3.803009-.1049805,4.6550293,1.8770142l3.3039856,7.6929932,1.8880005-.8109741-3.3569946-7.8120117c-1.1799927-2.7470093-3.9049988-4.151001-6.7960205-2.9089966-1.9349976.8309937-2.8889771,2.4299927-2.9329834,3.7780151l-.1430054.0619507-3.1409912-7.3099976-1.8869934.8110352,7.697998,17.9160156ZM352.0941772,341.5540161c-2.6029968,1.1190186-5.1819763-.0089722-6.4339905-2.9239502-1.2109985-2.8179932-.3059998-5.5840454,2.2510071-6.6830444,2.4599915-1.0570068,5.1309814-.1099854,6.4440002,2.947998,1.118988,2.6040039.4389954,5.4990234-2.2610168,6.6589966M352.7041931,343.3010254c2.6990051-1.1589966,3.2089844-3.5289917,3.3249817-4.1170044l.1430054-.0609741.8420105,1.9589844,1.8150024-.7799683-5.3370056-12.4219971-1.8869934.8109741.8619995,2.0059814-.1430054.0620117c-.6600037-.4810181-2.7640076-1.5579834-5.3670044-.4389648-3.5119934,1.5079956-4.8739929,5.3199463-3.2319946,9.1419678,1.6319885,3.7980347,5.3240051,5.4100342,8.9790039,3.8389893M337.7261963,349.7360229c3.7980042-1.631958,4.2869873-5.0390015,3.0959778-7.8099976l-4.96698-11.5620117-8.3850098,3.6020508.7590027,1.7680054,6.4500122-2.7709961,4.2289734,9.84198c.7799988,1.8150024.53302,4.0719604-1.8799744,5.1090088-1.9590149.8410034-3.8850098.3109741-4.7230225-1.5079956l-1.9349976.8309937c1.4330139,3.2039795,4.7520142,3.617981,7.3560181,2.4989624M320.8611755,349.144043l6.0910034-2.617981-.7590027-1.7670288-6.09198,2.6170044.7599792,1.7680054ZM313.2531738,358.2420654c-2.6039734,1.117981-5.1829834-.0090332-6.4349976-2.9240112-1.2109985-2.8190308-.3049927-5.585022,2.2510071-6.6829834,2.4599915-1.0570068,5.131012-.1100464,6.4440002,2.9469604,1.118988,2.6040039.4389954,5.5-2.2600098,6.6600342M316.4371948,365.3910522c3.7269897-1.6010132,5.1199951-4.7460327,3.5499878-8.401001l-5.3370056-12.4230347-1.8869934.8110352.8619995,2.007019-.1430054.0619507c-.6589966-.480957-2.7630005-1.5579834-5.3670044-.4400024-3.5119934,1.5090332-4.8739929,5.3200073-3.2319946,9.1430054,1.632019,3.7980347,5.3240051,5.4089966,8.9790039,3.8390503,2.6990051-1.1600342,3.2090149-3.5290527,3.3250122-4.1170044l.1430054-.0610352.84198,1.9589844c1.0880127,2.5320435.4720154,4.7210083-2.4429932,5.9730225-1.8389893.789978-3.6010132.6409912-4.5610046-.6719971l-1.7919922.7700195c1.3599854,2.0469971,4.0279846,2.8540039,7.0610046,1.5499878M302.5491943,364.4820557l1.8869934-.8110352-5.3370056-12.4219971-1.8869934.8110352,5.3370056,12.4219971ZM297.2261963,349.3930664c.8129883-.348999,1.1289978-1.1920166.7909851-1.9800415-.32901-.7649536-1.1589966-1.1159668-1.9710083-.7669678-.7879944.3389893-1.1049805,1.1820068-.776001,1.9469604.3380127.7880249,1.1679993,1.1390381,1.9560242.8000488M284.3931885,372.2820435l2.4369812-1.0469971-1.1299744-11.4559937.1429749-.0620117,7.5090027,8.7160034,2.4360046-1.0469971-1.4429932-14.0950317-2.0539856.8830566,1.3789978,11.5749512-.1430054.0620117-7.6860046-8.8659668-2.1499939.9239502,1.1159973,11.6880493-.1430054.0619507-7.4230042-8.9790039-2.0539856.882019,9.2059937,10.7600098ZM271.1611938,376.3250732c-2.6029968,1.1189575-5.1820068-.0090332-6.434021-2.9230347-1.2109985-2.8189697-.3059998-5.585022,2.2510071-6.6829834,2.4599915-1.0570068,5.131012-.1099854,6.4440002,2.9469604,1.1190186,2.6040039.4389954,5.5-2.2609863,6.6590576M271.7711792,378.0730591c2.6990051-1.1600342,3.2090149-3.5300293,3.3250122-4.1170044l.1430054-.0610352.84198,1.9580078,1.8150024-.7799683-7.696991-17.9160156-1.8880005.8109741,3.2229919,7.5010376-.1430054.0609741c-.6600037-.4799805-2.7639771-1.5570068-5.3670044-.4389648-3.5119934,1.5089722-4.8739929,5.3200073-3.2319946,9.1419678,1.632019,3.7990112,5.3240051,5.4100342,8.9790039,3.8400269M256.6491699,384.5700684c1.9350281-.8320312,2.8420105-2.4100342,2.8850098-3.7579956l.1440125-.0620117.7799988,1.8150024,1.8869934-.8099976-5.3370056-12.4219971-1.8869934.8099976,3.2019958,7.4539795c.8819885,2.0540161,0,4.2160034-1.9589844,5.0579834-1.7440033.7490234-3.7550049.085022-4.6070099-1.8980103l-3.3249969-7.7399902-1.8869934.8110352,3.3559875,7.8119507c1.1800079,2.7470093,3.8580017,4.1710205,6.7479858,2.9300537M239.6271973,391.5150146l9.1489868-3.9309692-.7489929-1.7440186-7.2140045,3.1000366-6.4349976-14.9780273-1.9349976.8309937,7.1840057,16.7219849Z"/>
    <path class="st4" d="M501.0177917,624.1379089c2.375-.7950134,4.6499939.3500061,5.5429993,2.4289856.9030151,2.1020203.3380127,4.4100037-2.0740051,5.6450195l-3.4689941-8.0740051ZM495.2887878,631.5509033c1.2520142,2.9140015,3.8340149,4.3800049,6.4490051,4.0769958l-.8410034-1.9589844c-1.70401.0529785-3.1699829-1.1849976-3.8779907-2.8330078-1.0979919-2.5559998-.1369934-4.8649902,2.3059998-6.0280151l4.3519897,10.1289978.8359985-.3589783c3.5830078-1.5400085,5.3890076-4.9760132,3.7680054-8.75-1.4580078-3.3919983-5.1730042-4.9940186-9.1390076-3.2900085-3.7269897,1.6010132-5.4849854,5.2149963-3.8529968,9.0130005M489.1717834,617.3139038c1.4370117,3.3439941,4.3570251,4.8059998,7.8930054,3.2869873,2.4360046-1.0469971,3.32901-3.3829956,3.0710144-5.3659973l.1430054-.0619812c.9529724.8359985,2.5379944,1.4289856,4.4119873.6520081,2.6719971-1.0920105,3.6830139-4.0730286,2.4930115-6.8440247-1.2420044-2.8899841-4.0160217-4.0759888-7.072998-2.7619934l-12.9480286,5.5620117.8110046,1.8880005,12.9240112-5.553009c2.0539856-.8819885,3.7139893-.3789978,4.5660095,1.6040039.8309937,1.9349976-.0280151,3.4930115-1.605011,4.1699829-1.6239929.6980286-3.5020142.1460266-4.394989-1.9319763l-.0930176-.2149963-1.6959839.7289734.348999.8120117c.7909851,1.8389893.5740051,4.3659973-1.7910156,5.3819885-2.2689819.9750061-4.368988.0380249-5.3240051-2.1829834-.2559814-.5979919-.42099-1.3760071-.5-2.0209961l-1.7679749.7590027c.065979.6799927.2639771,1.4719849.5309753,2.0929871M484.165802,600.9859009c-1.1180115-2.6040039.0090027-5.1820068,2.9239807-6.4339905,2.8190002-1.2120056,5.585022-.3059998,6.6830139,2.25,1.0570068,2.4609985.1099854,5.131012-2.946991,6.4450073-2.6040039,1.118988-5.5.4379883-6.6600037-2.2610168M482.4187927,601.5949097c1.1600037,2.7000122,3.5289917,3.2099915,4.1170044,3.3250122l.0610046.1439819-1.9590149.8410034.7810059,1.8160095,12.4219971-5.3370056-.8110046-1.8869934-2.0069885.8619995-.0610046-.1440125c.480011-.6589966,1.5570068-2.7630005.4389954-5.3670044-1.5090027-3.5109863-5.3200073-4.8739929-9.1430054-3.2309875-3.7979736,1.6309814-5.4089966,5.322998-3.8389893,8.9779968M476.5817871,587.1528931l.8110046,1.8870239,6.4020081-2.7510071c2.3649902-1.0159912,4.6759949-.5090027,5.651001,1.7600098l.4419861,1.0269775,1.8869934-.8099976-.4519958-1.052002c-.7799988-1.8150024-2.5690002-2.4889832-3.7739868-2.3959961l-.0620117-.1439819,2.3170166-.9950256-.8000183-1.8629761-12.4219971,5.3369751ZM474.2828064,581.8019104l.789978,1.8389893,1.6480103-.7079773-.7380066-1.7200012c-.6159973-1.4330139-.0440063-2.2740173,1.2940063-2.8480225l7.0469971-3.0279846,1.6430054,3.821991,1.6000061-.6870117-1.6419983-3.822998,3.6069946-1.5489807-.7590027-1.7680054-2.9859924,1.2829895c-.4070129.1740112-.7340088.0039978-.8780212-.3309937l-.8009949-1.8630066-1.6000061.6880188,1.006012,2.3410034-7.0710144,3.0379944c-2.5089722,1.0769958-3.144989,3.019989-2.1599731,5.3139954M468.2247925,568.5579224c1.2420044,2.8899841,3.6499939,4.1479797,5.9909973,3.1419983,5.1360168-2.2060242-.6940002-8.5310059,2.4590149-9.8860168,1.0749817-.4609985,2.2709961.2139893,2.9379883,1.7659912.7080078,1.6490173.2990112,2.8710022-.7990112,3.5410156l.7799988,1.8160095c2.1630249-1.1560059,2.6800232-3.6419983,1.6950073-5.9350281-1.118988-2.6039734-3.2919922-3.9059753-5.3939819-3.0029907-4.9210205,2.1140137.9229736,8.4039917-2.5650024,9.9030151-1.2660217.5439758-2.6150208-.0930176-3.4160156-1.9570007-.7799988-1.8150024-.4429932-3.2050171.9460144-4.0559998l-.7910156-1.8399963c-2.223999,1.2109985-3.1059875,3.5709839-1.8439941,6.5090027M462.6647949,554.7599182l.8110046,1.8880005,6.4020081-2.7510071c2.3649902-1.0159912,4.6769714-.5100098,5.6519775,1.7600098l.4410095,1.0269775,1.8869934-.8110046-.4509888-1.0509949c-.7799988-1.8150024-2.5700073-2.4899902-3.7749939-2.3959961l-.0620117-.1439819,2.3179932-.9950256-.8009949-1.8639832-12.4219971,5.3370056ZM464.1107788,538.2359009c2.3760071-.7949829,4.6500244.3500061,5.5430298,2.4290161.9039917,2.1019897.3389893,4.4100037-2.0740051,5.644989l-3.4690247-8.0740051ZM458.382782,545.6488953c1.2520142,2.9140015,3.8340149,4.3800049,6.4490051,4.0770264l-.84198-1.9590149c-1.7030029.053009-3.1690063-1.1849976-3.8770142-2.8330078-1.0979919-2.5559998-.1380005-4.8649902,2.3059998-6.0279846l4.3510132,10.1289978.8359985-.3590088c3.5839844-1.5400085,5.3899841-4.9759827,3.7679749-8.75-1.4569702-3.3919983-5.1729736-4.993988-9.1380005-3.2900085-3.7269897,1.6010132-5.4849854,5.2150269-3.8529968,9.0130005M453.4378052,529.4649048c-1.1180115-2.6040039.0090027-5.1829834,2.9239807-6.4349976,2.8190002-1.2109985,5.585022-.3049927,6.6830139,2.2510071,1.0570068,2.4599915.1099854,5.1309814-2.9470215,6.4450073-2.6039734,1.117981-5.5.4379883-6.6599731-2.2610168M446.2887878,532.6499023c1.6010132,3.7260132,4.7470093,5.1199951,8.4020081,3.5490112l12.4219971-5.3370056-.8110046-1.8869934-2.0069885.8619995-.0610046-.1430054c.480011-.6589966,1.5570068-2.7630005.4389954-5.3670044-1.5090027-3.5119934-5.3200073-4.8739929-9.1430054-3.2319946-3.7980042,1.6319885-5.4089966,5.3240051-3.8389893,8.9790039,1.1600037,2.6990051,3.5289917,3.2089844,4.1170044,3.3249817l.0610046.1430054-1.9580078.8420105c-2.5329895,1.0880127-4.7220154.4719849-5.973999-2.4429932-.7900085-1.8390198-.6409912-3.6010132.6719971-4.5610046l-.769989-1.7919922c-2.0470276,1.3609924-2.8530273,4.0279846-1.5500183,7.0619812M443.5137939,510.184906l.8110046,1.8869934,7.4049988-3.1809998c2.0549927-.8829956,4.2160034-.0009766,5.0579834,1.9580078.7490234,1.743988.085022,3.7550049-1.8969727,4.6069946l-7.6930237,3.3050232.8110046,1.8869934,7.8120117-3.3560181c2.7469788-1.1799927,4.1719971-3.8580017,2.9299927-6.7489929-.8320007-1.9349976-2.4100037-2.8410034-3.7579956-2.8840027l-.0620117-.1439819,1.8160095-.7799988-.8110046-1.8870239-12.4219971,5.3370056ZM443.4177856,494.1529236l10.1589966-.460022.0620117.1440125-7.3269958,7.053009-2.8940125-6.7369995ZM435.8778076,492.4118958l.8719788,2.0310059,4.6119995-.1990051,3.4689941,8.0740051-3.3179932,3.2090149.8720093,2.0299988,13.9609985-13.6100159-.9750061-2.2689819-19.492981.7339783Z"/>
    <path class="st4" d="M215.1990967,850.9715881c2.4909973-.2610016,4.4640045,1.348999,4.8849945,3.5709991.427002,2.2480011-.6239929,4.3789978-3.2460022,5.0630035l-1.6389923-8.6340027ZM208.0010986,856.9695892c.5919952,3.1159973,2.7949982,5.1060028,5.4140015,5.3760071l-.3980103-2.0950012c-1.673996-.3170013-2.8369904-1.8430023-3.1719971-3.605011-.5189972-2.7330017.9190063-4.7789917,3.5559998-5.3860016l2.0559998,10.8310089.8939972-.1699982c3.8320007-.7279968,6.3390045-3.6910095,5.5730133-7.727005-.6890106-3.6269989-3.9700012-5.9949951-8.2100067-5.1900024-3.9850006.7570038-6.4839935,3.904007-5.7129974,7.9660034M205.1110992,841.7455902c.6790009,3.576004,3.2129974,5.6349945,6.9940033,4.9169922,2.6049957-.493988,3.9819946-2.5819855,4.1599884-4.5739899l.1529999-.029007c.75,1.0220032,2.1679993,1.9440002,4.1660004,1.5910034,2.8450012-.4869995,4.477005-3.1790009,3.9150085-6.1419983-.5870056-3.0910034-3.0380096-4.8480072-6.3079987-4.2279968l-13.8440094,2.6289978.3830109,2.0179901,13.8190002-2.6239929c2.196991-.4169922,3.7079926.4340057,4.1109924,2.5540009.3919983,2.0690002-.7830048,3.404007-2.4689941,3.723999-1.7369995.3300018-3.451004-.6150055-3.8730011-2.8370056l-.0440063-.2299957-1.8139954.3440094.1649933.868988c.3740082,1.9660034-.3840027,4.3860016-2.9129944,4.8659973-2.427002.4610138-4.2749939-.9079895-4.7259979-3.2839966-.1210022-.6380005-.1130066-1.4339905-.0510101-2.0809937l-1.8899994.3589935c-.0829926.677002-.0599976,1.4940033.0660095,2.1580048M203.7581024,824.7215881c-.529007-2.7850037,1.1299896-5.0579987,4.2459869-5.6499939,3.0149994-.5720062,5.5190125.9109955,6.0380096,3.6439972.4989929,2.6309967-1.003006,5.0339966-4.2720032,5.6539917-2.7850037.529007-5.4640045-.7619934-6.0119934-3.647995M201.9200897,824.9375916c.5480042,2.8869934,2.7510071,3.897995,3.2990112,4.1369934l.0289917.154007-2.0939941.3970032.3679962,1.9420013,13.2830048-2.5220032-.3829956-2.0180054-2.1460114.4069977-.0289917-.1529999c.6119995-.5399933,2.118988-2.3609924,1.5899963-5.144989-.7120056-3.7550049-4.1380005-5.9100037-8.2250061-5.1340027-4.0619965.7719879-6.4339905,4.0269928-5.6920013,7.9349976M199.3470917,809.5735931l.3830109,2.0179901,6.845993-1.298996c2.5279999-.4799957,4.6759949.5149994,5.1360016,2.9410095l.2089996,1.098999,2.0180054-.3840027-.2130127-1.1230011c-.368988-1.9420013-1.969986-2.9869995-3.1669922-3.1569977l-.029007-.154007,2.4780121-.4700012-.378006-1.9920044-13.2830048,2.5210114ZM198.2610931,803.8525848l.3730011,1.9670105,1.7630005-.3350067-.3499908-1.8390045c-.2910004-1.5329895.4499969-2.2289886,1.8809967-2.5009918l7.5349884-1.4300079.776001,4.0870056,1.7120056-.3249969-.776001-4.0870056,3.8569946-.7319946-.3589935-1.8910065-3.1929932.6070099c-.4340057.0820007-.7170105-.155014-.7850037-.5130005l-.3789978-1.9920044-1.7109985.3249969.4749908,2.503006-7.5610046,1.4349976c-2.6819916.5099945-3.723999,2.2689972-3.2579956,4.720993M195.213089,789.6115875c.5870056,3.0910034,2.6650085,4.8399963,5.1690063,4.3639984,5.4909973-1.0419922,1.1690063-8.4790039,4.5400085-9.1190033,1.1499939-.2179871,2.17099.7000122,2.4859924,2.3600006.3350067,1.7630005-.3289948,2.8680115-1.5460052,3.2840118l.3680115,1.9409943c2.3619995-.6600037,3.4049988-2.9750061,2.9389954-5.427002-.5279999-2.7839966-2.3670044-4.526001-4.6150055-4.098999-5.2619934.9990082-.9189911,8.4049988-4.647995,9.1130066-1.3540039.2569885-2.5330048-.6570129-2.9109955-2.6500092-.3690033-1.9409943.2609863-3.2249908,1.8009949-3.7559967l-.3740082-1.9660034c-2.4339905.6999969-3.8059998,2.8130035-3.2089996,5.9550018M192.7711029,774.9375916l.3829956,2.0180054,6.845993-1.3000031c2.529007-.480011,4.6760101.5149994,5.1370087,2.9420013l.2079926,1.0979919,2.0180054-.3829956-.2129974-1.1240082c-.3690033-1.9409943-1.9700012-2.9869995-3.1670074-3.1569977l-.0289917-.1529999,2.4779968-.4700012-.378006-1.9929962-13.2829895,2.5220032ZM197.7601013,759.1175995c2.4909973-.2610016,4.4639893,1.348999,4.8849945,3.5709991.427002,2.2480011-.6239929,4.3789978-3.2460022,5.0629883l-1.6389923-8.6339874ZM190.562088,765.1156006c.5920105,3.1159973,2.7960052,5.1059875,5.4140015,5.3759918l-.397995-2.0939941c-1.673996-.3180084-2.8370056-1.8430023-3.1719971-3.6060028-.5189972-2.7330017.9189911-4.779007,3.5559998-5.3860016l2.0559998,10.8309937.8939972-.1699982c3.8320007-.7269897,6.3390045-3.6909943,5.572998-7.7269897-.6889954-3.6269989-3.9700012-5.9950104-8.2099915-5.1900024-3.9850006.7569885-6.4840088,3.9039917-5.7130127,7.9660034M189.2380981,748.2445984c-.529007-2.7840118,1.1299896-5.0579987,4.246994-5.6490021,3.0140076-.572998,5.5180054.9100037,6.0370026,3.6429901.5,2.631012-1.0019989,5.0340118-4.2720032,5.655014-2.7839966.5279999-5.4639893-.7630005-6.0119934-3.6490021M187.4001007,748.4615936c.5479889,2.8860016,2.7509918,3.8970032,3.2999878,4.1369934l.029007.1529999-2.0950012.3980103.3690033,1.9409943,19.1580048-3.6369934-.3840027-2.0180054-8.0200043,1.522995-.0289917-.1539917c.6119995-.5390015,2.118988-2.3600006,1.5899963-5.1450043-.7129974-3.7550049-4.1390076-5.9089966-8.2259979-5.1329956-4.0610046.7709961-6.4340057,4.026001-5.6920013,7.9349976M185.8551025,738.5125885l.1849976.9710083,1.7879944-.3399963-.1170044-.6130066c-.1210022-.6380005.1990051-1.0429993.8630066-1.1690063l16.322998-3.098999-.3829956-2.0179901-16.322998,3.098999c-1.8130035.3439941-2.651001,1.5090027-2.3359985,3.1689911M190.490097,720.8275909c2.4909973-.2610016,4.4640045,1.348999,4.8860016,3.5720062.427002,2.2480011-.6240082,4.3789978-3.2470093,5.0619965l-1.6389923-8.6340027ZM183.2930908,726.825592c.5910034,3.1170044,2.7949982,5.1060028,5.4130096,5.3769989l-.3970032-2.0950012c-1.6750031-.3170013-2.8379974-1.8430023-3.1719971-3.6049957-.5190125-2.7339935.9179993-4.7799988,3.5549927-5.3860016l2.0570068,10.8300018.8939972-.1690063c3.8309937-.7279968,6.3379974-3.6909943,5.571991-7.7269897-.6879883-3.628006-3.969986-5.9950104-8.2099915-5.1900024-3.9850006.7559967-6.4840088,3.9039917-5.7120056,7.9649963M180.9281006,712.5605927l.3829956,2.0180054,11.5720062-2.1970062.7369995,3.8829956,1.7109985-.3249969-.7369995-3.8829956,1.5579987-.2960052c1.4309998-.2709961,2.6900024.2310028,3.0299988,2.0189972l.2420044,1.2770081,1.7630005-.3350067-.2380066-1.2509918c-.5090027-2.6820068-2.4720001-4.2420044-5.154007-3.7320099l-1.5839996.3000031-.4749908-2.5029907-1.7120056.3249969.4759979,2.5029907-11.571991,2.1970062ZM178.8040924,701.3725891l.3829956,2.0180054,6.8460083-1.3000031c2.5289917-.4799957,4.6759949.5149994,5.1369934,2.9420013l.2080078,1.0980072,2.0180054-.3830109-.2130127-1.1239929c-.368988-1.9409943-1.9700012-2.9869995-3.1669922-3.1569977l-.029007-.1529999,2.4779968-.4700012-.3779907-1.9929962-13.2830048,2.5219879ZM183.7930908,685.552597c2.4909973-.2610016,4.4640045,1.348999,4.8860016,3.5709991.427002,2.2480011-.6239929,4.3800049-3.246994,5.0630035l-1.6390076-8.6340027ZM176.5950928,691.5505981c.5919952,3.1159973,2.7960052,5.1060028,5.4140015,5.3759918l-.397995-2.0939941c-1.6740112-.3170013-2.8370056-1.8430023-3.1719971-3.6060028-.5190125-2.7330017.9189911-4.7789917,3.5559998-5.3860016l2.0559998,10.8310089.8939972-.1699982c3.8320007-.727005,6.3389893-3.6910095,5.572998-7.727005-.6889954-3.6269989-3.9700012-5.9949951-8.2100067-5.1889954-3.9850006.7559967-6.4839935,3.9029999-5.7129974,7.9649963M174.7740936,680.1465912l.3740082,1.9670105,1.7619934-.3350067-.348999-1.8390045c-.2910004-1.5329895.4499969-2.2289886,1.8809967-2.5009918l7.5350037-1.4300079.776001,4.0870056,1.7109985-.3249969-.776001-4.0870056,3.8569946-.7330017-.3580017-1.8899994-3.1929932.6060028c-.4349976.0830078-.7180023-.1549988-.7859955-.5119934l-.378006-1.9930115-1.7109985.3250122.4750061,2.5039978-7.5610046,1.4349976c-2.6820068.5090027-3.723999,2.2689972-3.2590027,4.720993M172.7030945,669.2395935l.3739929,1.9669952,1.7620087-.3349915-.348999-1.8390045c-.2910004-1.5329895.4499969-2.2290039,1.8809967-2.5009918l7.5350037-1.4300079.776001,4.0870056,1.7119904-.3249969-.776001-4.0870056,3.8570099-.7330017-.3590088-1.8899994-3.1929932.6060028c-.4340057.0829926-.7180023-.154007-.7850037-.5120087l-.3789978-1.9919739-1.7109985.3239746.4750061,2.5040131-7.5610046,1.4349976c-2.6820068.5090027-3.723999,2.2689972-3.2590027,4.720993M170.5110931,657.6936035l.3840027,2.0180054,13.2819977-2.5220032-.3829956-2.0169983-13.2830048,2.5209961ZM186.3940887,655.7636108c.1650085.867981.9200134,1.3599854,1.7630005,1.1999817.8170013-.1549988,1.3400116-.8889771,1.1750031-1.7579956-.1600037-.8429871-.9149933-1.3349915-1.7330017-1.1789856-.8430023.1600037-1.3649902.8939819-1.2050018,1.7369995M169.7940979,644.0155945l6.5899963-1.2509766.6929932,3.6529846c.3930054,2.0690002-.1679993,4.1340027-2.5179901,4.5799866-2.2980042.4360046-3.6260071-.9789734-4.0279999-3.098999l-.7369995-3.8829956ZM178.1210938,642.4346008l5.9000092-1.1199951.7079926,3.7290039c.3639984,1.9159851-.4980011,3.5090027-2.2599945,3.8429871-1.8140106.3450012-3.2720032-.7810059-3.6549988-2.7989807l-.6930084-3.6530151ZM167.5921021,642.3165894l1.1929932,6.2840271c.5720062,3.0139771,2.9120026,5.1629944,6.1309967,4.552002,2.529007-.480011,3.4860077-2.40802,3.6660004-3.6860046l.154007-.0299988c1.0379944,1.2850037,2.526001,1.8759766,4.2879944,1.5409851,2.6060028-.493988,4.1900024-2.8859863,3.5449982-6.2829895l-1.095993-5.7730103-17.8809967,3.394989Z"/>
    <path class="st4" d="M106.2981949,263.9835815c2.489006-.2719727,4.4690018,1.3300171,4.901001,3.5499878.4370041,2.2460327-.6049957,4.382019-3.2249985,5.0770264l-1.6760025-8.6270142ZM99.1261978,270.0125732c.6050034,3.1140137,2.8180008,5.0939941,5.4380035,5.3530273l-.4070053-2.0930176c-1.6759949-.3099976-2.8460007-1.8299561-3.1879959-3.59198-.5309982-2.7299805.897995-4.78302,3.5319977-5.401001l2.1040039,10.8220215.8929977-.1740112c3.8279953-.7440186,6.3219986-3.7189941,5.5390015-7.7510376-.7050018-3.6239624-3.9960022-5.9779663-8.2330017-5.1539917-3.9820023.7739868-6.4670029,3.9320068-5.6780014,7.9899902M96.1701965,254.8015747c.6940002,3.572998,3.237999,5.6220093,7.0149994,4.8870239,2.6030045-.5059814,3.9710007-2.598999,4.1399994-4.59198l.1529999-.0300293c.7540054,1.0189819,2.177002,1.934021,4.1730042,1.572998,2.8430023-.5,4.4629974-3.1989746,3.8880005-6.1589966-.5999985-3.0880127-3.0589981-4.835022-6.326004-4.2000122l-13.8330002,2.6890259.3920059,2.0159912,13.8079987-2.684021c2.1940002-.427002,3.7089996.4180298,4.1209946,2.5360107.4020004,2.0670166-.7679977,3.4069824-2.4519958,3.7349854-1.7360001.3370361-3.4540024-.5999756-3.8860016-2.8209839l-.0439987-.2299805-1.8130035.3529663.1690063.8670044c.3819962,1.9660034-.3650055,4.3890381-2.8920059,4.8800049-2.4249954.4710083-4.2779999-.8900146-4.7399979-3.2639771-.1240005-.6380005-.1189957-1.4329834-.0599976-2.0800171l-1.8889999.3670044c-.0800018.6779785-.0530014,1.492981.0759964,2.1569824M94.7421951,237.7835693c-.5410004-2.7819824,1.1080017-5.0619507,4.2220001-5.6679688,3.012001-.585022,5.5230026.8870239,6.0540009,3.617981.5110016,2.6290283-.9809952,5.0369873-4.2480011,5.6719971-2.7819977.5410156-5.4669952-.7379761-6.0279999-3.6220093M92.9051971,238.008606c.5610046,2.8839722,2.7679977,3.8850098,3.3180008,4.1220093l.0299988.1539917-2.0929947.4060059.3769989,1.9400024,13.2709961-2.5800171-.3919983-2.0159912-2.1429977.4169922-.0299988-.1530151c.609993-.5429688,2.1079941-2.3699951,1.5679932-5.1519775-.7299957-3.7520142-4.1649933-5.8920288-8.2490005-5.0980225-4.0579987.7890015-6.4159927,4.0549927-5.6569977,7.960022M90.2651978,222.6555786l.3919983,2.0170288,6.840004-1.3300171c2.5270004-.4909668,4.6790009.4940186,5.1500015,2.9190063l.2129974,1.0969849,2.0159988-.3909912-.2180023-1.1229858c-.3769989-1.9400024-1.9829941-2.9790039-3.1800003-3.1430054l-.0299988-.1530151,2.4760056-.4819946-.387001-1.9899902-13.2720032,2.5789795ZM89.1541977,216.9395752l.3819962,1.9650269,1.7610016-.34198-.3569946-1.8380127c-.2980042-1.5310059.4399948-2.2310181,1.8699951-2.5090332l7.5289993-1.4629517.7930069,4.0829468,1.7099991-.3319702-.7929993-4.0839844,3.8539963-.7490234-.3679962-1.8889771-3.1900024.6209717c-.4339981.0839844-.7180023-.1519775-.7870026-.5100098l-.387001-1.9899902-1.7099991.3320312.4860001,2.5009766-7.5550003,1.4689941c-2.6800003.5209961-3.7139969,2.2850342-3.237999,4.7349854M86.0441971,202.7116089c.5999985,3.0880127,2.6870041,4.8280029,5.1880035,4.34198,5.4869995-1.0670166,1.1319962-8.4840088,4.5009995-9.1389771,1.147995-.2230225,2.173996.6900024,2.4960022,2.348999.3419952,1.7609863-.3160019,2.8689575-1.5320053,3.2910156l.3769989,1.9389648c2.3590012-.6699829,3.3920059-2.9899902,2.9150009-5.4400024-.5400009-2.7819824-2.387001-4.5150146-4.6329956-4.0789795-5.2580032,1.0219727-.8820038,8.4089966-4.6080017,9.1329956-1.3530045.2630005-2.5360031-.6459961-2.9230042-2.6359863-.3769989-1.9400024.2470016-3.2270508,1.7850037-3.7640381l-.3820038-1.9649658c-2.4309998.7109985-3.7939987,2.8299561-3.1839981,5.9689941M83.5382004,188.048584l.3919983,2.0159912,6.8399963-1.3299561c2.5270004-.4910278,4.6780014.4949951,5.1500015,2.9199829l.2130051,1.0969849,2.0159988-.3919678-.2180023-1.1230469c-.3769989-1.9400024-1.9830017-2.9779663-3.1800003-3.1430054l-.0299988-.1529541,2.4759979-.4810181-.387001-1.9910278-13.2719955,2.5800171ZM88.4581985,172.206604c2.4899979-.2719727,4.4700012,1.3300171,4.901001,3.5499878.4369965,2.2460327-.6050034,4.382019-3.223999,5.0770264l-1.677002-8.6270142ZM81.2872009,178.2355957c.6049957,3.1140137,2.8169937,5.0939941,5.4369965,5.3530273l-.4069977-2.0930176c-1.6760025-.3099976-2.8460007-1.8300171-3.1880035-3.5910034-.5309982-2.7310181.8980026-4.7839966,3.5319977-5.4019775l2.1040039,10.8219604.8929977-.1740112c3.8290024-.7439575,6.3230057-3.7189941,5.5390015-7.7509766-.7039948-3.6240234-3.9960022-5.9769897-8.2330017-5.1539917-3.9809952.7739868-6.4659958,3.9320068-5.6769943,7.9899902M79.8891983,161.3706055c-.5410004-2.7810059,1.1080017-5.0620117,4.2220001-5.6669922,3.012001-.5859985,5.5230026.8859863,6.0540009,3.6170044.5110016,2.6289673-.9810028,5.0379639-4.2480011,5.6729736-2.7819977.5410156-5.4670029-.7390137-6.0279999-3.6229858M78.0522003,161.5955811c.560997,2.8840332,2.7679977,3.8850098,3.3180008,4.1230469l.0289993.1529541-2.0920029.4070435.3769989,1.9389648,19.1409988-3.7199707-.3919983-2.0170288-8.0139999,1.5579834-.0289993-.1529541c.6090012-.5419922,2.1080017-2.3699951,1.5670013-5.1520386-.7290039-3.7519531-4.1640015-5.8909912-8.2480011-5.0979614-4.0579987.7890015-6.4160004,4.0549927-5.6569977,7.9599609M76.4641953,151.6546021l.1880035.9689941,1.7870026-.3469849-.1190033-.6119995c-.1240005-.6380005.1940002-1.0449829.8580017-1.1740112l16.3089981-3.1699829-.3919983-2.0159912-16.3090057,3.1699829c-1.8119965.3519897-2.6439972,1.5209961-2.3219986,3.1799927M81.0211945,133.949585c2.4900055-.2719727,4.4700012,1.3290405,4.9020004,3.5499878.4360046,2.2460327-.6049957,4.382019-3.2249985,5.0760498l-1.677002-8.6260376ZM73.8501968,139.9785767c.6050034,3.1140137,2.8180008,5.0939941,5.4370041,5.3530273l-.4060059-2.0930176c-1.6759949-.3099976-2.8460007-1.8309937-3.1879959-3.59198-.5309982-2.7310181.897995-4.78302,3.5319977-5.401001l2.1030045,10.8209839.8939972-.1729736c3.8279953-.7440186,6.3219986-3.7189941,5.5390015-7.7510376-.7050018-3.625-3.9960022-5.9779663-8.2330017-5.1539917-3.9820023.7739868-6.4670029,3.9320068-5.6780014,7.9899902M71.4241943,125.7235718l.3920059,2.0160522,11.560997-2.2470093.7539978,3.8789673,1.7099991-.3319702-.7539978-3.8790283,1.5569992-.3029785c1.4290009-.2780151,2.6910019.2189941,3.038002,2.0050049l.2480011,1.276001,1.762001-.34198-.2440033-1.2510376c-.5209961-2.6790161-2.4909973-4.2299805-5.1699982-3.7089844l-1.5830002.3070068-.4860001-2.5010376-1.7099991.3330078.4860001,2.5010376-11.5610046,2.2469482ZM69.2511978,114.5455933l.3919983,2.0159912,6.840004-1.3299561c2.526001-.4910278,4.6779938.4949951,5.1489944,2.9189453l.2140045,1.0980225,2.0159988-.3919678-.2180023-1.1230469c-.3779984-1.9400024-1.9830017-2.9790039-3.1809998-3.1430054l-.0289993-.1529541,2.4749985-.4810181-.387001-1.9910278-13.2709961,2.5800171ZM74.1701965,98.7036133c2.4899979-.2720337,4.4700012,1.3289795,4.9020004,3.5499878.435997,2.2459717-.6049957,4.382019-3.2249985,5.0759888l-1.677002-8.6259766ZM66.9991989,104.732605c.6049957,3.1140137,2.8180008,5.0939941,5.4369965,5.3530273l-.4059982-2.0930176c-1.6760025-.3099976-2.8460007-1.8309937-3.1880035-3.592041-.5309982-2.7299805.8970032-4.782959,3.5320053-5.401001l2.1029968,10.8220215.8940048-.1740112c3.8279953-.7439575,6.3219986-3.7189941,5.5379944-7.7509766-.7039948-3.6240234-3.9959946-5.9780273-8.2319946-5.1539917-3.9820023.7739868-6.4670029,3.9320068-5.6780014,7.9899902M65.1281967,93.3366089l.3820038,1.9649658,1.760994-.34198-.3569946-1.8380127c-.2980042-1.5310059.4399948-2.230957,1.8699951-2.5089722l7.5289993-1.4630127.7940063,4.0839844,1.7099991-.3330078-.7939987-4.0829468,3.8539963-.75-.3669968-1.8880005-3.1910019.6199951c-.4339981.0839844-.7180023-.1520386-.7870026-.5090332l-.387001-1.9909668-1.7099991.3330078.4860001,2.5009766-7.5550003,1.4680176c-2.6800003.5209961-3.7139969,2.2849731-3.237999,4.7349854M63.0102005,82.4385986l.382,1.9660034,1.7609978-.3430176-.3570023-1.8369751c-.2979965-1.5319824.4400024-2.2310181,1.8690033-2.5090332l7.5289993-1.4639893.7939987,4.0840454,1.7099991-.3330078-.7939987-4.0830078,3.8539963-.7490234-.3669968-1.8889771-3.1900024.6199951c-.4339981.085022-.7179947-.1519775-.7879944-.5090332l-.387001-1.9909668-1.7099991.3330078.4869995,2.5009766-7.5550003,1.4680176c-2.6800003.5209961-3.7140007,2.2849731-3.237999,4.7349854M60.7681999,70.9025879l.3909988,2.0170288,13.2719994-2.5800171-.3919983-2.0159912-13.2709999,2.5789795ZM76.6421967,68.9036255c.1679993.8670044.9250031,1.355957,1.7679977,1.1919556.8160019-.157959,1.3350067-.8949585,1.1669998-1.7630005-.1639938-.84198-.9209976-1.3299561-1.737999-1.1719971-.8419952.1640015-1.3610001.901001-1.1969986,1.743042M59.9902,57.2285767l6.5849953-1.2799683.7089996,3.6489868c.4020004,2.0679932-.1500015,4.1350098-2.4980011,4.5910034-2.2969933.4470215-3.6299934-.9630127-4.041996-3.0809937l-.7539978-3.8790283ZM68.3101959,55.6105957l5.8960037-1.1459961.723999,3.7269897c.3720016,1.9140015-.4830017,3.5100098-2.2440033,3.8519897-1.8119965.3530273-3.2740021-.7669678-3.6660004-2.782959l-.7099991-3.6500244ZM57.7812004,55.5385742l1.2199974,6.2790527c.5860023,3.0109863,2.9350014,5.1499634,6.151001,4.5249634,2.5270004-.4909668,3.4749985-2.4240112,3.651001-3.7030029l.1529999-.0289917c1.0429993,1.2800293,2.5339966,1.8640137,4.2949982,1.5220337,2.6029968-.5060425,4.177002-2.9040527,3.5169983-6.2990112l-1.1210022-5.7680054-17.8659935,3.4729614Z"/>
    <path class="st4" d="M767.9373169,877.519104c2.3759766-.7939911,4.6499634.3509979,5.5429688,2.4300079.9030151,2.1019897.3389893,4.4099884-2.0739746,5.644989l-3.4689941-8.0749969ZM762.208313,884.9331055c1.2529907,2.9140015,3.8349609,4.3800049,6.4499512,4.0769958l-.84198-1.9589996c-1.7030029.053009-3.1690063-1.1849976-3.8770142-2.8329926-1.0979614-2.5559998-.1380005-4.8650055,2.3049927-6.0279999l4.3520508,10.1289978.8359985-.3589935c3.5839844-1.5400085,5.3899536-4.9760132,3.7680054-8.75-1.4570312-3.3930054-5.1730347-4.9940033-9.1380005-3.2900085-3.7270508,1.6009979-5.4850464,5.2149963-3.8540039,9.0130005M756.0922852,870.6950989c1.4359741,3.3450012,4.3569946,4.8070068,7.8920288,3.2880096,2.4369507-1.0469971,3.3289795-3.3829956,3.0709839-5.3660049l.1439819-.0619965c.9530029.8360062,2.5380249,1.4280014,4.4110107.6520004,2.6719971-1.0920029,3.684021-4.072998,2.492981-6.8440018-1.2420044-2.8909988-4.0149536-4.0759964-7.072998-2.762001l-12.9469604,5.5620041.8099976,1.887001,12.9239502-5.552002c2.0550537-.8830032,3.7140503-.3789978,4.56604,1.6039963.8309937,1.9350052-.0280151,3.4920044-1.6040039,4.1700058-1.625.697998-3.5029907.1459961-4.3959961-1.9320068l-.092041-.2149963-1.6959839.7289963.348999.8120041c.7900391,1.8389969.5740356,4.3659973-1.7910156,5.3820038-2.2699585.9749908-4.3699951.0379944-5.3239746-2.1840057-.257019-.5970001-.4219971-1.375-.5009766-2.0199966l-1.7670288.7589951c.0650024.6800079.2640381,1.4710083.5310059,2.0919952M751.0863037,854.368103c-1.1190186-2.6039963.0089722-5.1829987,2.9229736-6.4349976,2.8190308-1.2109985,5.585022-.3050003,6.6829834,2.2509995,1.0580444,2.4609985.1110229,5.1310043-2.9469604,6.4449997-2.6040039,1.1180038-5.4990234.4380035-6.6589966-2.2610016M749.3382568,854.9771042c1.1600342,2.7000046,3.5300293,3.2099991,4.1170044,3.3250046l.0620117.1429977-1.9589844.8420029.7799683,1.8159943,12.4220581-5.336998-.8110352-1.8880005-2.0059814.862999-.0620117-.1439972c.4810181-.6590042,1.5579834-2.7630005.4390259-5.3670044-1.5090332-3.5119934-5.3200073-4.8739929-9.1420288-3.2319946-3.7979736,1.6319962-5.4099731,5.3239975-3.8400269,8.9789963M743.5012817,840.5341034l.8110352,1.8880005,6.4019775-2.7509995c2.3649902-1.0159988,4.677002-.5089951,5.6519775,1.7600021l.44104,1.0270004,1.8869629-.810997-.4509888-1.0510025c-.7800293-1.8150024-2.5700073-2.4899979-3.7750244-2.3960037l-.0609741-.1439972,2.3170166-.9950027-.8010254-1.8639984-12.4219971,5.336998ZM741.2022705,835.1841049l.7910156,1.8390045,1.6480103-.7080002-.7390137-1.7200012c-.6159668-1.4329987-.0429688-2.2740021,1.2949829-2.848999l7.0469971-3.0270004,1.6420288,3.8219986,1.6010132-.6880035-1.6430054-3.8219986,3.6079712-1.5499954-.7600098-1.7670059-2.9859619,1.2830048c-.4060059.173996-.7340088.0039978-.8779907-.3310013l-.8000488-1.862999-1.6009521.6879959,1.0059814,2.3410034-7.0709839,3.038002c-2.5079956,1.0769958-3.1450195,3.0199966-2.1600342,5.3139954M735.1442871,821.9401093c1.2420044,2.8899994,3.6500244,4.147995,5.9910278,3.1419983,5.1359863-2.2070007-.6930542-8.5309982,2.4599609-9.8860016,1.0750122-.461998,2.2700195.2129974,2.9370117,1.7659988.7089844,1.6480026.2999878,2.8710022-.7990112,3.5410004l.7800293,1.8160019c2.1640015-1.1559982,2.6799927-3.6419983,1.6950073-5.9349976-1.1190186-2.6040039-3.2910156-3.9060059-5.3930054-3.003006-4.9210205,2.114006.9219971,8.4039993-2.5650024,9.9029999-1.2670288.5440063-2.6160278-.0939941-3.4160156-1.9570007-.7800293-1.8149948-.4440308-3.2049942.9450073-4.0569992l-.7900391-1.8389969c-2.2249756,1.2109985-3.1069946,3.5699997-1.8449707,6.5090027M727.4502563,803.173111l.8100586,1.8880005,7.4059448-3.1820068c2.0540161-.8829956,4.2160034,0,5.0580444,1.9590073.7489624,1.7429962.0849609,3.7549973-1.8980103,4.6069946l-7.6920166,3.3040009.8110352,1.8880005,7.8119507-3.3560028c2.7470093-1.1809998,4.1710205-3.8590012,2.9300537-6.7490005-.8320312-1.9349976-2.4100342-2.8419952-3.7580566-2.8849945l-.0619507-.1430054,1.815979-.7799988-.8109741-1.887001-12.4220581,5.3360062ZM728.8963013,786.6491089c2.3759766-.7939911,4.6499634.3509979,5.5429688,2.4290009.9030151,2.1019974.3389893,4.409996-2.0739746,5.6449966l-3.4689941-8.0739975ZM723.1672974,794.0621109c1.2520142,2.9150009,3.8349609,4.3799973,6.4500122,4.0769958l-.842041-1.9580002c-1.7039795.052002-3.1690063-1.185997-3.8769531-2.8339996-1.098999-2.5559998-.1380005-4.8649902,2.3049927-6.0279999l4.3519897,10.1289978.8359985-.3589935c3.5830078-1.5400009,5.3900146-4.9760056,3.7680054-8.75-1.4570312-3.3919983-5.1730347-4.9929962-9.1390381-3.2899933-3.7259521,1.6009979-5.4849854,5.2149887-3.8529663,9.0129929M718.2232666,777.8781128c-1.1189575-2.6040039.0090332-5.1829987,2.9240112-6.4349976,2.8179932-1.2109985,5.585022-.3050079,6.6829834,2.2509918,1.0570068,2.4609985.1100464,5.131012-2.947998,6.4450073-2.6029663,1.1179962-5.4989624.4380035-6.6589966-2.2610016M716.4762573,778.4871063c1.1590576,2.7000122,3.5290527,3.2100067,4.1170044,3.3250122l.0610352.1429901-1.9589844.8420105.7799683,1.8159943,17.9169922-7.697998-.8109741-1.8870087-7.5010376,3.2230072-.0619507-.1439972c.480957-.6590118,1.5579834-2.7630005.4389648-5.3670044-1.5079956-3.5119934-5.3200073-4.8739929-9.1419678-3.2319946-3.7980347,1.6319885-5.4100342,5.3239899-3.8390503,8.9789886M708.2992554,758.598114l.8100586,1.8869934,7.4059448-3.1809998c2.0540161-.8829956,4.2160034-.0009918,5.0580444,1.9580078.7489624,1.7440033.0849609,3.7559967-1.8980103,4.6069946l-7.6920166,3.3050079.8110352,1.8869934,7.8119507-3.3560028c2.7470093-1.1799927,4.1710205-3.8580017,2.9300537-6.7480011-.8320312-1.9349976-2.4100342-2.8419952-3.7580566-2.8849945l-.0619507-.1439972,1.815979-.7799988-.8109741-1.8870087-12.4220581,5.3370056ZM705.7432861,752.650116l.8109741,1.8869934,12.4219971-5.3369904-.8109741-1.8870087-12.4219971,5.3370056ZM720.8322754,747.3281097c.3480225.8119965,1.1920166,1.1289978,1.9799805.7900085.7650146-.3280029,1.1160278-1.1580048.7670288-1.9700012-.3389893-.7890015-1.1829834-1.1060028-1.9470215-.7770081-.7879639.3390045-1.1389771,1.1690063-.7999878,1.9570007M700.7863159,741.1121063l3.9309692,9.1490021,1.7440186-.7489929-3.1000366-7.2140045,14.9780273-6.4349976-.8309937-1.9349976-16.7219849,7.1839905Z"/>
    <path class="st4" d="M856.4777832,585.5132141c-.8460083-2.3580017.2490234-4.6570129,2.3070068-5.5950012,2.0819702-.9490051,4.4030151-.4339905,5.6889648,1.9509888l-7.9959717,3.6440125ZM864.0137939,591.0792236c2.8869629-1.3160095,4.2960205-3.9290161,3.9359741-6.5370178l-1.9400024.8840027c.0900269,1.7019958-1.1159668,3.1950073-2.7479858,3.9389954-2.5319824,1.1530151-4.8610229.2430115-6.0769653-2.1739807l10.0319824-4.5720215-.3779907-.8279724c-1.6170044-3.5490112-5.092041-5.2799988-8.8300171-3.5760193-3.3599854,1.5310059-4.8790283,5.2810059-3.0889893,9.2080078,1.6820068,3.6910095,5.3330078,5.3699951,9.0939941,3.6560059M849.9137573,597.5052185c3.3120117-1.5100098,4.710022-4.4609985,3.1140137-7.9630127-1.098999-2.4129944-3.4539795-3.2539978-5.4320068-2.9530029l-.0639648-.1419983c.8139648-.9709778,1.3720093-2.5679932.5549927-4.4249878-1.1500244-2.6470032-4.1519775-3.5929871-6.8970337-2.3429871-2.8619995,1.3049927-3.9869995,4.1029968-2.6069946,7.1319885l5.8439941,12.822998,1.8690186-.8519897-5.8330078-12.7990112c-.9279785-2.0350037-.4599609-3.7049866,1.5040283-4.6000061,1.9160156-.8739929,3.4920044-.0489807,4.2030029,1.5130005.7340088,1.6080017.2229614,3.4980164-1.835022,4.4360046l-.2130127.0970154.7659912,1.6799927.8040161-.3659973c1.8220215-.8310242,4.3530273-.6700134,5.4199829,1.6730042,1.0240479,2.2469788.1330566,4.367981-2.0669556,5.3699951-.5910034.269989-1.3660278.4509888-2.0090332.5449829l.7980347,1.75c.677002-.0799866,1.4649658-.29599,2.0799561-.5759888M833.6987915,602.8652039c-2.5789795,1.1760254-5.1810303.105011-6.4960327-2.7819824-1.2729492-2.7919922-.4279785-5.5769958,2.1040039-6.7310181,2.4370117-1.1099854,5.1270142-.2219849,6.507019,2.8059998,1.1760254,2.57901.559021,5.4890137-2.1149902,6.7070007M834.3468018,604.5992126c2.6729736-1.2179871,3.1309814-3.598999,3.2340088-4.1879883l.1419678-.0650024.8840332,1.9400024,1.7979736-.8190002-5.6069946-12.303009-1.8690186.8519897.9060059,1.9869995-.1419678.0650024c-.6700439-.4660034-2.7969971-1.4969788-5.375-.321991-3.4780273,1.5849915-4.757019,5.4249878-3.0320435,9.2099915,1.7139893,3.7619934,5.44104,5.2929993,9.0610352,3.6430054M820.03479,610.7502136l1.8690186-.8519897-2.8900146-6.3399963c-1.0670166-2.3430176-.6110229-4.6650085,1.6359863-5.6890259l1.0180054-.4639893-.8519897-1.868988-1.0410156.4750061c-1.7979736.8190002-2.4329834,2.6229858-2.3140259,3.8259888l-.1419678.0639954-1.0460205-2.2950134-1.8449707.8410034,5.6069946,12.303009ZM814.7348022,613.1652222l1.8219604-.8300171-.7439575-1.6329956-1.7030029.7770081c-1.4200439.6470032-2.2730103.0920105-2.8760376-1.2330017l-3.1809692-6.9790039,3.7849731-1.7250061-.7219849-1.5849915-3.7849731,1.7250061-1.6290283-3.572998-1.75.7980042,1.3469849,2.9579773c.184021.4020081.0200195.7330017-.3109741.8840027l-1.8450317.8410034.7220459,1.5849915,2.3189697-1.0559998,3.190979,7.0030212c1.132019,2.4840088,3.0890503,3.0780029,5.3600464,2.0429993M801.0108032,619.7912292c3.6199951-1.6500244,4.8009644-4.7020264,3.6149902-7.3050232-3.052002-6.6949768-10.7969971.6350098-12.8569946-3.8840027-.625-1.3719788-.2009888-3.1369934,2.1409912-4.2039795,2.2479858-1.0249939,4.0299683-.4370117,4.8930054,1.4559937l1.9639893-.894989c-1.5640259-3.4309998-5.1229858-3.4660034-7.6309814-2.322998-3.3359985,1.519989-4.3610229,4.473999-3.28302,6.8389893,3.0189819,6.625,10.5250244-1.1669922,12.8859863,4.0140076.7880249,1.7269897-.2890015,3.5029907-2.4649658,4.4949951-2.5079956,1.1430054-4.7709961.3169861-5.644043-1.6000061l-1.9159546.8739929c1.401001,3.0750122,5.0089722,4.0320129,8.2969971,2.53302M779.9328003,629.0252075l1.8689575-.8509827-2.8889771-6.3410034c-1.0679932-2.3420105-.6119995-4.6650085,1.6359863-5.6889954l1.0170288-.4630127-.8519897-1.868988-1.0410156.473999c-1.7980347.8190002-2.4329834,2.6229858-2.3129883,3.8259888l-.1420288.0650024-1.0460205-2.2949829-1.8459473.8409729,5.6069946,12.302002ZM763.3807983,627.9402161c-.8460083-2.3580017.2489624-4.6570129,2.3070068-5.5950012,2.0819702-.9490051,4.4019775-.4349976,5.6889648,1.9500122l-7.9959717,3.644989ZM770.9168091,633.5062256c2.8869629-1.3160095,4.2959595-3.9300232,3.9359741-6.5370178l-1.9400024.8840027c.0900269,1.7019958-1.1160278,3.1940002-2.7479858,3.9380188-2.5320435,1.1539917-4.8610229.243988-6.0770264-2.1740112l10.0319824-4.5710144-.3779907-.8279724c-1.6170044-3.5490112-5.09198-5.2799988-8.8299561-3.5760193-3.3600464,1.5310059-4.8790283,5.2810059-3.0890503,9.2080078,1.6820068,3.6910095,5.3330078,5.3699951,9.0940552,3.6560059M751.1878052,642.1252136l1.8689575-.8509827-3.3429565-7.335022c-.927002-2.0339966-.092041-4.2149963,1.8479614-5.098999,1.7269897-.7869873,3.7529907-.1669922,4.6480103,1.7960205l3.4710083,7.618988,1.8690186-.8519897-3.5250244-7.7369995c-1.2399902-2.7200012-3.947998-4.0859985-6.8109741-2.7820129-1.9170532.8739929-2.7890015,2.4710083-2.802002,3.8200073l-.1420288.0650024-.8200073-1.7980042-1.8690186.8519897,5.6070557,12.302002ZM734.6347656,641.0402222c-.8449707-2.3580017.25-4.6570129,2.3079834-5.5950012,2.0820312-.9490051,4.4020386-.4349976,5.6890259,1.9499817l-7.9970093,3.6450195ZM742.1717529,646.6052246c2.8870239-1.3150024,4.2960205-3.9290161,3.9360352-6.5360107l-1.9400024.8840027c.0899658,1.7019958-1.1160278,3.1940002-2.7479858,3.9379883-2.5320435,1.1540222-4.8610229.2440186-6.0770264-2.1739807l10.0310059-4.5710144-.3770142-.8280029c-1.6170044-3.5489807-5.09198-5.2799988-8.8299561-3.5759888-3.3600464,1.5310059-4.8800049,5.2810059-3.0900269,9.2080078,1.6820068,3.690979,5.3330078,5.3699951,9.0949707,3.6549988M726.6437988,651.6542053c-2.6740112,1.2180176-5.2750244-.2249756-6.4500122-2.8039856-1.3800049-3.0289917-.2850342-5.6419983,2.1519775-6.7529907,2.5310059-1.1530151,5.1879883.0359802,6.460022,2.8280029,1.3150024,2.8859863.4160156,5.5529785-2.1619873,6.7289734M727.5267944,653.2792053c3.6199951-1.6489868,4.9099731-5.4659729,3.1950073-9.2269897-1.7250366-3.7860107-5.4620361-5.3399963-8.9400024-3.7550049-2.5790405,1.1750183-3.1960449,3.4570007-3.28302,4.2680054l-.1420288.0650024-3.3859863-7.4290161-1.8689575.8520203,8.0859985,17.743988,1.7989502-.8199768-.8849487-1.9400024.1419678-.0640259c.5130005.309021,2.6099854,1.5250244,5.28302.3059998M711.5337524,660.5682068c1.9160156-.8729858,2.7880249-2.4709778,2.802002-3.8199768l.1420288-.0650024.8200073,1.7980042,1.8689575-.8510132-5.6069946-12.303009-1.8689575.8520203,3.3639526,7.3809814c.927002,2.0350037.092041,4.2160034-1.8479614,5.1000061-1.7269897.7869873-3.7520142.1669922-4.6470337-1.7969971l-3.4939575-7.6650085-1.8690186.8520203,3.526001,7.7359924c1.2399902,2.7210083,3.947998,4.0869904,6.8109741,2.7819824M707.2037964,644.4832153c.7099609-.322998,1.0419922-1.1600037.7080078-1.8939819-.322998-.710022-1.184021-1.0310059-1.894043-.7080078-.7810059.3559875-1.0429688,1.1609802-.7080078,1.8939819.3340454.7340088,1.1130371,1.0640259,1.894043.7080078M703.2287598,646.2952271c.7810059-.3560181,1.0430298-1.1610107.7090454-1.8940125-.3240356-.7099915-1.1140137-1.0639954-1.8950195-.7089844-.7089844.3239746-1.0310059,1.1849976-.7080078,1.894989.3339844.7330017,1.184021,1.0310059,1.8939819.7080078M691.6427612,667.2042084l-5.9840088-13.1309967,3.0050049-1.368988c3.973999-1.8110046,7.5050049-.3340149,9.3270264,3.6640015,1.8980103,4.1640015.5839844,7.6769867-3.3430176,9.46698l-3.0050049,1.3690033ZM690.5028076,669.7812042l4.9209595-2.2429962c5.2520142-2.3929901,6.8699951-6.9309998,4.5310059-12.0650024-2.2000122-4.8259888-6.8259888-6.8899841-12.0780029-4.4960022l-4.9210205,2.2430115,7.5470581,16.5609894Z"/>
    <polyline class="st1" points="949.6810303 120 254.5630493 418.1099854 250.3110352 450.7090149 230.4680176 511.6539917 277.2400513 620.7869873 301.335022 637.7949829 397.7130127 834.8029785"/>
    <line class="st1" x1="350.9408875" y1="380.7874146" x2="590.4688721" y2="926.9294434"/>
    <path class="st1" d="M508.2637024,308.9763794s38.9999695,94.3880005,44.5669861,100.1570129c17.322998,17.9530029,59.5269775,29.2919922,56.6929932,57.6380005-2.835022,28.3469849-17.6380005,102.9919739-13.3859863,114.3309937,4.2519531,11.3389893,153.0709839,350.07901,153.0709839,350.07901"/>
    <polyline class="st1" points="1108.4211426 511.1810913 272.9881592 891.4960938 271.571167 930.7091064"/>
    <line class="st1" x1="272.9881897" y1="887.2441006" x2="97.2401886" y2="-14.1728516"/>
    <path class="st1" d="M315.5078125-18.4251709l-83.6220093,316.0629883s-21.4169922,94.9609985-53.2279968,94.9609985"/>
    <line class="st1" x1="-198.9803009" y1="97.7952881" x2="177.3187103" y2="396.1412964"/>
    <line class="st2" x1="358.0274963" y1="-10.3936768" x2="511.0984802" y2="311.8113403"/>
    <path class="st2" d="M541.4921265-9.9213257s40.46698,95.9060059,62.3619995,95.9060059c26.2989502,0,56.6929932-39.2129517,79.3699951,14.6450195s51.0239868,111.9689941,51.0239868,111.9689941"/>
    <path class="st4" d="M252.3651886,70.3912354c-2.3649902-.8259888-3.4619904-3.1239624-2.8959961-5.3139648.572998-2.2150269,2.4329987-3.6950073,5.0960083-3.1940308l-2.2000122,8.5079956ZM261.433197,68.0372314c.7939758-3.0709839-.3500061-5.8109741-2.6029968-7.1729736l-.5340271,2.0639648c1.3800049,1.0020142,1.7810059,2.8780518,1.3310242,4.6150513-.6960144,2.6929932-2.8690186,3.9299927-5.5130005,3.3540039l2.7599792-10.6730347-.8809814-.2279663c-3.776001-.9760132-7.3079987.6349487-8.3359985,4.6119995-.9250031,3.5739746,1.0330048,7.1149902,5.2120056,8.1959839,3.9269714,1.0159912,7.5289917-.7650146,8.5639954-4.7670288M257.5531921,83.0392456c.9119873-3.5239868-.5020142-6.4680176-4.2279968-7.4320068-2.5670013-.6640015-4.7030029.6370239-5.7129974,2.3630371l-.151001-.0390015c-.2420044-1.2440186-1.1329956-2.6830444-3.0890045-3.2160034-2.7810059-.7730103-5.4060059.9649658-6.1609955,3.8850098-.7880096,3.0459595.6790009,5.6809692,3.901001,6.5149536l13.6429901,3.5280151.5140076-1.9890137-13.6179962-3.5209961c-2.1650085-.5599976-3.1679993-1.9749756-2.628006-4.0639648.5270081-2.0390015,2.1600037-2.7449951,3.8209991-2.3150024,1.7120056.4429932,2.8590088,2.0289917,2.2929993,4.2189941l-.0579987.2260132,1.7870026.4619751.220993-.8560181c.5010071-1.9379883,2.2190094-3.8029785,4.7109985-3.1589966,2.3910065.6190186,3.4790039,2.6459961,2.8730011,4.9869995-.1629944.6290283-.5089874,1.3450317-.8409882,1.9039917l1.8619995.4810181c.3639832-.5769653.6919861-1.3250122.8609924-1.9790039M251.5151978,99.0132446c-.7089996,2.7440186-3.1800079,4.0930176-6.2510071,3.2980347-2.9700012-.7680054-4.6029968-3.177002-3.9059906-5.8710327.67099-2.59198,3.0540009-4.1239624,6.276001-3.2910156,2.743988.7090454,4.6169891,3.0200195,3.8809967,5.8640137M253.2701874,99.6012573c.7360077-2.8439941-.8259888-4.697998-1.219986-5.1489868l.0389862-.151001,2.0650024.5339966.4940033-1.9130249-13.0890045-3.3850098-.5139923,1.9880371,2.1139984.5469971-.0390015.151001c-.7839966.2269897-2.9230042,1.230957-3.6329956,3.9749756-.9570007,3.7000122,1.2229919,7.1110229,5.25,8.1520386,4.0019989,1.0349731,7.5370026-.8970337,8.5329895-4.7490234M249.0431976,114.5952759l.5149994-1.9890137-6.7460022-1.7440186c-2.4920044-.6450195-4.0099945-2.4609985-3.3919983-4.8519897l.2799988-1.0819702-1.9880066-.5150146-.2869873,1.1079712c-.4950104,1.9130249.5079956,3.5419922,1.5169983,4.2059937l-.0390015.151001-2.4410095-.631958-.5079956,1.9639893,13.0890045,3.3850098ZM247.5851898,120.2332764l.5010071-1.9380493-1.7360077-.4489746-.4689941,1.8120117c-.3910065,1.5100098-1.3580017,1.8239746-2.7680054,1.4599609l-7.4250031-1.9209595,1.0410004-4.0270386-1.6859894-.4369507-1.0420074,4.0279541-3.8009949-.9829712-.4819946,1.8629761,3.1469879.8129883c.428009.1110229.5830078.4470215.4920044.7990112l-.5079956,1.9630127,1.6859894.4370117.6380005-2.46698,7.451004,1.927002c2.6430054.6829834,4.3359985-.4630127,4.9609985-2.8800049M244.2671967,134.4142456c.7879944-3.0460205-.3460083-5.5150146-2.8130035-6.1530151-5.4120026-1.3989868-4.673996,7.1700439-7.996994,6.3110352-1.1330109-.2930298-1.6650085-1.5579834-1.2420044-3.1940308.4490051-1.7369995,1.5209961-2.4539795,2.8000031-2.3109741l.4949951-1.9130249c-2.4190063-.4110107-4.348999,1.2380371-4.973999,3.6550293-.7089996,2.7440186.2109985,5.1029663,2.4259949,5.6759644,5.1860046,1.3410034,4.4160004-7.2099609,8.0910034-6.2589722,1.3339996.3449707,2.0110016,1.6740112,1.503006,3.6380005-.4950104,1.9130249-1.6119995,2.8059692-3.2310028,2.6290283l-.5010071,1.9379883c2.5.4049683,4.6420135-.9210205,5.4430084-4.0170288M238.5802002,149.0292358c-.7089996,2.7440186-3.1790009,4.092041-6.25,3.2980347-2.9710083-.7680054-4.6030121-3.1780396-3.9070129-5.8710327.6710052-2.5929565,3.0540009-4.125,6.276001-3.2909546,2.7440033.7089844,4.6170044,3.0199585,3.881012,5.8639526M240.3351898,149.6172485c.7360077-2.8439941-.8259888-4.697998-1.2189941-5.1489868l.0390015-.151001,2.0639954.5339966.4940033-1.9140015-18.878006-4.882019-.5149994,1.9890137,7.904007,2.0440063-.0390015.151001c-.7839966.2269897-2.9230042,1.2310181-3.6329956,3.9749756-.9570007,3.7000122,1.2229919,7.1100464,5.25,8.1520386,4.0029907,1.0349731,7.5369873-.8980103,8.5329895-4.7490234M236.1082001,164.6112671l.5149994-1.9890137-6.7460022-1.7449951c-2.4920044-.6439819-4.0100098-2.460022-3.3919983-4.8510132l.2799988-1.0830078-1.9880066-.5139771-.2870026,1.1079712c-.4949951,1.9130249.5080109,3.5410156,1.5180054,4.2050171l-.0399933.151001-2.4410095-.6309814-.5079956,1.9630127,13.0890045,3.3859863ZM231.9411926,174.597229c-.7220001,2.7940063-3.3509979,4.2360229-6.2960052,3.473999-2.8699951-.7419434-4.5519867-3.2719727-3.822998-6.0909424.7290039-2.8190308,3.4080048-4.2480469,6.303009-3.4990234,2.9199982.7550049,4.5449982,3.2969971,3.8159943,6.1159668M233.7541962,175.0662842c1.0149994-3.927002-1.1750031-7.6090088-5.102005-8.6240234-3.9259949-1.0159912-7.6139984,1.09198-8.6360016,5.0440063-1.0090027,3.9019775,1.1500092,7.6019897,5.1009979,8.6239624,3.9780121,1.0290527,7.6210022-1.1169434,8.6370087-5.0439453M227.2032013,199.0452271l.5269928-2.0389404-14.0709991-3.6390381.0390015-.151001,16.4279938-5.4729614.5599976-2.1650391-17.6199951-4.5570068-.5209961,2.0140381,14.0709991,3.6389771-.0390015.151001-16.4539948,5.5739746-.5400085,2.0890503,17.6200104,4.5569458Z"/>
    <path class="st10" d="M316.9252014,533.7637939c25.8309937,0,46.7719727-20.9399719,46.7719727-46.7719727,0-25.8310242-20.940979-46.7710266-46.7719727-46.7710266-25.8310242,0-46.7720032,20.9400024-46.7720032,46.7710266,0,25.8320007,20.940979,46.7719727,46.7720032,46.7719727"/>
  </g>
  <g class="st5">
    <path class="st8" d="M316.7850952,522.1099854v-4.5999756c16.7070007,0,30.2989807-13.5920105,30.2989807-30.2990112h4.6000061c0,19.2430115-15.6549988,34.8989868-34.8989868,34.8989868"/>
    <path class="st8" d="M316.7850952,511.2437134c-13.2520142,0-24.03302-10.7809753-24.03302-24.0329895h4.6000061c0,10.7160034,8.7170105,19.4330139,19.4330139,19.4330139,10.7159729,0,19.4329834-8.7170105,19.4329834-19.4330139s-8.7170105-19.4329834-19.4329834-19.4329834v-4.6000061c13.2519836,0,24.0329895,10.7819824,24.0329895,24.0329895,0,13.2520142-10.7810059,24.0329895-24.0329895,24.0329895"/>
    <path class="st8" d="M316.7850952,500.3768005c-7.2600098,0-13.1670227-5.9059753-13.1670227-13.1659851v-56.2030029h4.6000061v56.2030029c0,4.723999,3.8429871,8.5660095,8.5670166,8.5660095v4.5999756Z"/>
    <path class="st8" d="M329.9512024,487.2106934h-4.6000061c0-4.723999-3.8430176-8.565979-8.5660095-8.565979v-4.6000061c7.2600098,0,13.1660156,5.9060059,13.1660156,13.1659851"/>
  </g>
  <g class="st7">
    <path class="st3" d="M134.0904999,611.1023865c25.8309937,0,46.7719879-20.9399719,46.7719879-46.7719727,0-25.8310242-20.9409943-46.7710266-46.7719879-46.7710266s-46.7720032,20.9400024-46.7720032,46.7710266c0,25.8320007,20.9410019,46.7719727,46.7720032,46.7719727"/>
  </g>
  <g class="st6">
    <path class="st8" d="M133.9503937,599.4486084v-4.5999756c16.7070007,0,30.298996-13.5920105,30.298996-30.2990112h4.5999908c0,19.2430115-15.6549988,34.8989868-34.8989868,34.8989868"/>
    <path class="st8" d="M133.9503937,588.5822144c-13.2520065,0-24.0330048-10.7809753-24.0330048-24.0329895h4.5999985c0,10.7160034,8.7170029,19.4330139,19.4330063,19.4330139,10.7159882,0,19.4329987-8.7170105,19.4329987-19.4330139s-8.7170105-19.4329834-19.4329987-19.4329834v-4.6000061c13.2519989,0,24.0329895,10.7819824,24.0329895,24.0329895,0,13.2520142-10.7809906,24.0329895-24.0329895,24.0329895"/>
    <path class="st8" d="M133.9503937,577.7153931c-7.2600021,0-13.1669998-5.9059753-13.1669998-13.1659851v-56.2030029h4.5999985v56.2030029c0,4.723999,3.8429871,8.5660095,8.5670013,8.5660095v4.5999756Z"/>
    <path class="st8" d="M147.1165924,564.5492859h-4.6000061c0-4.723999-3.8430023-8.565979-8.5659943-8.565979v-4.6000061c7.2599945,0,13.1660004,5.9060059,13.1660004,13.1659851"/>
  </g>
</svg>