<?xml version="1.0" encoding="UTF-8"?>
<svg id="Ebene_2" xmlns="http://www.w3.org/2000/svg" xmlns:xlink="http://www.w3.org/1999/xlink" version="1.1" viewBox="0 0 1400 917">
  <!-- Generator: Adobe Illustrator 29.7.1, SVG Export Plug-In . SVG Version: 2.1.1 Build 8)  -->
  <defs>
    <style>
      .st0 {
        stroke-dasharray: 17.4880009 17.4880009;
      }

      .st0, .st1, .st2, .st3, .st4, .st5, .st6, .st7, .st8 {
        fill: none;
      }

      .st0, .st2, .st7, .st8 {
        stroke: #323c3c;
      }

      .st2 {
        stroke-dasharray: 16.0869999 16.0869999;
      }

      .st9 {
        fill: #434f4f;
      }

      .st10 {
        fill: #323c3c;
      }

      .st11 {
        font-family: Silka-Regular, Silka;
        font-size: 25px;
      }

      .st11, .st12 {
        fill: #fff;
      }

      .st3 {
        stroke-width: 20px;
      }

      .st3, .st4, .st5, .st6 {
        stroke: #fff;
      }

      .st4 {
        stroke-width: 41px;
      }

      .st5 {
        stroke-width: 30px;
      }

      .st6 {
        stroke-width: 10px;
      }

      .st13 {
        clip-path: url(#clippath-1);
      }

      .st14 {
        clip-path: url(#clippath-3);
      }

      .st15 {
        clip-path: url(#clippath-4);
      }

      .st16 {
        clip-path: url(#clippath-2);
      }

      .st17 {
        clip-path: url(#clippath-6);
      }

      .st18 {
        clip-path: url(#clippath-5);
      }

      .st7 {
        stroke-dasharray: 14.2069998 14.2069998;
      }

      .st19 {
        fill: #f0f1f1;
      }

      .st20 {
        fill: #7ac546;
      }

      .st21 {
        clip-path: url(#clippath);
      }
    </style>
    <clipPath id="clippath">
      <rect class="st1" width="1400" height="917"/>
    </clipPath>
    <clipPath id="clippath-1">
      <rect class="st1" width="1400" height="917"/>
    </clipPath>
    <clipPath id="clippath-2">
      <path class="st1" d="M447.6493078,486.8446054c0,25.8320007,20.9400024,46.7720032,46.7709961,46.7720032,25.8320007,0,46.7720032-20.9400024,46.7720032-46.7720032,0-25.8309937-20.9400024-46.7720032-46.7720032-46.7720032-25.8309937,0-46.7709961,20.9410095-46.7709961,46.7720032"/>
    </clipPath>
    <clipPath id="clippath-3">
      <rect class="st1" width="1400" height="917"/>
    </clipPath>
    <clipPath id="clippath-4">
      <rect class="st1" width="1400" height="917"/>
    </clipPath>
    <clipPath id="clippath-5">
      <rect class="st1" width="1400" height="917"/>
    </clipPath>
    <clipPath id="clippath-6">
      <path class="st1" d="M264.8143164,564.1835946c0,25.8309937,20.9400024,46.7720032,46.7720032,46.7720032,25.8309937,0,46.7709961-20.9410095,46.7709961-46.7720032s-20.9400024-46.7720032-46.7709961-46.7720032c-25.8320007,0-46.7720032,20.9410095-46.7720032,46.7720032"/>
    </clipPath>
  </defs>
  <rect class="st19" width="1400" height="917"/>
  <g class="st21">
    <path class="st10" d="M1031.0872803,211.302002c-.7940674-2.3759766.3509521-4.6499634,2.4289551-5.5429688,2.1020508-.9030151,4.4100342-.3389893,5.6450195,2.0739746l-8.0739746,3.4689941ZM1038.5002441,217.0310059c2.9150391-1.2520142,4.3800049-3.8349609,4.0780029-6.4500122l-1.9589844.842041c.052002,1.7039795-1.1850586,3.1690063-2.8339844,3.8769531-2.5560303,1.098999-4.8649902.1380005-6.0280762-2.3049927l10.1290283-4.3519897-.3590088-.8359985c-1.539917-3.5830078-4.9759521-5.3900146-8.75-3.7680054-3.3919678,1.4570312-4.9929199,5.1730347-3.289917,9.1390381,1.6009521,3.7259521,5.2149658,5.4849854,9.0129395,3.8529663M1024.2633057,223.1480103c3.3439941-1.4370117,4.8059082-4.3579712,3.2869873-7.8930054-1.0469971-2.4370117-3.3830566-3.3289795-5.3660278-3.0709839l-.0609741-.1439819c.835022-.9530029,1.4279785-2.5370483.651001-4.4110107-1.0910034-2.6719971-4.072998-3.6829834-6.8439941-2.493042-2.8900146,1.2420044-4.0759888,4.0150146-2.7620239,7.0730591l5.5629883,12.947998,1.8870239-.8110352-5.5529785-12.9240112c-.882019-2.0539551-.3790283-3.7139893,1.6040039-4.565979,1.9349976-.8309937,3.492981.0280151,4.1699829,1.6040039.697998,1.625.1469727,3.5029907-1.9320068,4.3959961l-.2150269.09198.7290039,1.6960449.8120117-.348999c1.8400269-.7900391,4.3659668-.5740356,5.381958,1.7909546.9749756,2.2700195.0379639,4.3699951-2.1829224,5.3250122-.5970459.2559814-1.3760376.4210205-2.0210571.5l.7600098,1.7680054c.6790161-.065979,1.4710083-.2650146,2.092041-.5310059M1007.9353027,228.1530151c-2.6040039,1.1190186-5.1820068-.0089722-6.434021-2.9229736-1.2109985-2.8190308-.3059692-5.585022,2.25-6.6830444,2.4609985-1.0570068,5.132019-.1109619,6.4450073,2.9470215,1.1190186,2.6040039.4389648,5.5-2.2609863,6.6589966M1008.5443115,229.901001c2.6999512-1.1599731,3.2099609-3.5299683,3.3249512-4.1170044l.144043-.0620117.8410034,1.9590454,1.815979-.7800293-5.3369751-12.4219971-1.8870239.8110352.8619995,2.006958-.1430054.0610352c-.6599731-.4810181-2.7639771-1.5580444-5.367981-.4390259-3.5110474,1.5090332-4.8730469,5.3200073-3.2310181,9.1420288,1.632019,3.7989502,5.3239746,5.4099731,8.9780273,3.8399658M994.1022949,235.7380371l1.8869629-.8110352-2.7509766-6.4019775c-1.0159912-2.3649902-.5089722-4.677002,1.7600098-5.6520386l1.0280151-.440979-.8110352-1.8869629-1.0509644.4509888c-1.81604.7799683-2.4900513,2.5700073-2.3970337,3.7749634l-.1430054.0620117-.9959717-2.3179932-1.8630371.8010254,5.3370361,12.4219971ZM988.7512817,238.0369873l1.8389893-.789978-.7080078-1.6489868-1.7199707.7390137c-1.4329834.6159668-2.2730103.0429688-2.8480225-1.2950439l-3.0280151-7.0469971,3.8220215-1.6419678-.6870117-1.6000366-3.8219604,1.6420288-1.5500488-3.6069946-1.7679443.7589722,1.282959,2.9860229c.1740112.4060059.0040283.7340088-.3300171.8779907l-1.8639526.7999878.6879883,1.6010132,2.3410034-1.0059814,3.0379639,7.0709839c1.0780029,2.5079956,3.0210571,3.1450195,5.3140259,2.1599731M974.8862915,244.3619995c3.6549683-1.5709839,4.9019775-4.5969849,3.7730103-7.223999-2.9050293-6.7609863-10.809021.3989868-12.769043-4.1640015-.5949707-1.3859863-.131958-3.1409912,2.2319946-4.1569824,2.2700195-.9749756,4.0390015-.3480225,4.8600464,1.5629883l1.9829712-.8519897c-1.4879761-3.4639893-5.0459595-3.5770264-7.5780029-2.4890137-3.367981,1.4470215-4.4580078,4.3770142-3.4320068,6.7659912,2.8740234,6.6890259,10.5480347-.9379883,12.7960205,4.2940063.7490234,1.7440186-.3660278,3.4960327-2.5629883,4.4400024-2.5319824,1.0880127-4.776001.2130127-5.6080322-1.7219849l-1.9349976.8309937c1.335022,3.1060181,4.9200439,4.1400146,8.2410278,2.7139893M957.2322998,244.1080322l6.09198-2.618042-.7600098-1.7669678-6.0910034,2.6170044.7590332,1.7680054ZM945.8963013,256.4490356l1.8869629-.8110352-3.1820068-7.4049683c-.8829956-2.0549927,0-4.217041,1.9590454-5.0580444,1.7439575-.7489624,3.7550049-.0849609,4.6069946,1.8970337l3.3049927,7.6920166,1.8869629-.8099976-3.355957-7.8120117c-1.1810303-2.7470093-3.8580322-4.1719971-6.7490234-2.9299927-1.9349976.8309937-2.84198,2.4089966-2.8850098,3.7579956l-.1430054.0620117-.7799683-1.81604-1.8870239.8110352,5.3370361,12.4219971ZM931.2763062,262.7300415l1.8869629-.8110352-3.242981-7.5490112c-.8619995-2.0059814.1569824-4.1129761,2.0679932-4.9349976,1.7440186-.7489624,3.8029785-.1049805,4.6550293,1.8770142l3.3039551,7.6929932,1.8880005-.8109741-3.3569946-7.8120117c-1.1799927-2.7470093-3.9049683-4.151001-6.7960205-2.9089966-1.9349976.8309937-2.8889771,2.4299927-2.9329834,3.7780151l-.1430054.0619507-3.1409912-7.3099976-1.8869629.8110352,7.697998,17.9160156ZM920.4802856,265.7269897c-2.6030273,1.1190186-5.1820068-.0089722-6.434021-2.9239502-1.2109985-2.8179932-.3059692-5.585022,2.2510376-6.6830444,2.4599609-1.0570068,5.1309814-.1099854,6.4439697,2.947998,1.1190186,2.6030273.4390259,5.4990234-2.2609863,6.6589966M921.090271,267.473999c2.6990356-1.1589966,3.2089844-3.5289917,3.3250122-4.1170044l.1430054-.0609741.84198,1.9589844,1.8150024-.7799683-5.3369751-12.4219971-1.8870239.8099976.8619995,2.006958-.1430054.0620117c-.6599731-.4810181-2.7639771-1.5579834-5.3670044-.4389648-3.5119629,1.5079956-4.8739624,5.3199463-3.2319946,9.1419678,1.632019,3.7980347,5.3240356,5.4100342,8.9790039,3.8389893M906.1123047,273.9089966c3.7979736-1.631958,4.2869873-5.0390015,3.0959473-7.8099976l-4.96698-11.5620117-8.3850098,3.6020508.7590332,1.7680054,6.4500122-2.7709961,4.2289429,9.84198c.7800293,1.8150024.53302,4.0719604-1.8799438,5.1090088-1.9590454.8410034-3.8850098.3109741-4.7230225-1.5079956l-1.9349976.8309937c1.4329834,3.2039795,4.7520142,3.617981,7.3560181,2.4989624M889.2472534,273.3170166l6.0910034-2.617981-.7589722-1.7670288-6.09198,2.6170044.7599487,1.7680054ZM881.6392822,282.4150391c-2.6040039,1.117981-5.1829834-.0090332-6.4349976-2.9240112-1.2109985-2.8190308-.3049927-5.585022,2.2509766-6.6829834,2.460022-1.0570068,5.1310425-.1100464,6.4440308,2.9469604,1.1189575,2.6040039.4389648,5.5-2.2600098,6.6600342M884.8233032,289.5640259c3.7269897-1.6010132,5.1199951-4.7470093,3.5499878-8.4020386l-5.3370361-12.4219971-1.8869629.8110352.8619995,2.007019-.1430054.0609741c-.6600342-.4799805-2.7630005-1.5570068-5.3670044-.4390259-3.5120239,1.5090332-4.8740234,5.3200073-3.2319946,9.1430054,1.632019,3.7980347,5.3239746,5.4089966,8.9790039,3.8390503,2.6989746-1.1600342,3.2089844-3.5290527,3.3250122-4.1170044l.1430054-.0610352.84198,1.9589844c1.0880127,2.5320435.4719849,4.7210083-2.4429932,5.9730225-1.8389893.789978-3.6010132.6409912-4.5610352-.6719971l-1.7919922.7700195c1.3599854,2.0469971,4.0270386,2.8540039,7.0610352,1.5499878M870.9353027,288.6550293l1.8869629-.8110352-5.3369751-12.4219971-1.8870239.8110352,5.3370361,12.4219971ZM865.6123047,273.56604c.8129883-.348999,1.1289673-1.1920166.7909546-1.9810181-.3289795-.7639771-1.1589966-1.1149902-1.9710083-.7659912-.7879639.3389893-1.1049805,1.1820068-.776001,1.9469604.3380127.7880249,1.1680298,1.1390381,1.9560547.8000488M852.7792969,296.4550171l2.4369507-1.0469971-1.1299438-11.4559937.1429443-.0620117,7.5090332,8.7160034,2.4359741-1.0469971-1.4429932-14.0950317-2.0539551.8830566,1.3789673,11.5749512-.1430054.0620117-7.6859741-8.8659668-2.1500244.9239502,1.1160278,11.6880493-.1430054.0619507-7.4230347-8.9790039-2.0539551.882019,9.2059937,10.7600098ZM839.5473022,300.4980469c-2.6030273,1.1189575-5.1820068-.0090332-6.434021-2.9230347-1.2109985-2.8189697-.3060303-5.585022,2.25-6.6829834,2.4609985-1.0570068,5.132019-.1110229,6.4450073,2.9469604,1.1190186,2.6040039.4389648,5.5-2.2609863,6.6590576M840.1572876,302.2460327c2.6989746-1.1600342,3.2089844-3.5300293,3.3250122-4.1170044l.1430054-.0620117.8409424,1.9589844,1.81604-.7799683-7.6970215-17.9160156-1.8880005.8109741,3.2230225,7.5010376-.1430054.0609741c-.6600342-.480957-2.7639771-1.5570068-5.3670044-.4389648-3.5120239,1.5089722-4.8740234,5.3200073-3.2319946,9.1419678,1.632019,3.7990112,5.3239746,5.4100342,8.9790039,3.8400269M825.0352783,308.7420044c1.9349976-.8309937,2.84198-2.4089966,2.8850098-3.756958l.1439819-.0620117.7800293,1.8150024,1.8869629-.8099976-5.3369751-12.4219971-1.8870239.8099976,3.2020264,7.4539795c.881958,2.0540161,0,4.2160034-1.9589844,5.0570068-1.7440186.75-3.7550049.0859985-4.6070557-1.8970337l-3.3249512-7.7399902-1.8870239.8110352,3.3560181,7.8119507c1.1799927,2.7470093,3.8579712,4.1710205,6.7479858,2.9290161M808.0133057,315.6879883l9.1489868-3.9309692-.7490234-1.7440186-7.2139893,3.1000366-6.4349976-14.9780273-1.9349976.8309937,7.184021,16.7219849Z"/>
    <path class="st10" d="M640.4216919,287.1290283c-.7940063-2.375.3509521-4.6499634,2.4289551-5.5429688,2.1019897-.9030151,4.4110107-.3389893,5.6450195,2.0739746l-8.0739746,3.4689941ZM647.8346558,292.8580322c2.914978-1.2520142,4.3800049-3.8349609,4.0780029-6.4489746l-1.9589844.8410034c.052002,1.7039795-1.1849976,3.1690063-2.8339844,3.8769531-2.5560303,1.098999-4.8650513.1380005-6.0280151-2.3049927l10.1289673-4.3519897-.3589478-.8359985c-1.5400391-3.5830078-4.9760132-5.3900146-8.75-3.7680054-3.3920288,1.4570312-4.993042,5.1730347-3.2900391,9.1390381,1.6010132,3.7259521,5.2150269,5.4849854,9.0130005,3.8529663M633.5976562,298.9750366c3.3439941-1.4370117,4.8060303-4.3579712,3.2869873-7.8930054-1.0469971-2.4370117-3.3829956-3.3289795-5.3659668-3.0709839l-.0610352-.1439819c.835022-.9530029,1.4280396-2.5370483.651001-4.4110107-1.0910034-2.6719971-4.072998-3.6829834-6.8439941-2.493042-2.8900146,1.2420044-4.0759888,4.0150146-2.7619629,7.0730591l5.5629883,12.947998,1.8869629-.8110352-5.5529785-12.9240112c-.882019-2.0539551-.3789673-3.7139893,1.6040039-4.565979,1.9349976-.8309937,3.492981.0280151,4.1699829,1.6040039.697998,1.625.1470337,3.5029907-1.9320068,4.3959961l-.2149658.09198.7290039,1.6960449.8120117-.348999c1.8399658-.7900391,4.3659668-.5740356,5.381958,1.7909546.9750366,2.2700195.0380249,4.3699951-2.1829834,5.3250122-.5969849.2559814-1.3759766.4210205-2.0209961.5l.7600098,1.7680054c.6790161-.065979,1.4710083-.2650146,2.09198-.5310059M617.2696533,303.9800415c-2.6040039,1.1190186-5.1820068-.0089722-6.43396-2.9229736-1.2110596-2.8190308-.3060303-5.585022,2.25-6.6830444,2.4609985-1.0570068,5.1309814-.1109619,6.4449463,2.9470215,1.1190186,2.6040039.4390259,5.5-2.2609863,6.6589966M617.8796387,305.7280273c2.6990356-1.1599731,3.2090454-3.5299683,3.3240356-4.1170044l.1439819-.0620117.8410034,1.9590454,1.815979-.7800293-5.3369751-12.4219971-1.8870239.8110352.8619995,2.006958-.1430054.0610352c-.6599731-.4810181-2.7639771-1.5580444-5.367981-.4390259-3.5109863,1.5090332-4.8729858,5.3200073-3.2310181,9.1420288,1.632019,3.7989502,5.3240356,5.4099731,8.9790039,3.8399658M603.4366455,311.5650635l1.8870239-.8110352-2.7509766-6.4019775c-1.0160522-2.3649902-.5090332-4.677002,1.7599487-5.6520386l1.0280151-.440979-.8109741-1.8869629-1.0510254.4509888c-1.815979.7799683-2.4899902,2.5700073-2.3969727,3.7749634l-.1430054.0620117-.9960327-2.3179932-1.8629761.8010254,5.3369751,12.4219971ZM598.0856934,313.8640137l1.8389893-.789978-.7080078-1.6489868-1.7200317.7390137c-1.4329834.6159668-2.2729492.0429688-2.8479614-1.2950439l-3.0280151-7.0469971,3.8220215-1.6419678-.6870117-1.6000366-3.8220215,1.6420288-1.5499878-3.6069946-1.7680054.7589722,1.28302,2.9860229c.1740112.4060059.0039673.7340088-.3300171.8779907l-1.8640137.7999878.6879883,1.6010132,2.3410034-1.0059814,3.0380249,7.0709839c1.0780029,2.5079956,3.0209961,3.1450195,5.3140259,2.1599731M584.2206421,320.1890259c3.6550293-1.5709839,4.9020386-4.5969849,3.7730103-7.223999-2.9049683-6.7609863-10.80896.3989868-12.7689819-4.1640015-.5950317-1.3859863-.1329956-3.1409912,2.2319946-4.1569824,2.2700195-.9749756,4.0390015-.3480225,4.8599854,1.5629883l1.9830322-.8519897c-1.4890137-3.4639893-5.0460205-3.5770264-7.5780029-2.4890137-3.368042,1.4470215-4.4580078,4.3770142-3.4320068,6.7659912,2.8739624,6.6890259,10.5479736-.9379883,12.7960205,4.2940063.7489624,1.7440186-.3660278,3.4960327-2.5630493,4.4400024-2.5319824,1.0880127-4.776001.2130127-5.6079712-1.7219849l-1.9349976.8309937c1.3349609,3.1060181,4.9199829,4.1400146,8.2409668,2.7139893M566.5666504,319.9350586l6.092041-2.6170044-.7600098-1.7680054-6.0910034,2.6170044.7589722,1.7680054ZM555.2306519,332.276062l1.8870239-.8110352-3.1820068-7.4049683c-.8829956-2.0549927,0-4.217041,1.9589844-5.0580444,1.742981-.7489624,3.7550049-.0849609,4.6069946,1.8970337l3.3049927,7.6920166,1.8870239-.8099976-3.3560181-7.8120117c-1.1809692-2.7470093-3.8579712-4.1719971-6.7489624-2.9299927-1.9349976.8309937-2.842041,2.4099731-2.8850098,3.7579956l-.1430054.0620117-.7800293-1.81604-1.8869629.8110352,5.3369751,12.4219971ZM540.6106567,338.5570679l1.8870239-.8110352-3.243042-7.5479736c-.8619995-2.007019.1570435-4.1140137,2.0679932-4.9360352,1.743042-.7489624,3.8030396-.1049805,4.6550293,1.8770142l3.3040161,7.6929932,1.8880005-.8109741-3.3569946-7.8120117c-1.1799927-2.7470093-3.9050293-4.151001-6.7960205-2.9089966-1.9349976.8309937-2.8889771,2.4299927-2.9329834,3.7780151l-.1430054.0619507-3.1409912-7.3099976-1.8870239.8110352,7.697998,17.9160156ZM529.8146362,341.5540161c-2.6029663,1.1190186-5.1819458-.0089722-6.43396-2.9239502-1.2109985-2.8179932-.3060303-5.5840454,2.2509766-6.6830444,2.460022-1.0570068,5.1309814-.1099854,6.4440308,2.947998,1.1189575,2.6040039.4389648,5.4990234-2.2610474,6.6589966M530.4246826,343.3010254c2.6989746-1.1589966,3.2089844-3.5289917,3.3249512-4.1170044l.1430054-.0609741.842041,1.9589844,1.8150024-.7799683-5.3370361-12.4219971-1.8869629.8109741.8619995,2.0059814-.1430054.0620117c-.6600342-.4810181-2.7640381-1.5579834-5.3670044-.4389648-3.5120239,1.5079956-4.8740234,5.3199463-3.2319946,9.1419678,1.631958,3.7980347,5.3239746,5.4100342,8.9790039,3.8389893M515.4466553,349.7360229c3.7980347-1.631958,4.2869873-5.0390015,3.0960083-7.8099976l-4.96698-11.5620117-8.3850098,3.6020508.7590027,1.7680054,6.4499817-2.7709961,4.2290039,9.84198c.7799683,1.8150024.53302,4.0719604-1.8800049,5.1090088-1.9589844.8410034-3.8849792.3109741-4.7229919-1.5079956l-1.9349976.8309937c1.4330139,3.2039795,4.7519836,3.617981,7.3559875,2.4989624M498.581665,349.144043l6.0910034-2.617981-.7590027-1.7670288-6.09198,2.6170044.7599792,1.7680054ZM490.9736633,358.2420654c-2.6039734,1.117981-5.1829834-.0090332-6.4349976-2.9240112-1.2109985-2.8190308-.3049927-5.585022,2.2510071-6.6829834,2.4599915-1.0570068,5.131012-.1100464,6.4440002,2.9469604,1.118988,2.6040039.4389954,5.5-2.2600098,6.6600342M494.1576843,365.3910522c3.7269897-1.6010132,5.1199951-4.7460327,3.5499878-8.401001l-5.3370056-12.4230347-1.8869934.8110352.8619995,2.007019-.1430054.0619507c-.6589966-.480957-2.7630005-1.5579834-5.3670044-.4400024-3.5119934,1.5090332-4.8739929,5.3200073-3.2319946,9.1430054,1.632019,3.7980347,5.3240051,5.4089966,8.9790039,3.8390503,2.6990051-1.1600342,3.2090149-3.5290527,3.3250122-4.1170044l.1430054-.0610352.84198,1.9589844c1.0880127,2.5320435.4720154,4.7210083-2.4429932,5.9730225-1.8389893.789978-3.6010132.6409912-4.5610046-.6719971l-1.7919922.7700195c1.3599854,2.0469971,4.0279846,2.8540039,7.0610046,1.5499878M480.2696838,364.4820557l1.8869934-.8110352-5.3370056-12.4219971-1.8869934.8110352,5.3370056,12.4219971ZM474.9466858,349.3930664c.8129883-.348999,1.1289978-1.1920166.7909851-1.9800415-.32901-.7649536-1.1589966-1.1159668-1.9710083-.7669678-.7879944.3389893-1.1049805,1.1820068-.776001,1.9469604.3380127.7880249,1.1679993,1.1390381,1.9560242.8000488M462.113678,372.2820435l2.4369812-1.0469971-1.1299744-11.4559937.1429749-.0620117,7.5090027,8.7160034,2.4360046-1.0469971-1.4429932-14.0950317-2.0539856.8830566,1.3789978,11.5749512-.1430054.0620117-7.6860046-8.8659668-2.1499939.9239502,1.1159973,11.6880493-.1430054.0619507-7.4230042-8.9790039-2.0539856.882019,9.2059937,10.7600098ZM448.8816833,376.3250732c-2.6029968,1.1189575-5.1820068-.0090332-6.434021-2.9230347-1.2109985-2.8189697-.3059998-5.585022,2.25-6.6829834,2.4609985-1.0570068,5.132019-.1099854,6.4450073,2.9469604,1.1190186,2.6040039.4389954,5.5-2.2609863,6.6590576M449.4916687,378.0730591c2.6990051-1.1600342,3.2090149-3.5300293,3.3250122-4.1170044l.1430054-.0610352.84198,1.9580078,1.8150024-.7799683-7.696991-17.9160156-1.8880005.8109741,3.2229919,7.5010376-.1430054.0609741c-.6600037-.4799805-2.7639771-1.5570068-5.3670044-.4389648-3.5119934,1.5089722-4.8739929,5.3200073-3.2319946,9.1419678,1.632019,3.7990112,5.3240051,5.4100342,8.9790039,3.8400269M434.3696594,384.5700684c1.9350281-.8320312,2.8420105-2.4100342,2.8850098-3.7579956l.1440125-.0620117.7799988,1.8150024,1.8869934-.8099976-5.3370056-12.4219971-1.8869934.8099976,3.2019958,7.4539795c.8819885,2.0540161,0,4.2160034-1.9589844,5.0579834-1.7440186.7490234-3.7550049.085022-4.6070251-1.8980103l-3.3249817-7.7399902-1.8869934.8110352,3.3559875,7.8119507c1.1799927,2.7470093,3.8580017,4.1710205,6.7479858,2.9300537M417.3476868,391.5150146l9.1489868-3.9309692-.7489929-1.7440186-7.2140198,3.1000366-6.4349976-14.9780273-1.9349976.8309937,7.184021,16.7219849Z"/>
    <path class="st10" d="M678.7382812,624.1379089c2.375-.7950134,4.6500244.3500061,5.5430298,2.4289856.9030151,2.1020203.3380127,4.4100037-2.0740356,5.6450195l-3.4689941-8.0740051ZM673.0092773,631.5509033c1.2520142,2.9140015,3.8340454,4.3800049,6.4490356,4.0769958l-.8410034-1.9589844c-1.7040405.0529785-3.1699829-1.1849976-3.8779907-2.8330078-1.0980225-2.5559998-.1370239-4.8649902,2.3059692-6.0280151l4.3519897,10.1289978.8359985-.3589783c3.5830078-1.5400085,5.3890381-4.9760132,3.7680054-8.75-1.4580078-3.3919983-5.1729736-4.9940186-9.1389771-3.2900085-3.7269897,1.6010132-5.4849854,5.2149963-3.8530273,9.0130005M666.8922729,617.3139038c1.4370117,3.3439941,4.3570557,4.8059998,7.8930054,3.2869873,2.4360352-1.0469971,3.3290405-3.3829956,3.0710449-5.3659973l.1430054-.0619812c.9529419.8359985,2.5379639,1.4289856,4.4119873.6520081,2.6719971-1.0920105,3.6829834-4.0730286,2.492981-6.8440247-1.2420044-2.8899841-4.0159912-4.0759888-7.072998-2.7619934l-12.947998,5.5620117.8109741,1.8880005,12.9240112-5.553009c2.0540161-.8819885,3.7139893-.3789978,4.56604,1.6040039.8309937,1.9349976-.0280151,3.4930115-1.6050415,4.1699829-1.6239624.6980286-3.5020142.1460266-4.3949585-1.9319763l-.0930176-.2149963-1.6959839.7289734.348999.8120117c.7909546,1.8389893.5739746,4.3659973-1.7910156,5.3819885-2.2689819.9750061-4.3690186.0380249-5.3240356-2.1829834-.256958-.5979919-.4209595-1.3760071-.5-2.0209961l-1.7679443.7590027c.065979.6799927.2639771,1.4719849.5309448,2.0929871M661.8862915,600.9859009c-1.117981-2.6040039.0090332-5.1820068,2.9240112-6.4339905,2.8189697-1.2120056,5.585022-.3059998,6.6829834,2.25,1.0570068,2.4609985.1099854,5.131012-2.9469604,6.4450073-2.6040039,1.118988-5.5.4379883-6.6600342-2.2610168M660.1392822,601.5949097c1.1600342,2.7000122,3.5289917,3.2099915,4.1170044,3.3250122l.0610352.1439819-1.9590454.8410034.7810059,1.8160095,12.4219971-5.3370056-.8109741-1.8869934-2.007019.8619995-.0609741-.1440125c.4799805-.6589966,1.5570068-2.7630005.4389648-5.3670044-1.5089722-3.5109863-5.3200073-4.8739929-9.1430054-3.2309875-3.7979736,1.6309814-5.4089966,5.322998-3.8389893,8.9779968M654.3023071,587.1528931l.8109741,1.8870239,6.4020386-2.7510071c2.3649902-1.0159912,4.6759644-.5090027,5.651001,1.7600098l.4419556,1.0269775,1.8870239-.8099976-.4520264-1.052002c-.7799683-1.8150024-2.5689697-2.4889832-3.7739868-2.3959961l-.0620117-.1439819,2.3170166-.9950256-.7999878-1.8629761-12.4219971,5.3369751ZM652.0032959,581.8019104l.789978,1.8389893,1.6480103-.7079773-.7390137-1.7200012c-.6149902-1.4330139-.0419922-2.2740173,1.2950439-2.8480225l7.0469971-3.0279846,1.6430054,3.821991,1.5999756-.6870117-1.6419678-3.822998,3.6069946-1.5489807-.7590332-1.7680054-2.9859619,1.2829895c-.4070435.1740112-.7340088.0039978-.8780518-.3309937l-.8009644-1.8630066-1.6000366.6880188,1.0060425,2.3410034-7.0710449,3.0379944c-2.5089722,1.0769958-3.1449585,3.019989-2.1599731,5.3139954M645.9453125,568.5579224c1.2420044,2.8899841,3.6499634,4.1479797,5.9909668,3.1419983,5.1360474-2.2060242-.6939697-8.5310059,2.4590454-9.8860168,1.0749512-.4609985,2.2709961.2139893,2.9379883,1.7659912.7080078,1.6490173.2990112,2.8710022-.7990112,3.5410156l.7799683,1.8160095c2.1630249-1.1560059,2.6800537-3.6419983,1.6950073-5.9350281-1.1189575-2.6039734-3.2909546-3.9059753-5.3939819-3.0029907-4.9210205,2.1140137.9229736,8.4039917-2.5650024,9.9030151-1.2659912.5439758-2.6149902-.0930176-3.4160156-1.9570007-.7799683-1.8150024-.4429932-3.2050171.9460449-4.0559998l-.7910156-1.8399963c-2.223999,1.2109985-3.1060181,3.5709839-1.8439941,6.5090027M640.3853149,554.7599182l.8109741,1.8880005,6.4020386-2.7510071c2.3649902-1.0159912,4.6769409-.5100098,5.6519775,1.7600098l.440979,1.0269775,1.8870239-.8110046-.4509888-1.0509949c-.7810059-1.8150024-2.5700073-2.4899902-3.7750244-2.3959961l-.0620117-.1439819,2.3179932-.9950256-.8009644-1.8639832-12.4219971,5.3370056ZM641.8312988,538.2359009c2.3759766-.7949829,4.6500244.3500061,5.5430298,2.4290161.9039917,2.1019897.3389893,4.4100037-2.0740356,5.644989l-3.4689941-8.0740051ZM636.1032715,545.6488953c1.2520142,2.9140015,3.8340454,4.3800049,6.4490356,4.0770264l-.84198-1.9590149c-1.7030029.053009-3.1690063-1.1849976-3.8770142-2.8330078-1.0980225-2.5559998-.1380005-4.8649902,2.3059692-6.0279846l4.3510132,10.1289978.8359985-.3590088c3.5839844-1.5400085,5.3900146-4.9759827,3.7680054-8.75-1.4569702-3.3919983-5.1729736-4.993988-9.1380005-3.2900085-3.7269897,1.6010132-5.4849854,5.2150269-3.8530273,9.0130005M631.1583252,529.4649048c-1.118042-2.6040039.0089722-5.1829834,2.9239502-6.4349976,2.8190308-1.2109985,5.585022-.3049927,6.6830444,2.2510071,1.0570068,2.4599915.1099854,5.1309814-2.9470215,6.4450073-2.6040039,1.117981-5.5.4379883-6.6599731-2.2610168M624.0092773,532.6499023c1.6010132,3.7260132,4.7470093,5.1199951,8.401001,3.5490112l12.4230347-5.3370056-.8110352-1.8869934-2.006958.8619995-.0610352-.1430054c.4800415-.6589966,1.5570068-2.7630005.4390259-5.3670044-1.5090332-3.5119934-5.3200073-4.8739929-9.1430054-3.2319946-3.7980347,1.6319885-5.4089966,5.3240051-3.8389893,8.9790039,1.1599731,2.6990051,3.5289917,3.2089844,4.1170044,3.3249817l.0609741.1430054-1.9580078.8420105c-2.532959,1.0880127-4.7219849.4719849-5.973999-2.4429932-.789978-1.8390198-.6409912-3.6010132.6719971-4.5610046l-.7699585-1.7919922c-2.0470581,1.3609924-2.8530273,4.0279846-1.5500488,7.0619812M621.234314,510.184906l.8109741,1.8869934,7.4050293-3.1809998c2.0549927-.8829956,4.2160034-.0009766,5.0579834,1.9580078.7490234,1.743988.085022,3.7550049-1.8969727,4.6069946l-7.6930542,3.3050232.8110352,1.8869934,7.8120117-3.3560181c2.7469482-1.1799927,4.1719971-3.8580017,2.9299927-6.7489929-.8320312-1.9349976-2.4100342-2.8410034-3.7579956-2.8840027l-.0620117-.1439819,1.815979-.7799988-.8109741-1.8870239-12.4219971,5.3370056ZM621.1383057,494.1529236l10.1589966-.460022.0620117.1440125-7.3270264,7.053009-2.8939819-6.7369995ZM613.5983276,492.4118958l.8719482,2.0310059,4.6119995-.1990051,3.4689941,8.0740051-3.3179932,3.2090149.8720093,2.0299988,13.9609985-13.6100159-.9749756-2.2689819-19.492981.7339783Z"/>
    <path class="st10" d="M392.9197083,850.9715881c2.4909973-.2610016,4.4639893,1.348999,4.8849792,3.5709991.427002,2.2480011-.6239929,4.3789978-3.2460022,5.0630035l-1.6389771-8.6340027ZM385.7217102,856.9695892c.59198,3.1159973,2.7949829,5.1060028,5.4140015,5.3760071l-.3980103-2.0950012c-1.6740112-.3170013-2.8370056-1.8430023-3.1719971-3.605011-.5190125-2.7330017.9190063-4.7789917,3.5559998-5.3860016l2.0559998,10.8310089.8939819-.1699982c3.8320007-.7279968,6.3390198-3.6910095,5.5730286-7.727005-.6890259-3.6269989-3.9700012-5.9949951-8.210022-5.1900024-3.9849854.7570038-6.4839783,3.904007-5.7129822,7.9660034M382.8316956,841.7455902c.6790161,3.576004,3.2130127,5.6349945,6.9940186,4.9169922,2.6049805-.493988,3.9819946-2.5819855,4.1599731-4.5739899l.1530151-.029007c.75,1.0220032,2.1679993,1.9440002,4.1659851,1.5910034,2.8450012-.4869995,4.4770203-3.1790009,3.9150085-6.1419983-.5870056-3.0910034-3.0379944-4.8480072-6.3079834-4.2279968l-13.8440247,2.6289978.3830261,2.0179901,13.8190002-2.6239929c2.196991-.4169922,3.7079773.4340057,4.1109924,2.5540009.3919983,2.0690002-.78302,3.404007-2.4689941,3.723999-1.7369995.3300018-3.4510193-.6150055-3.8730164-2.8370056l-.0440063-.2299957-1.8139954.3440094.1650085.868988c.3739929,1.9660034-.3840027,4.3860016-2.9129944,4.8659973-2.427002.4610138-4.2749939-.9079895-4.7260132-3.2839966-.1210022-.6380005-.1130066-1.4339905-.0509949-2.0809937l-1.8900146.3589935c-.0829773.677002-.0599976,1.4940033.0660095,2.1580048M381.4786987,824.7215881c-.5289917-2.7850037,1.1300049-5.0579987,4.2460022-5.6499939,3.0149841-.5720062,5.5190125.9109955,6.0379944,3.6439972.4989929,2.6309967-1.0029907,5.0339966-4.2720032,5.6539917-2.7850037.529007-5.4639893-.7619934-6.0119934-3.647995M379.640686,824.9375916c.5480042,2.8869934,2.7510071,3.897995,3.2990112,4.1369934l.0289917.154007-2.0939941.3970032.3680115,1.9420013,13.2829895-2.5220032-.3829956-2.0180054-2.1459961.4069977-.0289917-.1529999c.6119995-.5399933,2.118988-2.3609924,1.5899963-5.144989-.7120056-3.7550049-4.1380005-5.9100037-8.2250061-5.1340027-4.0620117.7719879-6.4339905,4.0269928-5.6920166,7.9349976M377.067688,809.5735931l.3830261,2.0179901,6.8459778-1.298996c2.5280151-.4799957,4.6759949.5149994,5.1360168,2.9410095l.2089844,1.098999,2.0180054-.3840027-.2130127-1.1230011c-.368988-1.9420013-1.9699707-2.9869995-3.1669922-3.1569977l-.0289917-.154007,2.4779968-.4700012-.3779907-1.9920044-13.28302,2.5210114ZM375.9816895,803.8525848l.3730164,1.9670105,1.7630005-.3350067-.3500061-1.8390045c-.2909851-1.5329895.4500122-2.2289886,1.881012-2.5009918l7.5349731-1.4300079.776001,4.0870056,1.7120056-.3249969-.776001-4.0870056,3.8569946-.7319946-.3589783-1.8910065-3.1929932.6070099c-.434021.0820007-.7170105-.155014-.7850037-.5130005l-.3789978-1.9920044-1.7109985.3249969.4749756,2.503006-7.5610046,1.4349976c-2.6819763.5099945-3.723999,2.2689972-3.2579956,4.720993M372.9336853,789.6115875c.5870056,3.0910034,2.6650085,4.8399963,5.1690063,4.3639984,5.4909973-1.0419922,1.1690063-8.4790039,4.5400085-9.1190033,1.1499939-.2179871,2.17099.7000122,2.4859924,2.3600006.335022,1.7630005-.3289795,2.8680115-1.54599,3.2840118l.3680115,1.9409943c2.3619995-.6600037,3.4049988-2.9750061,2.9389954-5.427002-.5280151-2.7839966-2.3670044-4.526001-4.6150208-4.098999-5.2619934.9990082-.9189758,8.4049988-4.6479797,9.1130066-1.3540039.2569885-2.53302-.6570129-2.9110107-2.6500092-.368988-1.9409943.2609863-3.2249908,1.8009949-3.7559967l-.3739929-1.9660034c-2.4339905.6999969-3.8059998,2.8130035-3.2090149,5.9550018M370.4916992,774.9375916l.3829956,2.0180054,6.8460083-1.3000031c2.5289917-.480011,4.6759949.5149994,5.1359863,2.9420013l.2090149,1.0979919,2.0180054-.3829956-.2130127-1.1240082c-.368988-1.9409943-1.9700012-2.9869995-3.1669922-3.1569977l-.0289917-.1529999,2.4779968-.4700012-.3780212-1.9929962-13.2829895,2.5220032ZM375.4807129,759.1175995c2.4909973-.2610016,4.4639893,1.348999,4.8849792,3.5709991.427002,2.2480011-.6239929,4.3789978-3.2460022,5.0629883l-1.6389771-8.6339874ZM368.2826843,765.1156006c.5920105,3.1159973,2.7960205,5.1059875,5.4140015,5.3759918l-.3979797-2.0939941c-1.6740112-.3180084-2.8370056-1.8430023-3.1719971-3.6060028-.5190125-2.7330017.9189758-4.779007,3.5559998-5.3860016l2.0559998,10.8309937.8939819-.1699982c3.8320007-.7269897,6.3390198-3.6909943,5.572998-7.7269897-.6889954-3.6269989-3.9700012-5.9950104-8.2099915-5.1900024-3.9849854.7569885-6.4840088,3.9039917-5.7130127,7.9660034M366.9587097,748.2445984c-.5290222-2.7840118,1.1299744-5.0579987,4.2469788-5.6490021,3.0140076-.572998,5.5180054.9100037,6.0370178,3.6429901.5,2.631012-1.0020142,5.0340118-4.2720032,5.655014-2.7839966.5279999-5.4639893-.7630005-6.0119934-3.6490021M365.120697,748.4615936c.5480042,2.8860016,2.7510071,3.8970032,3.2999878,4.1369934l.0290222.1529999-2.0950012.3980103.368988,1.9409943,19.15802-3.6369934-.3840027-2.0180054-8.0200195,1.522995-.0289917-.1539917c.6119995-.5390015,2.118988-2.3600006,1.5899963-5.1450043-.7129822-3.7550049-4.1390076-5.9089966-8.2259827-5.1329956-4.0610046.7709961-6.434021,4.026001-5.6920166,7.9349976M363.5757141,738.5125885l.1849976.9710083,1.7879944-.3399963-.1170044-.6130066c-.1210022-.6380005.1990051-1.0429993.8630066-1.1690063l16.322998-3.098999-.3829956-2.0179901-16.322998,3.098999c-1.8130188.3439941-2.651001,1.5090027-2.3359985,3.1689911M368.2106934,720.8275909c2.4909973-.2610016,4.4640198,1.348999,4.8860168,3.5720062.427002,2.2480011-.6240234,4.3789978-3.2470093,5.0619965l-1.6390076-8.6340027ZM361.0137024,726.825592c.5910034,3.1170044,2.7949829,5.1060028,5.4129944,5.3769989l-.3970032-2.0950012c-1.6749878-.3170013-2.8379822-1.8430023-3.1719971-3.6049957-.5190125-2.7339935.9179993-4.7799988,3.5549927-5.3860016l2.0570068,10.8300018.8940125-.1690063c3.8309937-.7279968,6.3379822-3.6909943,5.571991-7.7269897-.6879883-3.628006-3.9700012-5.9950104-8.2099915-5.1900024-3.9850159.7559967-6.4840088,3.9039917-5.7120056,7.9649963M358.6487122,712.5605927l.3829956,2.0180054,11.571991-2.1970062.7369995,3.8829956,1.7109985-.3249969-.7369995-3.8829956,1.5580139-.2960052c1.4309998-.2709961,2.6900024.2310028,3.0299988,2.0189972l.2420044,1.2770081,1.7630005-.3350067-.2380066-1.2509918c-.5090027-2.6820068-2.4720154-4.2420044-5.1540222-3.7320099l-1.5839844.3000031-.4750061-2.5029907-1.7120056.3249969.4760132,2.5029907-11.571991,2.1970062ZM356.5246887,701.3725891l.3829956,2.0180054,6.8460083-1.3000031c2.5289917-.4799957,4.6759949.5149994,5.1369934,2.9420013l.2080078,1.0980072,2.0180054-.3830109-.2130127-1.1239929c-.368988-1.9409943-1.9700012-2.9869995-3.1669922-3.1569977l-.0289917-.1529999,2.4779968-.4700012-.3779907-1.9929962-13.28302,2.5219879ZM361.5137024,685.552597c2.4909973-.2610016,4.4639893,1.348999,4.8859863,3.5709991.427002,2.2480011-.6239929,4.3800049-3.2469788,5.0630035l-1.6390076-8.6340027ZM354.3157043,691.5505981c.59198,3.1159973,2.79599,5.1060028,5.4140015,5.3759918l-.3970032-2.0939941c-1.6750183-.3170013-2.8380127-1.8430023-3.1730042-3.6060028-.5190125-2.7330017.9190063-4.7789917,3.5559998-5.3860016l2.0559998,10.8310089.8940125-.1699982c3.8320007-.727005,6.3389893-3.6910095,5.572998-7.727005-.6889954-3.6269989-3.9700012-5.9949951-8.210022-5.1889954-3.9849854.7559967-6.4839783,3.9029999-5.7129822,7.9649963M352.4946899,680.1465912l.3740234,1.9670105,1.7619934-.3350067-.348999-1.8390045c-.2910156-1.5329895.4499817-2.2289886,1.8809814-2.5009918l7.5350037-1.4300079.776001,4.0870056,1.7109985-.3249969-.776001-4.0870056,3.8569946-.7330017-.3580017-1.8899994-3.1929932.6060028c-.4349976.0830078-.7179871-.1549988-.7859802-.5119934l-.3780212-1.9930115-1.7109985.3250122.4750061,2.5039978-7.5610046,1.4349976c-2.6820068.5090027-3.723999,2.2689972-3.2590027,4.720993M350.4237061,669.2395935l.3739929,1.9669952,1.7619934-.3349915-.348999-1.8390045c-.2909851-1.5329895.4500122-2.2290039,1.881012-2.5009918l7.5350037-1.4300079.776001,4.0870056,1.7119751-.3249969-.776001-4.0870056,3.8570251-.7330017-.3590088-1.8899994-3.1929932.6060028c-.434021.0829926-.7180176-.154007-.7850037-.5120087l-.3789978-1.9919739-1.7109985.3239746.4750061,2.5040131-7.5610046,1.4349976c-2.6820068.5090027-3.723999,2.2689972-3.2590027,4.720993M348.2316895,657.6936035l.3840027,2.0180054,13.2820129-2.5220032-.3829956-2.0169983-13.28302,2.5209961ZM364.1146851,655.7636108c.1650085.867981.9200134,1.3599854,1.7630005,1.1999817.8170166-.1549988,1.3400269-.8889771,1.1750183-1.7579956-.1600037-.8429871-.9150085-1.3349915-1.7330017-1.1789856-.8430176.1600037-1.3649902.8939819-1.2050171,1.7369995M347.5147095,644.0155945l6.5899963-1.2509766.6929932,3.6529846c.3930054,2.0690002-.1679993,4.1340027-2.5180054,4.5799866-2.2980042.4360046-3.6260071-.9789734-4.0279846-3.098999l-.7369995-3.8829956ZM355.8417053,642.4346008l5.8999939-1.1199951.7080078,3.7290039c.3639832,1.9159851-.4980164,3.5090027-2.2600098,3.8429871-1.8139954.3450012-3.2720032-.7810059-3.6549988-2.7989807l-.6929932-3.6530151ZM345.3127136,642.3165894l1.1929932,6.2840271c.571991,3.0139771,2.9119873,5.1629944,6.1309814,4.552002,2.5290222-.480011,3.4860229-2.40802,3.6660156-3.6860046l.1539917-.0299988c1.0379944,1.2850037,2.526001,1.8759766,4.2879944,1.5409851,2.6060181-.493988,4.1900024-2.8859863,3.5450134-6.2829895l-1.0960083-5.7730103-17.8809814,3.394989Z"/>
    <path class="st10" d="M284.0186768,263.9835815c2.4890137-.2719727,4.4689941,1.3300171,4.901001,3.5499878.4370117,2.2460327-.605011,4.382019-3.2250061,5.0770264l-1.6759949-8.6270142ZM276.8466797,270.0125732c.605011,3.1140137,2.8179932,5.0939941,5.4379883,5.3530273l-.4069824-2.0930176c-1.6759949-.3099976-2.8460083-1.8299561-3.1880188-3.59198-.5309753-2.7299805.8980103-4.78302,3.5320129-5.401001l2.1040039,10.8220215.8930054-.1740112c3.8280029-.7440186,6.321991-3.7189941,5.5390015-7.7510376-.7050171-3.6239624-3.9960022-5.9779663-8.2330017-5.1539917-3.9819946.7739868-6.4670105,3.9320068-5.678009,7.9899902M273.889679,254.8015747c.6950073,3.572998,3.2390137,5.6220093,7.0159912,4.8870239,2.6029968-.5059814,3.9710083-2.598999,4.1400146-4.59198l.1529846-.0300293c.7539978,1.0189819,2.177002,1.934021,4.1730042,1.572998,2.8420105-.5,4.4630127-3.1989746,3.8880005-6.1589966-.6000061-3.0880127-3.0589905-4.835022-6.3259888-4.2000122l-13.8330078,2.6890259.3919983,2.0159912,13.8080139-2.684021c2.1940002-.427002,3.7089844.4180298,4.1210022,2.5360107.4019775,2.0670166-.7680054,3.4069824-2.4520264,3.7349854-1.7359924.3370361-3.4539795-.5999756-3.8859863-2.8209839l-.0440063-.2299805-1.8129883.3529663.1690063.8670044c.3819885,1.9660034-.3650208,4.3890381-2.8919983,4.8800049-2.4250183.4710083-4.2780151-.8900146-4.7400208-3.2639771-.1239929-.6380005-.118988-1.4329834-.0599976-2.0800171l-1.8890076.3670044c-.0799866.6779785-.0529785,1.492981.0750122,2.1569824M272.462677,237.7835693c-.5409851-2.7819824,1.1080017-5.0619507,4.2220154-5.6679688,3.0119934-.585022,5.5229797.8870239,6.0539856,3.617981.5110168,2.6290283-.9809875,5.0369873-4.2479858,5.6719971-2.7820129.5410156-5.4670105-.7379761-6.0280151-3.6220093M270.6256714,238.008606c.5610046,2.8839722,2.7680054,3.8850098,3.3180237,4.1220093l.0299988.1539917-2.0930176.4060059.3770142,1.9400024,13.2709961-2.5800171-.3919983-2.0159912-2.1430054.4169922-.0299988-.1530151c.6099854-.5429688,2.1080017-2.3699951,1.5679932-5.1519775-.730011-3.7520142-4.1650085-5.8920288-8.2489929-5.0980225-4.0580139.7890015-6.4160156,4.0549927-5.6570129,7.960022M267.9856873,222.6555786l.3919983,2.0170288,6.8399963-1.3300171c2.5270081-.4909668,4.6789856.4940186,5.1499939,2.9190063l.2130127,1.0969849,2.0159912-.3909912-.2179871-1.1229858c-.3770142-1.9400024-1.9830017-2.9790039-3.1800232-3.1430054l-.0299988-.1530151,2.4760132-.4819946-.3869934-1.9899902-13.2720032,2.5789795ZM266.8746643,216.9395752l.382019,1.9650269,1.7609863-.34198-.3569946-1.8380127c-.2980042-1.5310059.4400024-2.2310181,1.8699951-2.5090332l7.5290222-1.4629517.7929993,4.0829468,1.7099915-.3319702-.7929993-4.0839844,3.8540039-.7490234-.3680115-1.8889771-3.1900024.6209717c-.4339905.0839844-.7179871-.1519775-.7869873-.5100098l-.3869934-1.9899902-1.710022.3320312.4860229,2.5009766-7.5550232,1.4689941c-2.6799927.5209961-3.7139893,2.2850342-3.2380066,4.7349854M263.764679,202.7116089c.6000061,3.0880127,2.6870117,4.8280029,5.1879883,4.34198,5.4869995-1.0670166,1.132019-8.4840088,4.5010071-9.1389771,1.1480103-.2230225,2.1730042.6900024,2.4960022,2.348999.3420105,1.7609863-.3160095,2.8689575-1.5319824,3.2910156l.3769836,1.9389648c2.3590088-.6699829,3.3919983-2.9899902,2.9150085-5.4400024-.5400085-2.7819824-2.3869934-4.5150146-4.6329956-4.0789795-5.2579956,1.0219727-.882019,8.4089966-4.6080017,9.1329956-1.3529968.2630005-2.5360107-.6459961-2.9230042-2.6359863-.3770142-1.9400024.2470093-3.2270508,1.7850037-3.7640381l-.382019-1.9649658c-2.4309998.7109985-3.7939758,2.8299561-3.1839905,5.9689941M261.258667,188.048584l.3919983,2.0159912,6.8400269-1.3299561c2.5269775-.4910278,4.6779785.4949951,5.1499939,2.9199829l.2129822,1.0969849,2.0160217-.3919678-.2180176-1.1230469c-.3769836-1.9400024-1.9830017-2.9779663-3.1799927-3.1430054l-.0299988-.1529541,2.4760132-.4810181-.3870239-1.9910278-13.2720032,2.5800171ZM266.1786804,172.206604c2.4899902-.2719727,4.4700012,1.3300171,4.901001,3.5499878.4370117,2.2460327-.605011,4.382019-3.223999,5.0770264l-1.677002-8.6270142ZM259.0076904,178.2355957c.6049805,3.1140137,2.8169861,5.0939941,5.4369812,5.3530273l-.4069824-2.0930176c-1.6759949-.3099976-2.8460083-1.8300171-3.1880188-3.5910034-.5310059-2.7310181.8980103-4.7839966,3.5320129-5.4019775l2.1040039,10.8219604.8930054-.1740112c3.8289795-.7439575,6.322998-3.7189941,5.5390015-7.7509766-.70401-3.6240234-3.9960022-5.9769897-8.2330017-5.1539917-3.9810181.7739868-6.4660034,3.9320068-5.677002,7.9899902M257.6096802,161.3706055c-.5410156-2.7810059,1.1080017-5.0620117,4.2219849-5.6669922,3.0120239-.5859985,5.5230103.8859863,6.0540161,3.6170044.5109863,2.6289673-.9809875,5.0379639-4.2480164,5.6729736-2.7819824.5410156-5.46698-.7390137-6.0279846-3.6229858M255.7726898,161.5955811c.5609894,2.8840332,2.7679901,3.8850098,3.3179779,4.1230469l.0290222.1529541-2.0920105.4070435.3770142,1.9389648,19.1409912-3.7199707-.3919983-2.0170288-8.0140076,1.5579834-.0289917-.1529541c.6089783-.5419922,2.1080017-2.3699951,1.5669861-5.1520386-.7290039-3.7519531-4.1640015-5.8909912-8.2479858-5.0979614-4.0580139.7890015-6.4160004,4.0549927-5.6569977,7.9599609M254.1846924,151.6546021l.1879883.9689941,1.7869873-.3469849-.118988-.6119995c-.1239929-.6380005.1940002-1.0449829.8580017-1.1740112l16.3089905-3.1699829-.3919983-2.0159912-16.3089905,3.1699829c-1.8119965.3519897-2.6439972,1.5209961-2.321991,3.1799927M258.7416687,133.949585c2.4900208-.2719727,4.4700012,1.3290405,4.9020081,3.5499878.4360046,2.2460327-.605011,4.382019-3.2250061,5.0760498l-1.677002-8.6260376ZM251.570694,139.9785767c.6049957,3.1140137,2.8179932,5.0939941,5.4369965,5.3530273l-.4060059-2.0930176c-1.6759949-.3099976-2.845993-1.8309937-3.1880035-3.59198-.5309906-2.7310181.8980103-4.78302,3.5319977-5.401001l2.1029968,10.8209839.8940125-.1729736c3.8280029-.7440186,6.321991-3.7189941,5.5379944-7.7510376-.70401-3.625-3.9949951-5.9779663-8.2319946-5.1539917-3.9819946.7739868-6.4669952,3.9320068-5.6779938,7.9899902M249.1446838,125.7235718l.3919983,2.0160522,11.5610046-2.2470093.7539978,3.8789673,1.7099915-.3319702-.7539978-3.8790283,1.5570068-.3029785c1.4289856-.2780151,2.6910095.2189941,3.0379944,2.0050049l.2479858,1.276001,1.7610168-.34198-.2430115-1.2510376c-.519989-2.6790161-2.4909973-4.2299805-5.1699829-3.7089844l-1.5830078.3070068-.4859924-2.5010376-1.710022.3330078.4860229,2.5010376-11.5610046,2.2469482ZM246.9716797,114.5455933l.3920135,2.0159912,6.8399963-1.3299561c2.5259857-.4910278,4.6779938.4949951,5.1490021,2.9189453l.2139893,1.0980225,2.0159912-.3919678-.2179871-1.1230469c-.3779907-1.9400024-1.9830017-2.9790039-3.1809998-3.1430054l-.0289917-.1529541,2.4749756-.4810181-.3869934-1.9910278-13.2709961,2.5800171ZM251.890686,98.7036133c2.4900055-.2720337,4.4700012,1.3289795,4.9020081,3.5499878.4359741,2.2459717-.605011,4.382019-3.2250061,5.0759888l-1.677002-8.6259766ZM244.7196808,104.732605c.605011,3.1140137,2.8180084,5.0939941,5.4370117,5.3530273l-.4060059-2.0930176c-1.6759949-.3099976-2.845993-1.8309937-3.1880035-3.592041-.5309906-2.7299805.8970032-4.782959,3.5319977-5.401001l2.1030121,10.8220215.8939972-.1740112c3.8279877-.7439575,6.3219757-3.7189941,5.5379791-7.7509766-.7039795-3.6240234-3.9959869-5.9780273-8.2319794-5.1539917-3.9820099.7739868-6.4670105,3.9320068-5.678009,7.9899902M242.8486938,93.3366089l.3819885,1.9649658,1.7610016-.34198-.3569946-1.8380127c-.2980042-1.5310059.4400024-2.230957,1.8699951-2.5089722l7.529007-1.4630127.7939911,4.0839844,1.7100067-.3330078-.7940063-4.0829468,3.8540039-.75-.3680115-1.8880005-3.1900024.6199951c-.4339905.0839844-.7179871-.1520386-.7869873-.5090332l-.3869934-1.9909668-1.7100067.3330078.4860077,2.5009766-7.5550079,1.4680176c-2.6799927.5209961-3.7140045,2.2849731-3.2379913,4.7349854M240.7306824,82.4385986l.3820038,1.9660034,1.7610016-.3430176-.3569946-1.8369751c-.2980042-1.5319824.4399872-2.2310181,1.868988-2.5090332l7.529007-1.4639893.7940063,4.0840454,1.7099915-.3330078-.7940063-4.0830078,3.8539886-.7490234-.3669739-1.8889771-3.1900024.6199951c-.4340057.085022-.7180023-.1519775-.7880096-.5090332l-.3869934-1.9909668-1.7100067.3330078.4869995,2.5009766-7.5549927,1.4680176c-2.6800079.5209961-3.7140045,2.2849731-3.2380066,4.7349854M238.4886932,70.9025879l.3909912,2.0170288,13.2720032-2.5800171-.3919983-2.0159912-13.2709961,2.5789795ZM254.3626862,68.9036255c.1679993.8670044.9250031,1.355957,1.7679901,1.1919556.8160095-.157959,1.3349915-.8949585,1.1669922-1.7630005-.1640015-.84198-.92099-1.3299561-1.7379761-1.1719971-.8420105.1640015-1.3610077.901001-1.1970062,1.743042M237.7106934,57.2285767l6.5849915-1.2799683.7089996,3.6489868c.4020081,2.0679932-.1499939,4.1350098-2.4980011,4.5910034-2.2969971.4470215-3.6299896-.9630127-4.0419922-3.0809937l-.7539978-3.8790283ZM246.0306854,55.6105957l5.8959961-1.1459961.723999,3.7269897c.3720093,1.9140015-.4829865,3.5100098-2.243988,3.8519897-1.8120117.3530273-3.2740021-.7669678-3.6660004-2.782959l-.7100067-3.6500244ZM235.5016937,55.5385742l1.219986,6.2790527c.5860138,3.0109863,2.9350128,5.1499634,6.151001,4.5249634,2.5270081-.4909668,3.4750061-2.4240112,3.651001-3.7030029l.1529999-.0289917c1.0429993,1.2800293,2.5340118,1.8640137,4.2949982,1.5220337,2.6030121-.5060425,4.177002-2.9040527,3.5170135-6.2990112l-1.1210022-5.7680054-17.8659973,3.4729614Z"/>
    <path class="st10" d="M205.0439911,337.387207c1.723999-1.8170166,4.2700043-1.8740234,6.0340118-.4580078,1.7849884,1.4320068,2.3699951,3.7360229.8190002,5.9580078l-6.8530121-5.5ZM203.4660034,346.6221924c2.473999,1.9849854,5.4419861,2.0670166,7.6079865.5720215l-1.6619873-1.3340454c-1.480011.8460083-3.355011.44104-4.7540131-.6819458-2.1699982-1.7410278-2.4059906-4.2310181-.7939911-6.4040527l8.5970001,6.9000244.5699921-.710022c2.4410095-3.0419922,2.4230042-6.9229736-.7809906-9.4949951-2.8789978-2.3109741-6.9120026-1.9799805-9.6130066,1.3860474-2.5390015,3.1629639-2.3950043,7.1789551.82901,9.7669678M191.3809967,336.9232178c2.8390045,2.2779541,6.1029968,2.197998,8.5119934-.8030396,1.6600037-2.0679932,1.3510132-4.5499878.1920013-6.1799927l.0980072-.1220093c1.2339935.2910156,2.9109955.0700073,4.201004-1.4949951,1.8470001-2.2179565,1.3399963-5.3259888-1.0120087-7.2130127-2.4530029-1.9699707-5.4589996-1.7139893-7.5419922.8810425l-8.8200073,10.9899902,1.602005,1.2860107,8.8040009-10.9700317c1.3999939-1.7439575,3.1009979-2.0780029,4.7839966-.7269897,1.6430054,1.3179932,1.6159973,3.0960083.5419922,4.4349976-1.1069946,1.3779907-3.0239868,1.7730103-4.7879944.3569946l-.1829987-.1459961-1.1549988,1.4400024.6889954.5530396c1.5610046,1.2529907,2.5570068,3.5849609.9459991,5.5929565-1.54599,1.9260254-3.8409882,2.085022-5.727005.5709839-.5069885-.4059448-1.0169983-1.0159912-1.3899994-1.5489502l-1.2039948,1.5009766c.3760071.5690308.923996,1.1749878,1.451004,1.5980225M179.29599,324.8562012c-2.2099915-1.7739868-2.4250031-4.5800171-.4400024-7.0529785,1.9199982-2.3930054,4.7880096-2.8920288,6.9580078-1.151001,2.0879974,1.6759644,2.5059967,4.4790039.4230042,7.0739746-1.7740021,2.210022-4.6500092,2.9689941-6.9410095,1.1300049M178.0389862,326.21521c2.2910004,1.8389893,4.6230011,1.1759644,5.1959991,1.0029907l.1210022.0969849-1.3339996,1.6630249,1.5410004,1.2369995,8.4629974-10.5440063-1.6019897-1.2860107-1.3670044,1.7030029-.121994-.0969849c.1149902-.8079834.0779877-3.1710205-2.1320038-4.9450073-2.9810028-2.3920288-6.9850006-1.8060303-9.5890045,1.4379883-2.5879974,3.223999-2.2769928,7.2410278.8249969,9.7310181M166.1039886,316.203186l1.602005,1.2850342,4.3619995-5.434021c1.6109924-2.007019,3.8899994-2.6450195,5.8159943-1.098999l.8720093.7000122,1.2859955-1.6019897-.8919983-.7160034c-1.5420074-1.2369995-3.4380035-.9920044-4.4580078-.3439941l-.121994-.0980225,1.5789948-1.96698-1.5820007-1.269043-8.4629974,10.5440063ZM161.5629883,312.5582275l1.5610046,1.2529907,1.1230011-1.3990479-1.4600067-1.1719971c-1.2169952-.9759521-1.1049957-1.9869995-.1940002-3.1229858l4.8010101-5.9819946,3.243988,2.6040039,1.0900116-1.3579712-3.2440033-2.6040039,2.4570007-3.0620117-1.5-1.2039795-2.0339966,2.5339966c-.2770081.3449707-.6460114.348999-.9300079.1209717l-1.5820007-1.2700195-1.0899963,1.3590088,1.9869995,1.5950317-4.8170013,6.0019531c-1.7089996,2.1290283-1.3589935,4.1430054.5879974,5.7060547M149.9959869,303.7081909c2.45401,1.9689941,5.1699982,1.9490356,6.7649994-.0379639,3.4990082-4.3600464-4.6179962-7.2070312-2.4689941-9.8830566.7319946-.9129639,2.1040039-.8779907,3.4219971.1800537,1.3990021,1.1229858,1.6130066,2.3939819.9570007,3.5009766l1.5410004,1.2369995c1.3679962-2.0360107.6569977-4.4730225-1.2899933-6.0360107-2.2100067-1.7739868-4.7389984-1.9030151-6.1710052-.1190186-3.3529968,4.177002,4.7599945,6.9869995,2.3840027,9.947998-.8630066,1.0750122-2.3529968,1.1450195-3.9349976-.1239624-1.5410004-1.2369995-1.8960114-2.6220093-1.0700073-4.026001l-1.5610046-1.2529907c-1.3959961,2.1140137-1.0669861,4.6109619,1.427002,6.6129761M139.269989,295.0991821c2.4530029,1.9689941,5.1699982,1.9490356,6.7649994-.0379639,3.4990082-4.3590088-4.6179962-7.2059937-2.4700012-9.8829956.7330017-.9130249,2.105011-.8780518,3.4230042.1799927,1.3990021,1.1229858,1.6119995,2.3939819.9570007,3.5020142l1.5410004,1.2359619c1.3670044-2.0360107.6569977-4.4729614-1.2899933-6.0360107-2.2100067-1.7730103-4.7400055-1.9029541-6.1720123-.1189575-3.3519897,4.177002,4.7600098,6.9879761,2.3840027,9.947998-.8619995,1.0749512-2.3529968,1.1449585-3.9339905-.1240234-1.5410004-1.2369995-1.8960114-2.6220093-1.0700073-4.026001l-1.5610046-1.2529907c-1.3959961,2.1140137-1.0670013,4.6110229,1.427002,6.6129761M127.3879929,285.5631714c1.6419907,1.3180542,3.4610062,1.3780518,4.6720047.78302l.121994.0969849-1.2369995,1.5410156,1.602005,1.2860107,8.4619904-10.5440063-1.6019897-1.2860107-5.0770111,6.3270264c-1.3999939,1.7440186-3.7229919,1.9790039-5.3849945.6449585-1.4809952-1.1879883-1.8389969-3.2759399-.4880066-4.9589844l5.2730103-6.5689697-1.602005-1.2860107-5.3219986,6.6309814c-1.8709946,2.3309937-1.871994,5.3649902.5820007,7.3339844M118.8189926,278.2531738l1.602005,1.2850342,8.4629898-10.5440063-1.6019897-1.2849731-8.4630051,10.5439453ZM129.6429901,266.4702148c.6889954.5529785,1.5830078.4370117,2.1199951-.2319946.5210114-.6490479.4410095-1.5469971-.2479858-2.1000366-.6700134-.5369873-1.5630035-.4209595-2.0840149.2280273-.5369873.6690063-.4570007,1.5670166.2120056,2.1040039M110.708992,271.7432251l1.602005,1.2859497,4.3610001-5.4349976c1.6110001-2.006958,3.8899994-2.6449585,5.8159943-1.098999l.8720016.7000122,1.2860031-1.6019897-.8919983-.7160034c-1.5410004-1.2369995-3.4380035-.9920044-4.4580002-.3439941l-.1220016-.0980225,1.5789948-1.96698-1.5819931-1.2689819-8.4620056,10.5440063ZM102.1029968,265.2692261c1.6419983,1.3189697,3.4609985,1.3779907,4.6719971.782959l.1220016.0980225-1.2369995,1.5410156,1.6019974,1.2859497,8.461998-10.5439453-1.6019974-1.2860107-5.0770035,6.3259888c-1.3999939,1.7440186-3.7229996,1.9799805-5.3849945.6459961-1.4810028-1.1879883-1.8390045-3.276001-.487999-4.9589844l5.272995-6.5700073-1.6019974-1.2850342-5.3219986,6.6300049c-1.8710022,2.3320312-1.8720016,5.3649902.5820007,7.3340454M90.5449905,255.9932251c2.2910004,1.8389893,5.5470047,2.1859741,7.9830017.2729492l-1.6429977-1.3179932c-1.512001,1.0530396-3.586998.8550415-5.1070023-.3659668-2.2109985-1.7739868-2.4459991-4.7630005-.5410004-7.1350098,1.8380051-2.2910156,4.7910004-2.8549805,7.0419998-1.0490112,1.5210037,1.2210083,2.1430054,3.1870117,1.4620056,4.90802l1.6629944,1.3339844c1.3199997-2.8079834.2980042-5.8950195-1.9939957-7.7340088-3.102005-2.4899902-7.3300018-1.9160156-9.8360062,1.2070312-2.5059967,3.1220093-2.2129974,7.3249512.9710007,9.8800049M79.6729965,236.7661743c1.723999-1.815979,4.2699966-1.8729858,6.0339966-.4569702,1.7850037,1.4320068,2.3700027,3.7349854.8190002,5.9580078l-6.8529968-5.5010376ZM78.0949936,246.0012207c2.473999,1.9859619,5.4420013,2.0669556,7.6080017.5719604l-1.6620026-1.3339844c-1.4799957.8460083-3.3550034.440979-4.7539978-.6809692-2.1700058-1.7420044-2.4049988-4.2310181-.7939987-6.4050293l8.5979996,6.9000244.5690002-.710022c2.4409943-3.0410156,2.4229965-6.9229736-.7810059-9.4940186-2.8789978-2.3109741-6.9119949-1.980957-9.612999,1.3850098-2.5390015,3.1640015-2.3949966,7.1799927.8290024,9.7670288M65.8679962,236.1881714c3.1019974,2.4900513,6.3589935,2.1700439,8.1499939-.0599976,4.6050034-5.7389526-5.4269943-9.355957-2.3180008-13.2289429.9430008-1.1760254,2.7100067-1.592041,4.7180023.0199585,1.9260025,1.5460205,2.2030029,3.4020386.901001,5.0239868l1.6829987,1.3510132c2.3600006-2.940979.7900009-6.1350098-1.3600006-7.8599854-2.8590012-2.2940063-5.9580002-1.8809814-7.5849991.1469727-4.5569992,5.677002,5.7799988,8.8730469,2.2160034,13.3140259-1.1880035,1.4799805-3.2580032,1.3179932-5.1240005-.1790161-2.1490021-1.7249756-2.4290009-4.1170044-1.1110001-5.7600098l-1.6430054-1.3179932c-2.114994,2.6360474-1.3449936,6.2880249,1.4730072,8.5499878"/>
    <path class="st10" d="M945.6577759,877.519104c2.3759766-.7939911,4.6499634.3509979,5.5429688,2.4300079.9030151,2.1019897.3389893,4.4099884-2.0739746,5.644989l-3.4689941-8.0749969ZM939.928772,884.9331055c1.2529907,2.9140015,3.8349609,4.3800049,6.4499512,4.0769958l-.84198-1.9589996c-1.7030029.053009-3.1690063-1.1849976-3.8770142-2.8329926-1.0979614-2.5559998-.1380005-4.8650055,2.3060303-6.0279999l4.3510132,10.1289978.8359985-.3589935c3.5839844-1.5400085,5.3899536-4.9760132,3.7680054-8.75-1.4570312-3.3930054-5.1730347-4.9940033-9.1380005-3.2900085-3.7270508,1.6009979-5.4850464,5.2149963-3.8540039,9.0130005M933.8127441,870.6950989c1.4359741,3.3450012,4.3569946,4.8070068,7.8920288,3.2880096,2.4369507-1.0469971,3.3289795-3.3829956,3.0709839-5.3660049l.1439819-.0619965c.9530029.8360062,2.5380249,1.4280014,4.4110107.6520004,2.6719971-1.0920029,3.684021-4.072998,2.492981-6.8440018-1.2420044-2.8909988-4.0149536-4.0759964-7.072998-2.762001l-12.9469604,5.5620041.8099976,1.887001,12.9239502-5.552002c2.0550537-.8830032,3.7140503-.3789978,4.56604,1.6039963.8309937,1.9350052-.0280151,3.4920044-1.6040039,4.1700058-1.625.697998-3.5029907.1459961-4.3959961-1.9320068l-.092041-.2149963-1.6959839.7289963.348999.8120041c.7900391,1.8389969.5740356,4.3659973-1.7910156,5.3820038-2.2699585.9749908-4.3699951.0379944-5.3239746-2.1840057-.257019-.5970001-.4219971-1.375-.5009766-2.0199966l-1.7670288.7589951c.0650024.6800079.2640381,1.4710083.5310059,2.0919952M928.8067627,854.368103c-1.1190186-2.6039963.0089722-5.1829987,2.9229736-6.4349976,2.8190308-1.2109985,5.585022-.3050003,6.6829834,2.2509995,1.0580444,2.4609985.1110229,5.1310043-2.9469604,6.4449997-2.6040039,1.1180038-5.4990234.4380035-6.6589966-2.2610016M927.0587158,854.9771042c1.1600342,2.7000046,3.5300293,3.2099991,4.1170044,3.3250046l.0620117.1429977-1.9589844.8420029.7799683,1.8159943,12.4220581-5.336998-.8110352-1.8880005-2.0059814.862999-.0620117-.1439972c.4810181-.6590042,1.5579834-2.7630005.4390259-5.3670044-1.5090332-3.5119934-5.3200073-4.8739929-9.1420288-3.2319946-3.7979736,1.6319962-5.4099731,5.3239975-3.8400269,8.9789963M921.2217407,840.5341034l.8110352,1.8880005,6.4019775-2.7509995c2.3649902-1.0159988,4.677002-.5089951,5.6519775,1.7600021l.44104,1.0270004,1.8869629-.810997-.4509888-1.0510025c-.7800293-1.8150024-2.5700073-2.4899979-3.7750244-2.3960037l-.0609741-.1439972,2.3170166-.9950027-.8010254-1.8639984-12.4219971,5.336998ZM918.9227295,835.1841049l.7910156,1.8390045,1.6480103-.7080002-.7390137-1.7200012c-.6159668-1.4329987-.0429688-2.2740021,1.2949829-2.848999l7.0469971-3.0270004,1.6420288,3.8219986,1.6010132-.6880035-1.6430054-3.8219986,3.6079712-1.5499954-.7600098-1.7670059-2.9859619,1.2830048c-.4060059.173996-.7340088.0039978-.8779907-.3310013l-.8000488-1.862999-1.6009521.6879959,1.0059814,2.3410034-7.0709839,3.038002c-2.5079956,1.0769958-3.1450195,3.0199966-2.1600342,5.3139954M912.8647461,821.9401093c1.2420044,2.8899994,3.6500244,4.147995,5.9910278,3.1419983,5.1359863-2.2070007-.6940308-8.5309982,2.4599609-9.8860016,1.0750122-.461998,2.2700195.2129974,2.9370117,1.7659988.7089844,1.6480026.2999878,2.8710022-.7990112,3.5410004l.7800293,1.8160019c2.1640015-1.1559982,2.6799927-3.6419983,1.6950073-5.9349976-1.1190186-2.6040039-3.2910156-3.9060059-5.3930054-3.003006-4.9210205,2.114006.9219971,8.4039993-2.5650024,9.9029999-1.2670288.5440063-2.6160278-.0939941-3.4160156-1.9570007-.7800293-1.8149948-.4440308-3.2049942.9450073-4.0569992l-.7900391-1.8389969c-2.2249756,1.2109985-3.1069946,3.5699997-1.8449707,6.5090027M905.1707153,803.173111l.8100586,1.8880005,7.4059448-3.1820068c2.0540161-.8829956,4.2160034,0,5.0580444,1.9590073.7489624,1.7429962.0849609,3.7549973-1.8980103,4.6069946l-7.6920166,3.3040009.8110352,1.8880005,7.8119507-3.3560028c2.7470093-1.1809998,4.1710205-3.8590012,2.9300537-6.7490005-.8320312-1.9349976-2.4100342-2.8419952-3.7580566-2.8849945l-.0619507-.1430054,1.815979-.7799988-.8109741-1.887001-12.4220581,5.3360062ZM906.6167603,786.6491089c2.3759766-.7939911,4.6499634.3509979,5.5429688,2.4290009.9030151,2.1019974.3389893,4.409996-2.0739746,5.6449966l-3.4689941-8.0739975ZM900.8877563,794.0621109c1.2520142,2.9150009,3.8349609,4.3799973,6.4500122,4.0769958l-.842041-1.9580002c-1.7039795.052002-3.1690063-1.185997-3.8769531-2.8339996-1.098999-2.5559998-.1380005-4.8649902,2.3049927-6.0279999l4.3519897,10.1289978.8359985-.3589935c3.5830078-1.5400009,5.3900146-4.9760056,3.7680054-8.75-1.4570312-3.3919983-5.1730347-4.9929962-9.1390381-3.2899933-3.7259521,1.6009979-5.4849854,5.2149887-3.8529663,9.0129929M895.9437256,777.8781128c-1.1189575-2.6040039.0090332-5.1829987,2.9240112-6.4349976,2.8179932-1.2109985,5.585022-.3050079,6.6829834,2.2509918,1.0570068,2.4609985.1100464,5.131012-2.947998,6.4450073-2.6029663,1.1179962-5.4989624.4380035-6.6589966-2.2610016M894.1967163,778.4871063c1.1590576,2.7000122,3.5290527,3.2100067,4.1170044,3.3250122l.0610352.1429901-1.9589844.8420105.7799683,1.8159943,17.9169922-7.697998-.8109741-1.8870087-7.5010376,3.2230072-.0619507-.1439972c.480957-.6590118,1.5579834-2.7630005.4389648-5.3670044-1.5079956-3.5119934-5.3200073-4.8739929-9.1419678-3.2319946-3.7980347,1.6319885-5.4100342,5.3239899-3.8390503,8.9789886M886.0197144,758.598114l.8100586,1.8869934,7.4059448-3.1809998c2.0540161-.8829956,4.2160034-.0009918,5.0580444,1.9580078.7489624,1.7440033.0849609,3.7559967-1.8980103,4.6069946l-7.6920166,3.3050079.8110352,1.8869934,7.8119507-3.3560028c2.7470093-1.1799927,4.1710205-3.8580017,2.9300537-6.7480011-.8320312-1.9349976-2.4100342-2.8419952-3.7580566-2.8849945l-.0619507-.1439972,1.815979-.7799988-.8109741-1.8870087-12.4220581,5.3370056ZM883.4637451,752.650116l.8109741,1.8869934,12.4219971-5.3369904-.8109741-1.8870087-12.4219971,5.3370056ZM898.5527344,747.3281097c.3480225.8119965,1.1920166,1.1289978,1.9799805.7900085.7650146-.3280029,1.1160278-1.1580048.7670288-1.9700012-.3389893-.7890015-1.1820068-1.1060028-1.9470215-.7770081-.7879639.3390045-1.1389771,1.1690063-.7999878,1.9570007M878.5067749,741.1121063l3.9309692,9.1490021,1.7440186-.7489929-3.1000366-7.2140045,14.9780273-6.4349976-.8309937-1.9349976-16.7219849,7.1839905Z"/>
    <path class="st10" d="M1168.8735352,615.6208191c-.7949219-2.3760071.3499756-4.6499939,2.4290771-5.5429993,2.1019287-.9030151,4.4099121-.3390198,5.6448975,2.0740051l-8.0739746,3.4689941ZM1176.286499,621.349823c2.9140625-1.2520142,4.3800049-3.835022,4.0770264-6.4500122l-1.9589844.8420105c.0529785,1.7030029-1.1849365,3.1690063-2.8330078,3.8769836-2.5560303,1.098999-4.8649902.1380005-6.0279541-2.3049927l10.1290283-4.3519897-.3590088-.8359985c-1.5400391-3.5840149-4.9760742-5.3900146-8.75-3.7680054-3.3920898,1.4570007-4.9940186,5.1730042-3.2900391,9.1380005,1.6009521,3.7269897,5.2149658,5.4849854,9.0129395,3.8540039M1162.0495605,627.4658203c3.3439941-1.4360046,4.8060303-4.3569946,3.2869873-7.8919983-1.0469971-2.4370117-3.3829346-3.32901-5.3659668-3.0710144l-.0620117-.1439819c.8359375-.9530029,1.4289551-2.5380249.6519775-4.4110107-1.092041-2.6719971-4.072998-3.6839905-6.8439941-2.4930115-2.8900146,1.2420044-4.0760498,4.0150146-2.7619629,7.072998l5.5620117,12.9470215,1.8879395-.8099976-5.5529785-12.9240112c-.881958-2.0549927-.3790283-3.7139893,1.6040039-4.5660095,1.9349365-.8309937,3.493042.0280151,4.1700439,1.6040039.697998,1.625.1459961,3.5029907-1.9320068,4.3959961l-.2150879.0920105.7290039,1.6959839.8120117-.348999c1.8399658-.789978,4.3659668-.5739746,5.3820801,1.7910156.9749756,2.269989.0379639,4.3699951-2.1831055,5.3240051-.5979004.2569885-1.3759766.4219971-2.0209961.5010071l.7590332,1.7669983c.6800537-.0650024,1.4710693-.2640076,2.0930176-.5310059M1145.7215576,632.4718018c-2.6040039,1.1190186-5.1820068-.0089722-6.4350586-2.9229736-1.2109375-2.8190002-.3049316-5.585022,2.2510986-6.6830139,2.4609375-1.0570068,5.1309814-.1109924,6.4449463,2.946991,1.1190186,2.6040039.4389648,5.4990234-2.2609863,6.6589966M1146.3305664,634.2198181c2.6999512-1.1600037,3.2099609-3.5299988,3.3249512-4.1170044l.144043-.0620117.8409424,1.9590149,1.81604-.7799988-5.3370361-12.4219971-1.8869629.8110046.8620605,2.0059814-.144043.0620117c-.6590576-.4810181-2.7630615-1.5580139-5.3670654-.4389954-3.5109863,1.5090027-4.8739014,5.3199768-3.230957,9.1419983,1.6309814,3.7980042,5.322998,5.4100037,8.9780273,3.8399963M1131.8885498,640.0568237l1.8869629-.8110046-2.7509766-6.4020081c-1.0159912-2.3649902-.5090332-4.677002,1.7600098-5.6520081l1.0269775-.440979-.8109131-1.8870239-1.0510254.4510193c-1.8150635.7799988-2.4899902,2.5700073-2.3959961,3.7749939l-.144043.0610046-.9949951-2.3170166-1.8630371.8010254,5.3370361,12.4219971ZM1126.5375977,642.3558044l1.8389893-.7909851-.7080078-1.6480103-1.7199707.7390137c-1.4331055.6159973-2.2740479.0429993-2.8480225-1.2950134l-3.0280762-7.0469971,3.8220215-1.6419983-.6870117-1.6000061-3.822998,1.6419983-1.5489502-3.6080017-1.7680664.7600098,1.2830811,2.9859924c.1739502.4060059.0039062.7340088-.3310547.8780212l-1.8630371.7999878.6881104,1.6010132,2.3409424-1.006012,3.0379639,7.0710144c1.0770264,2.5079956,3.0209961,3.144989,5.3140869,2.1599731M1112.6726074,648.6808167c3.6549072-1.5710144,4.901001-4.5970154,3.7719727-7.223999-2.9040527-6.7609863-10.8079834.3980103-12.7680664-4.1640015-.5959473-1.3859863-.1329346-3.1409912,2.2320557-4.1570129,2.2700195-.9749756,4.0389404-.3479919,4.8599854,1.5630188l1.9820557-.8520203c-1.4880371-3.4639893-5.0450439-3.5769958-7.5770264-2.4889832-3.3690186,1.446991-4.4589844,4.3769836-3.4320068,6.7659912,2.8740234,6.6889954,10.5479736-.9379883,12.7960205,4.2940063.7489014,1.7430115-.3660889,3.4960022-2.5629883,4.4400024-2.5330811,1.0880127-4.776001.2130127-5.6080322-1.7220154l-1.9350586.8310242c1.335083,3.1049805,4.9200439,4.1399841,8.2410889,2.7139893M1091.397583,657.4528198l1.8869629-.8110046-2.75-6.4020081c-1.0169678-2.3649902-.5100098-4.677002,1.7600098-5.6519775l1.0269775-.4410095-.8110352-1.8869934-1.0509033.4509888c-1.81604.7799988-2.4899902,2.5700073-2.3970947,3.7749939l-.1429443.0620117-.9959717-2.3179932-1.8630371.8009949,5.3370361,12.4219971ZM1074.8725586,656.0068054c-.7940674-2.3759766.3509521-4.651001,2.4289551-5.5439758,2.1030273-.9030151,4.4110107-.3380127,5.6459961,2.0749817l-8.0749512,3.4689941ZM1082.286499,661.7348022c2.9140625-1.2519836,4.3800049-3.8339844,4.0770264-6.4489746l-1.9589844.84198c.0529785,1.7030029-1.1849365,3.1690063-2.8330078,3.8770142-2.5560303,1.0979919-4.8649902.1380005-6.0279541-2.3059998l10.1290283-4.3510132-.3601074-.8359985c-1.5389404-3.5839844-4.9749756-5.3899841-8.75-3.7689819-3.3919678,1.4579773-4.9929199,5.1739807-3.2889404,9.1389771,1.6009521,3.727005,5.2139893,5.4850006,9.0129395,3.8529968M1062.3735352,669.9228058l1.8869629-.8109894-3.1820068-7.4060059c-.881958-2.0539856,0-4.2160034,1.9591064-5.0570068,1.7438965-.75,3.7550049-.0859985,4.6069336,1.8970032l3.3050537,7.6920013,1.8869629-.8110046-3.355957-7.8109894c-1.1800537-2.7470093-3.8580322-4.1719971-6.7490234-2.9299927-1.9350586.8309937-2.8410645,2.4089966-2.8850098,3.7579956l-.1430664.0610046-.7799072-1.8150024-1.887085.8110046,5.3370361,12.4219818ZM1045.8485107,668.4758148c-.7939453-2.375.3510742-4.6500092,2.4290771-5.5429993,2.1019287-.9029999,4.4110107-.3380127,5.6450195,2.0739899l-8.0740967,3.4690094ZM1053.2615967,674.2048035c2.914917-1.2519989,4.3809814-3.8339996,4.0780029-6.4489899l-1.9591064.8410034c.0531006,1.7039948-1.1849365,3.1699982-2.8339844,3.8779907-2.5559082,1.0980072-4.8640137.1370087-6.0269775-2.3059998l10.1280518-4.352005-.3590088-.8359985c-1.5390625-3.5829926-4.9749756-5.3889771-8.75-3.7679901-3.3919678,1.4579926-4.993042,5.173996-3.2890625,9.1389923,1.6010742,3.727005,5.2139893,5.4850006,9.012085,3.8529968M1037.6265869,678.9128113c-2.6990967,1.1600037-5.2680664-.3399963-6.3859863-2.9440002-1.3140869-3.0570068-.1621094-5.6459961,2.2979736-6.7030029,2.5560303-1.0979919,5.1860352.1490021,6.3969727,2.9680023,1.2519531,2.9140015.2950439,5.5610046-2.30896,6.6790009M1038.4746094,680.5578156c3.6558838-1.5700073,5.0279541-5.3580017,3.3959961-9.1560059-1.6420898-3.8220062-5.3441162-5.4570007-8.8560791-3.9490051-2.6040039,1.1190033-3.2709961,3.3870087-3.3759766,4.1959991l-.1429443.0610046-3.2230225-7.5010071-1.887085.8110046,7.6970215,17.9170074,1.81604-.7799988-.842041-1.9589996.144043-.0620117c.5050049.3209991,2.5749512,1.5820007,5.2740479.4220123M1022.3265991,687.4958038c1.9349976-.8309937,2.84198-2.4089966,2.8849487-3.7579956l.1429443-.0619965.7800293,1.8159943,1.887085-.8109894-5.3359985-12.4220123-1.8880005.8110046,3.2028809,7.4530029c.8820801,2.0549927,0,4.2160034-1.9589233,5.0579987-1.7439575.7489929-3.7550049.0850067-4.6069946-1.8970032l-3.3250122-7.7400055-1.8880005.8110046,3.3560181,7.8110046c1.1810303,2.746994,3.8590088,4.1719971,6.7490234,2.9299927M1018.3485718,671.320816c.71698-.3080139,1.0670166-1.1380005.7490234-1.8790131-.3080444-.7159882-1.1610107-1.0569916-1.8779907-.7489929-.7880249.3390045-1.0680542,1.1380005-.7490234,1.878006.3179932.7409973,1.0900269,1.0879974,1.8779907.75M1014.3355713,673.0448151c.7880249-.3390045,1.0670166-1.1380005.7490234-1.878006-.3080444-.7169952-1.0900269-1.0879974-1.8779907-.75-.717041.3079987-1.0580444,1.1620026-.75,1.8789978.3179932.7400055,1.1619873,1.0570068,1.8789673.7490082M1002.2955933,693.6968079l-5.6959839-13.2579956,3.0339966-1.3040009c4.0130005-1.723999,7.5099487-.1710052,9.2449951,3.8670044,1.8059692,4.2039948.4159546,7.6879883-3.5490112,9.3909912l-3.0339966,1.3040009ZM1001.0996094,696.2478027l4.9689941-2.1349945c5.3029785-2.2779999,7.0199585-6.7789917,4.7929688-11.9629974-2.0939941-4.8730011-6.6740112-7.0370026-11.9779663-4.7590027l-4.9680176,2.1349945,7.184021,16.7220001Z"/>
    <path class="st10" d="M1191.7587891,412.3247375c2.4020996-.7109985,4.6350098.5130005,5.4550781,2.6210022.8289795,2.1329956.18396,4.4199829-2.2700195,5.5699768l-3.1850586-8.190979ZM1185.7747803,419.5337219c1.1490479,2.9570007,3.6790771,4.5110168,6.3031006,4.3000183l-.7730713-1.9869995c-1.7039795-.007019-3.1259766-1.2950134-3.776001-2.9670105-1.0079346-2.5929871.0319824-4.8670044,2.5150146-5.9440002l3.9949951,10.2749939.8480225-.3299866c3.6350098-1.4140015,5.5599365-4.7839966,4.0710449-8.6130066-1.3380127-3.4410095-4.9949951-5.17099-9.0180664-3.6069946-3.7800293,1.4700012-5.6639404,5.019989-4.1650391,8.8729858M1180.1588135,405.0917358c1.3189697,3.3930054,4.1860352,4.9559937,7.7730713,3.5610046,2.4709473-.9609985,3.4449463-3.2650146,3.2559814-5.256012l.1459961-.0559692c.9229736.867981,2.4859619,1.5159912,4.3859863.8049927,2.7080078-.9979858,3.822998-3.9420166,2.7299805-6.7529907-1.1400146-2.9320068-3.8709717-4.2139893-6.9720459-3.007019l-13.1339111,5.1069946.7438965,1.9140015,13.1101074-5.0980225c2.0839844-.8099976,3.7249756-.2489624,4.506958,1.7630005.7629395,1.9620361-.1490479,3.4890137-1.7490234,4.1110229-1.6469727.6409912-3.5050049.0239868-4.3249512-2.0839844l-.085083-.2180176-1.7199707.6690063.3200684.8239746c.7259521,1.8660278.4208984,4.3830261-1.9780273,5.3160095-2.302002.894989-4.368042-.1140137-5.2449951-2.3680115-.2349854-.605957-.3720703-1.3889771-.4290771-2.0369873l-1.7929688.697998c.0419922.6810303.2130127,1.4790039.4580078,2.1090088M1175.7258301,388.5997314c-1.0269775-2.6419678.1899414-5.1790161,3.1459961-6.3289795,2.8590088-1.1119995,5.592041-.1099854,6.6009521,2.4829712.9700928,2.4949951-.0689697,5.1310425-3.1708984,6.3380127-2.6409912,1.0270386-5.5111084.2460327-6.5760498-2.4920044M1173.9578857,389.1477661c1.0649414,2.7379761,3.4158936,3.3299561,3.9979248,3.4660034l.0570068.1459961-1.9869385.7719727.7159424,1.84198,12.6009521-4.8999634-.7449951-1.9150391-2.0349121.7920532-.0570068-.1450195c.5040283-.6430054,1.6539307-2.7080078.6259766-5.348999-1.3850098-3.5620117-5.1459961-5.0560303-9.0229492-3.5490112-3.8530273,1.4990234-5.5930176,5.132019-4.151001,8.8400269M1168.6287842,374.5097656l.7440186,1.9140015,6.4940186-2.5250244c2.3990479-.9329834,4.6920166-.3460083,5.5870361,1.9559937l.4050293,1.0419922,1.914917-.7449951-.414917-1.065979c-.7160645-1.8410034-2.4810791-2.5780029-3.6890869-2.5270386l-.0560303-.1449585,2.3500977-.9140015-.7349854-1.8900146-12.6000977,4.9000244ZM1166.5178223,369.0817261l.7249756,1.8660278,1.6719971-.6500244-.6779785-1.7449951c-.56604-1.4539795.0360107-2.2739868,1.3930664-2.8009644l7.1489258-2.7800293,1.5070801,3.8770142,1.6239014-.6309814-1.5079346-3.8780518,3.6589355-1.4229736-.6968994-1.7930298-3.0290527,1.1780396c-.4119873.1599731-.7340088-.0209961-.8659668-.3610229l-.7349854-1.8900146-1.6230469.632019.9229736,2.3740234-7.1719971,2.789978c-2.5450439.9890137-3.2490234,2.9089966-2.3439941,5.2349854M1160.6807861,355.0047607c1.44104,3.7069702,4.4219971,5.05896,7.0880127,4.0219727,6.8570557-2.6669922-.0219727-10.8150024,4.6060791-12.6149902,1.4060059-.5469971,3.1439209-.0230103,4.0769043,2.3759766.8950195,2.302002.2070312,4.0480347-1.730957,4.802002l.7819824,2.0110474c3.5130615-1.3660278,3.75-4.9180298,2.7509766-7.4860229-1.3280029-3.4169922-4.2189941-4.6079712-6.6419678-3.6660156-6.7850342,2.6380005.5700684,10.5750122-4.7369385,12.6380005-1.769043.6879883-3.4820557-.4869995-4.348999-2.7160034-.9990234-2.5689697-.0450439-4.7810059,1.9169922-5.5440063l-.7630615-1.9629517c-3.1500244,1.2249756-4.30896,4.7719727-2.9990234,8.1409912M1152.6558838,333.4367676l.7449951,1.9140015,6.4938965-2.5250244c2.3990479-.9329834,4.69104-.3460083,5.5870361,1.9559937l.4050293,1.0419922,1.9139404-.7449951-.414917-1.065979c-.7160645-1.84198-2.4810791-2.5780029-3.6879883-2.5269775l-.0570068-.1450195,2.3509521-.9140015-.7349854-1.8900146-12.6009521,4.9000244ZM1154.6778564,316.9727783c2.4019775-.7110596,4.6350098.5130005,5.4549561,2.6209717.8299561,2.132019.1850586,4.4190063-2.2700195,5.5689697l-3.1849365-8.1899414ZM1148.6938477,324.1817627c1.1500244,2.9559937,3.6789551,4.5109863,6.3029785,4.2999878l-.7729492-1.9879761c-1.7041016-.0060425-3.125-1.2950439-3.776001-2.967041-1.0080566-2.59198.032959-4.8659668,2.5148926-5.9429932l3.9960938,10.2739868.8480225-.3299561c3.6348877-1.4130249,5.5599365-4.7839966,4.0709229-8.6130371-1.3380127-3.440979-4.9959717-5.1709595-9.0179443-3.605957-3.7810059,1.4699707-5.6640625,5.0199585-4.1660156,8.8729858M1141.2067871,303.994751l.7440186,1.914978,7.5119629-2.9219971c2.0841064-.8099976,4.2141113.1470337,4.9870605,2.1340332.6879883,1.7689819-.0460205,3.7559814-2.0570068,4.5379639l-7.8029785,3.0350342.7440186,1.9140015,7.9239502-3.0820312c2.7869873-1.0830078,4.3040771-3.7099609,3.1640625-6.6419678-.7630615-1.9630127-2.309082-2.9240112-3.6550293-3.0140381l-.0570068-.1449585,1.842041-.717041-.7440186-1.9140015-12.6010742,4.9000244ZM1143.2288818,287.5307617c2.4019775-.7109985,4.6348877.5130005,5.4549561,2.6209717.8289795,2.1329956.18396,4.4200439-2.2700195,5.5690308l-3.1849365-8.1900024ZM1137.244873,294.7397461c1.1499023,2.9559937,3.6789551,4.5109863,6.3029785,4.2999878l-.7730713-1.9869995c-1.7039795-.006958-3.1259766-1.2949829-3.776001-2.96698-1.0079346-2.5930176.0321045-4.8670044,2.5150146-5.9440308l3.9960938,10.2750244.8479004-.3300171c3.6340332-1.4140015,5.5600586-4.7849731,4.0710449-8.6129761-1.3380127-3.440979-4.9959717-5.1710205-9.019043-3.6069946-3.7799072,1.4699707-5.6629639,5.0200195-4.164917,8.8729858M1133.0848389,278.9497681c-1.0650635-2.7380371.5240479-5.2529907,3.1650391-6.2800293,3.1019287-1.2059937,5.6489258.0350342,6.6199951,2.5310059,1.0079346,2.5930176-.3300781,5.1779785-3.1890869,6.289978-2.9569092,1.1490479-5.5679932.1000366-6.5959473-2.5409546M1131.4118652,279.7397461c1.4420166,3.7080078,5.1789551,5.2119751,9.0319824,3.7130127,3.8769531-1.507019,5.6409912-5.1500244,4.2550049-8.7120361-1.0269775-2.6419678-3.2700195-3.3880005-4.0750732-3.5209961l-.0559082-.1449585,7.6090088-2.9590454-.7449951-1.914978-18.1740723,7.0679932.7160645,1.842041,1.9869385-.7730103.0570068.1449585c-.3380127.4940186-1.6710205,2.519043-.605957,5.257019M1125.0418701,263.3597412c.7629395,1.9620361,2.30896,2.9240112,3.6549072,3.0140381l.0560303.1449585-1.8409424.7160034.7440186,1.9150391,12.6009521-4.9000244-.7449951-1.914978-7.5600586,2.9400024c-2.0839844.8109741-4.2139893-.1460571-4.9859619-2.1340332-.6879883-1.7680054.0450439-3.7559814,2.0570068-4.5380249l7.8509521-3.0529785-.7438965-1.9140015-7.9240723,3.0809937c-2.7869873,1.0840454-4.3039551,3.710022-3.1639404,6.6430054M1141.3458252,259.9477539c.282959.7269897,1.0999756,1.1069946,1.8509521.8150024.7270508-.28302,1.0970459-1.1240234.8150635-1.8510132-.3110352-.7999878-1.0999756-1.1069946-1.8509521-.8150024-.7520752.2919922-1.1260986,1.052002-.8150635,1.8510132M1139.7628174,255.87677c.3110352.7999878,1.0999756,1.1069946,1.8509521.8150024.7270508-.28302,1.125-1.052002.8140869-1.8510132-.2819824-.7269897-1.1240234-1.0969849-1.8510742-.8150024-.7509766.2919922-1.0969238,1.1240234-.8139648,1.8510132M1119.5438232,243.1237793l13.4489746-5.2300415,1.1970215,3.0780029c1.5830078,4.0709839-.092041,7.5120239-4.1870117,9.1040039-4.2650146,1.6589966-7.697998.1480103-9.2619629-3.8739624l-1.1970215-3.0780029ZM1117.0358887,241.8397217l1.9599609,5.0400391c2.0919189,5.3800049,6.5310059,7.2529907,11.7889404,5.2080078,4.9429932-1.9230347,7.2659912-6.4249878,5.1740723-11.8040161l-1.960083-5.039978-16.9628906,6.5959473Z"/>
    <polyline class="st5" points="1169.2912598 -22.677124 1118.2672119 74.645874 1134.4881592 124.7249146 1421.5742188 857.0078735"/>
  </g>
  <polyline class="st3" points="1127.1769263 119.852601 432.0589453 417.9625863 427.8069311 450.5616159 407.9639136 511.5065927 454.7359472 620.6395883 478.830918 637.6475839 575.2079321 834.6555795"/>
  <g class="st13">
    <line class="st3" x1="528.661377" y1="380.7874146" x2="768.1893311" y2="926.9294434"/>
    <path class="st3" d="M685.984314,308.9763794s39,94.3880005,44.5669556,100.1570129c17.322998,17.9530029,59.5270386,29.2919922,56.6929932,57.6380005-2.8349609,28.3469849-17.6380005,102.9919739-13.3859863,114.3309937,4.2520142,11.3389893,153.0710449,350.07901,153.0710449,350.07901"/>
    <polyline class="st3" points="1286.1417236 511.1810913 450.7087402 891.4960938 449.291748 930.7091064"/>
    <line class="st3" x1="450.7087097" y1="887.2441006" x2="274.9606934" y2="-14.1728516"/>
    <path class="st3" d="M493.2283936-18.4251709l-83.6220093,316.0629883s-21.4169922,94.9609985-53.2279968,94.9609985"/>
    <line class="st3" x1="-21.2598" y1="97.7952881" x2="355.0391846" y2="396.1412964"/>
    <line class="st6" x1="535.7479858" y1="-10.3936768" x2="688.8189697" y2="311.8113403"/>
    <path class="st6" d="M719.2125854-9.9213257s40.46698,95.9060059,62.3619995,95.9060059c26.2989502,0,56.6929932-39.2129517,79.3699951,14.6450195s51.0239868,111.9689941,51.0239868,111.9689941"/>
    <polyline class="st4" points="1110.3936768 -21.2598267 1235.9056396 79.3701782 1348.5036621 308.9761963 1418.7406006 386.9291992"/>
    <path class="st10" d="M430.0857849,70.3912354c-2.3649902-.8259888-3.4620056-3.1239624-2.8959961-5.3139648.572998-2.2150269,2.4329834-3.6950073,5.0960083-3.1940308l-2.2000122,8.5079956ZM439.1537781,68.0372314c.7940063-3.0709839-.3500061-5.8109741-2.6029968-7.1729736l-.5339966,2.0639648c1.3800049,1.0020142,1.7810059,2.8780518,1.3309937,4.6150513-.6959839,2.6929932-2.868988,3.9299927-5.5130005,3.3540039l2.7600098-10.6730347-.881012-.2279663c-3.776001-.9760132-7.3079834.6349487-8.3359985,4.6119995-.9249878,3.5739746,1.03302,7.1149902,5.2120056,8.1959839,3.927002,1.0159912,7.5289917-.7650146,8.5639954-4.7670288M435.2737732,83.0392456c.9120178-3.5239868-.5019836-6.4680176-4.2279968-7.4320068-2.5669861-.6640015-4.7030029.6370239-5.7129822,2.3630371l-.151001-.0390015c-.2420044-1.2440186-1.1329956-2.6830444-3.0890198-3.2160034-2.7810059-.7730103-5.4060059.9649658-6.1609802,3.8850098-.7880249,3.0459595.6789856,5.6809692,3.901001,6.5149536l13.6429749,3.5280151.5140076-1.9890137-13.617981-3.5209961c-2.1650085-.5599976-3.1679993-1.9749756-2.6280212-4.0639648.5270081-2.0390015,2.1600037-2.7449951,3.8210144-2.3150024,1.7120056.4429932,2.8590088,2.0289917,2.2929993,4.2189941l-.0589905.2260132,1.7879944.4619751.2209778-.8560181c.5010071-1.9379883,2.2190247-3.8029785,4.7109985-3.1589966,2.3910217.6190186,3.4790039,2.6459961,2.8730164,4.9869995-.1629944.6290283-.5090027,1.3450317-.8410034,1.9039917l1.8619995.4810181c.3640137-.5769653.6920166-1.3250122.8609924-1.9790039M429.2357788,99.0132446c-.7089844,2.7440186-3.1799927,4.0930176-6.2510071,3.2980347-2.9700012-.7680054-4.6029968-3.177002-3.9059753-5.8710327.67099-2.59198,3.0539856-4.1239624,6.276001-3.2910156,2.743988.7090454,4.6169739,3.0200195,3.8809814,5.8640137M430.9907837,99.6012573c.7359924-2.8439941-.8259888-4.697998-1.2200012-5.1489868l.0390015-.151001,2.0650024.5339966.493988-1.9130249-13.0889893-3.3850098-.5140076,1.9880371,2.1140137.5469971-.0390015.151001c-.7839966.2269897-2.9230042,1.230957-3.6329956,3.9749756-.9570007,3.7000122,1.2229919,7.1110229,5.25,8.1520386,4.0019836,1.0349731,7.5369873-.8970337,8.5329895-4.7490234M426.7637939,114.5952759l.5149841-1.9890137-6.7460022-1.7440186c-2.4920044-.6450195-4.0099792-2.4609985-3.3919983-4.8519897l.2799988-1.0819702-1.9880066-.5150146-.2869873,1.1079712c-.4949951,1.9130249.5079956,3.5419922,1.5169983,4.2059937l-.0390015.151001-2.4410095-.631958-.5079956,1.9639893,13.0890198,3.3850098ZM425.3057861,120.2332764l.5010071-1.9380493-1.7360229-.4489746-.4689941,1.8120117c-.3909912,1.5100098-1.3580017,1.8239746-2.7680054,1.4599609l-7.4249878-1.9209595,1.0409851-4.0270386-1.6859741-.4369507-1.0420227,4.0279541-3.8009949-.9829712-.4819946,1.8629761,3.1470032.8129883c.428009.1110229.5830078.4470215.4920044.7990112l-.5079956,1.9630127,1.6859741.4370117.6380005-2.46698,7.4510193,1.927002c2.6430054.6829834,4.3359985-.4630127,4.9609985-2.8800049M421.987793,134.4142456c.7879944-3.0460205-.3460083-5.5150146-2.8130188-6.1530151-5.4119873-1.3989868-4.6739807,7.1700439-7.9969788,6.3110352-1.1330261-.2930298-1.6650085-1.5579834-1.2420044-3.1940308.4490051-1.7369995,1.5209961-2.4539795,2.7999878-2.3109741l.4949951-1.9130249c-2.4190063-.4110107-4.348999,1.2380371-4.973999,3.6550293-.7089844,2.7440186.2109985,5.1029663,2.4259949,5.6759644,5.1860046,1.3410034,4.4160156-7.2099609,8.0910034-6.2589722,1.3340149.3449707,2.0110168,1.6740112,1.5030212,3.6380005-.4950256,1.9130249-1.6119995,2.8059692-3.2310181,2.6290283l-.5010071,1.9379883c2.5.4049683,4.6420288-.9210205,5.4430237-4.0170288M416.3007812,149.0292358c-.7089844,2.7440186-3.1789856,4.092041-6.25,3.2980347-2.9710083-.7680054-4.6029968-3.1780396-3.9070129-5.8710327.6710205-2.5929565,3.0540161-4.125,6.276001-3.2909546,2.7440186.7089844,4.6170044,3.0199585,3.881012,5.8639526M418.0557861,149.6172485c.7359924-2.8439941-.8259888-4.697998-1.2189941-5.1489868l.0390015-.151001,2.0639954.5339966.493988-1.9140015-18.8779907-4.882019-.5150146,1.9890137,7.9040222,2.0440063-.0390015.151001c-.7839966.2269897-2.9230042,1.2310181-3.6329956,3.9749756-.9570007,3.7000122,1.2229919,7.1100464,5.25,8.1520386,4.0029907,1.0349731,7.5369873-.8980103,8.5329895-4.7490234M413.8287964,164.6112671l.5149841-1.9890137-6.7460022-1.7449951c-2.4920044-.6439819-4.0100098-2.460022-3.3919983-4.8510132l.2799988-1.0830078-1.9880066-.5139771-.2869873,1.1079712c-.4949951,1.9130249.5079956,3.5410156,1.5180054,4.2050171l-.0400085.151001-2.4410095-.6309814-.5079956,1.9630127,13.0890198,3.3859863ZM409.6617737,174.597229c-.7219849,2.7940063-3.3509827,4.2360229-6.29599,3.473999-2.8699951-.7419434-4.552002-3.2719727-3.822998-6.0909424.7290039-2.8190308,3.4079895-4.2480469,6.303009-3.4990234,2.9199829.7550049,4.5449829,3.2969971,3.815979,6.1159668M411.4747925,175.0662842c1.0149841-3.927002-1.1750183-7.6090088-5.1020203-8.6240234-3.9259949-1.0159912-7.6139832,1.09198-8.6359863,5.0440063-1.0090027,3.9019775,1.1499939,7.6019897,5.1009827,8.6239624,3.9780273,1.0290527,7.6210022-1.1169434,8.6370239-5.0439453M404.9237976,199.0452271l.5269775-2.0389404-14.0709839-3.6390381.0390015-.151001,16.4279785-5.4729614.5599976-2.1650391-17.6209717-4.5570068-.5200195,2.0140381,14.0710144,3.6389771-.0390015.151001-16.45401,5.5739746-.5400085,2.0890503,17.6200256,4.5569458Z"/>
    <path class="st20" d="M494.6456909,533.7637939c25.8309937,0,46.7719727-20.9399719,46.7719727-46.7719727,0-25.8310242-20.940979-46.7710266-46.7719727-46.7710266-25.8310242,0-46.7720032,20.9400024-46.7720032,46.7710266,0,25.8320007,20.940979,46.7719727,46.7720032,46.7719727"/>
  </g>
  <g class="st16">
    <path class="st12" d="M494.2809302,521.9625863v-4.5999756c16.7070007,0,30.2989502-13.5920105,30.2989502-30.2990112h4.6000366c0,19.2430115-15.6550293,34.8989868-34.8989868,34.8989868"/>
    <path class="st12" d="M494.2809302,511.0963144c-13.2520142,0-24.03302-10.7809753-24.03302-24.0329895h4.6000061c0,10.7160034,8.7170105,19.4330139,19.4330139,19.4330139,10.7159729,0,19.4329834-8.7170105,19.4329834-19.4330139s-8.7170105-19.4329834-19.4329834-19.4329834v-4.6000061c13.2519836,0,24.032959,10.7819824,24.032959,24.0329895,0,13.2520142-10.7809753,24.0329895-24.032959,24.0329895"/>
    <path class="st12" d="M494.2809302,500.2294015c-7.2600098,0-13.1670227-5.9059753-13.1670227-13.1659851v-56.2030029h4.6000061v56.2030029c0,4.723999,3.8429871,8.5660095,8.5670166,8.5660095v4.5999756Z"/>
    <path class="st12" d="M507.4471289,487.0632944h-4.6000061c0-4.723999-3.8430176-8.565979-8.5660095-8.565979v-4.6000061c7.2600098,0,13.1660156,5.9060059,13.1660156,13.1659851"/>
  </g>
  <g class="st14">
    <line class="st2" x1="1129.220459" y1="-6.1652832" x2="1223.3543701" y2="69.3067627"/>
  </g>
  <line class="st7" x1="1245.0641333" y1="98.3565072" x2="1342.0240942" y2="296.0735483"/>
  <g class="st15">
    <line class="st0" x1="1366.0629883" y1="328.4645996" x2="1407.0339355" y2="373.9366455"/>
    <path class="st8" d="M1412.8875732,380.4331665l5.8530273,6.4960327M1345.3765869,302.5982056l3.1270752,6.3779907,5.8529053,6.4959717M1229.6296387,74.3381958l6.276001,5.0319824,3.1279297,6.3780518M1110.3936768-21.2598267l6.2758789,5.0310059"/>
  </g>
  <rect class="st9" x="1249.8542944" y="168.5145883" width="85.0389404" height="49.6060181"/>
  <text class="st11" transform="translate(1263.1239471 203.7749526)"><tspan x="0" y="0">183a</tspan></text>
  <g class="st18">
    <path class="st9" d="M311.8110046,611.1023865c25.8309937,0,46.7719727-20.9399719,46.7719727-46.7719727,0-25.8310242-20.940979-46.7710266-46.7719727-46.7710266-25.8310242,0-46.7720032,20.9400024-46.7720032,46.7710266,0,25.8320007,20.940979,46.7719727,46.7720032,46.7719727"/>
  </g>
  <g class="st17">
    <path class="st12" d="M311.4463049,599.3012094v-4.5999756c16.7070007,0,30.2989807-13.5920105,30.2989807-30.2990112h4.6000061c0,19.2430115-15.6549988,34.8989868-34.8989868,34.8989868"/>
    <path class="st12" d="M311.4463049,588.4348154c-13.2520142,0-24.03302-10.7809753-24.03302-24.0329895h4.6000061c0,10.7160034,8.7170105,19.4330139,19.4330139,19.4330139,10.7159729,0,19.4329834-8.7170105,19.4329834-19.4330139s-8.7170105-19.4329834-19.4329834-19.4329834v-4.6000061c13.2519836,0,24.0329895,10.7819824,24.0329895,24.0329895,0,13.2520142-10.7810059,24.0329895-24.0329895,24.0329895"/>
    <path class="st12" d="M311.4463049,577.5679941c-7.2600098,0-13.1670227-5.9059753-13.1670227-13.1659851v-56.2030029h4.6000061v56.2030029c0,4.723999,3.8429871,8.5660095,8.5670166,8.5660095v4.5999756Z"/>
    <path class="st12" d="M324.6124121,564.4018869h-4.6000061c0-4.723999-3.8430176-8.565979-8.5660095-8.565979v-4.6000061c7.2600098,0,13.1660156,5.9060059,13.1660156,13.1659851"/>
  </g>
</svg>