<?xml version="1.0" encoding="UTF-8"?>
<svg id="Ebene_1" xmlns="http://www.w3.org/2000/svg" version="1.1" viewBox="0 0 260 300">
  <!-- Generator: Adobe Illustrator 29.7.1, SVG Export Plug-In . SVG Version: 2.1.1 Build 8)  -->
  <defs>
    <style>
      .st0 {
        fill: #5ebf48;
      }
    </style>
  </defs>
  <path class="st0" d="M106.6869224,300v-19.7388741c71.6901217,0,130.0145904-58.3253983,130.0145904-130.0155271h19.7388845c0,82.5751959-67.178279,149.7544012-149.7534749,149.7544012"/>
  <path class="st0" d="M106.6869224,253.3720792c-56.863226,0-103.1273197-46.2631624-103.1273197-103.1263812h19.7388774c0,45.9818632,37.406572,83.3875074,83.3884423,83.3875074s83.3875145-37.4056442,83.3875145-83.3875074-37.4056512-83.3875215-83.3875145-83.3875215v-19.7388562c56.863226,0,103.1263848,46.2631447,103.1263848,103.1263777s-46.2631588,103.1263812-103.1263848,103.1263812"/>
  <path class="st0" d="M106.6869224,206.7420249c-31.1540396,0-56.5002367-25.3452622-56.5002367-56.4965111V0h19.7398053v150.2455138c0,20.2699003,16.4905311,36.7576408,36.7604314,36.7576408v19.7388703Z"/>
  <path class="st0" d="M163.1834406,150.2454996h-19.7388845c0-20.2699003-16.4886754-36.7567058-36.7576408-36.7567058v-19.7398053c31.1512489,0,56.4965253,25.3452622,56.4965253,56.4965111"/>
</svg>