<?xml version="1.0" encoding="UTF-8"?>
<svg id="Ebene_1" xmlns="http://www.w3.org/2000/svg" version="1.1" viewBox="0 0 222 30">
  <!-- Generator: Adobe Illustrator 29.7.1, SVG Export Plug-In . SVG Version: 2.1.1 Build 8)  -->
  <defs>
    <style>
      .st0 {
        fill: #fff;
      }
    </style>
  </defs>
  <path class="st0" d="M.1064453,1.800293h6.7797852c3.9892578,0,6.359375,2.3095703,6.359375,5.3696289,0,2.0698242-.9902344,3.6298828-2.6699219,4.5297852v.1801758c1.4101562.4799805,3.3896484,1.9799805,3.3896484,4.949707,0,3.7802734-2.9394531,5.9697266-6.4794922,5.9697266H.1064453V1.800293ZM6.7963867,10.8896484c2.3691406,0,3.9599609-1.409668,3.9599609-3.5395508,0-2.0698242-1.6201172-3.3901367-3.8701172-3.3901367H2.5063477v6.9296875h4.2900391ZM7.065918,20.6694336c2.4902344,0,4.3798828-1.2001953,4.3798828-3.8994141,0-2.7602539-2.2197266-3.840332-4.6494141-3.840332H2.5063477v7.7397461h4.5595703Z"/>
  <path class="st0" d="M18.1665039,7.2001953h2.3398438v2.909668h.1796875c.4506836-1.3198242,1.980957-2.909668,4.2602539-2.909668h1.3203125v2.3696289h-1.2900391c-2.8496094,0-4.440918,2.2197266-4.440918,5.1899414v8.0395508h-2.3691406V7.2001953Z"/>
  <path class="st0" d="M28.3671875,15.0297852c0-4.7998047,3.1796875-8.2197266,7.5898438-8.2197266,3.2695312,0,5.0097656,2.0996094,5.4892578,2.909668h.1806641v-2.5195312h2.3691406v15.5991211h-2.2792969v-2.4599609h-.1806641c-.3896484.5703125-2.0097656,2.8505859-5.3994141,2.8505859-4.5898438,0-7.7695312-3.390625-7.7695312-8.1601562ZM41.7167969,15.0297852c0-3.8398438-2.4003906-6.0600586-5.4902344-6.0600586-3.2099609,0-5.4296875,2.5200195-5.4296875,6.0600586,0,3.6601562,2.2197266,6.0302734,5.4902344,6.0302734,3.3896484,0,5.4296875-2.7607422,5.4296875-6.0302734Z"/>
  <path class="st0" d="M49.0966797,7.2001953h2.3691406v2.2797852h.1806641c.6601562-1.4101562,2.3398438-2.6699219,4.7695312-2.6699219,3.6298828,0,5.8193359,2.7299805,5.8193359,6.1796875v9.8095703h-2.3691406v-9.659668c0-2.4897461-1.8300781-4.1098633-4.0205078-4.1098633-2.4599609,0-4.3798828,1.8901367-4.3798828,4.4697266v9.2998047h-2.3691406V7.2001953Z"/>
  <path class="st0" d="M66.1357422,15.0297852c0-4.7998047,3.1796875-8.2197266,7.5898438-8.2197266,3.2695312,0,5.0097656,2.0996094,5.4892578,2.909668h.1806641V.300293h2.3691406v22.4990234h-2.2792969v-2.4599609h-.1806641c-.3896484.5703125-2.0097656,2.8505859-5.3994141,2.8505859-4.5898438,0-7.7695312-3.390625-7.7695312-8.1601562ZM79.4853516,15.0297852c0-3.8398438-2.4003906-6.0600586-5.4902344-6.0600586-3.2099609,0-5.4296875,2.5200195-5.4296875,6.0600586,0,3.6601562,2.2197266,6.0302734,5.4902344,6.0302734,3.3896484,0,5.4296875-2.7607422,5.4296875-6.0302734Z"/>
  <path class="st0" d="M88.3056641,18.0893555v-8.8793945h-2.9394531v-2.0097656h2.3398438c.4199219,0,.75-.2700195.75-.7802734v-3.75h2.2197266v4.5302734h4.7998047v2.0097656h-4.7998047v8.8500977c0,1.6796875.6298828,2.6699219,2.4296875,2.6699219h2.1601562v2.0693359h-2.3095703c-2.8798828,0-4.6503906-1.5595703-4.6503906-4.7099609Z"/>
  <path class="st0" d="M108.375,1.800293h7.5292969c3.8105469,0,6.4199219,2.4897461,6.4199219,6.2998047,0,3.7797852-2.7294922,6.3896484-6.4199219,6.3896484h-5.0996094v8.3095703h-2.4296875V1.800293ZM115.6943359,12.3295898c2.5205078,0,4.1396484-1.7998047,4.1396484-4.2294922,0-2.3999023-1.6191406-4.1401367-4.1396484-4.1401367h-4.8896484v8.3696289h4.8896484Z"/>
  <path class="st0" d="M125.625.300293h2.3691406v9.1796875h.1806641c.6601562-1.4101562,2.3994141-2.6699219,4.8300781-2.6699219,3.6289062,0,5.8789062,2.7299805,5.8789062,6.1796875v9.8095703h-2.3691406v-9.659668c0-2.4897461-1.890625-4.1098633-4.0800781-4.1098633-2.4003906,0-4.4404297,1.7700195-4.4404297,4.2900391v9.4794922h-2.3691406V.300293Z"/>
  <path class="st0" d="M143.1152344,27.5395508h1.1699219c1.5302734,0,2.4003906-.6601562,2.9101562-2.0097656l.7197266-1.890625-6.3291016-16.4389648h2.6396484l4.8300781,13.199707h.1796875l4.859375-13.199707h2.6699219l-7.4394531,19.1694336c-.8095703,2.1298828-2.0400391,3.3300781-4.5898438,3.3300781h-1.6201172v-2.1601562Z"/>
  <path class="st0" d="M158.4150391,18.2700195h2.3095703c.2705078,1.859375,1.5908203,2.8496094,3.8701172,2.8496094,2.3398438,0,3.6298828-1.1396484,3.6298828-2.7294922,0-4.3803711-9.3291016-1.0507812-9.3291016-7.2304688,0-2.6396484,2.3691406-4.3496094,5.6396484-4.3496094,2.8798828,0,5.2792969,1.6796875,5.5195312,4.4995117h-2.2802734c-.2099609-1.4697266-1.3193359-2.4594727-3.3896484-2.4594727-1.9501953,0-3.2099609.9599609-3.2099609,2.3095703,0,3.9599609,9.359375.6601562,9.359375,7.1103516,0,2.9394531-2.4296875,4.9199219-6.0595703,4.9199219-3.6894531,0-5.7890625-2.0107422-6.0595703-4.9199219Z"/>
  <path class="st0" d="M174.7041016,2.6401367c0-.9599609.7197266-1.7099609,1.7099609-1.7099609,1.0205078,0,1.7402344.75,1.7402344,1.7099609,0,.9897461-.7197266,1.7397461-1.7402344,1.7397461-.9902344,0-1.7099609-.75-1.7099609-1.7397461ZM175.1845703,7.2001953h2.3691406v15.5991211h-2.3691406V7.2001953Z"/>
  <path class="st0" d="M181.4541016,14.9995117c0-4.7094727,3.5097656-8.1894531,8.1591797-8.1894531,4.7099609,0,8.1298828,3.5097656,8.1298828,8.1894531,0,4.6806641-3.4794922,8.1904297-8.1591797,8.1904297s-8.1298828-3.4501953-8.1298828-8.1904297ZM195.3134766,14.9995117c0-3.449707-2.3701172-6.0297852-5.7294922-6.0297852-3.3603516,0-5.7001953,2.6098633-5.7001953,6.0297852,0,3.5097656,2.3701172,6.0302734,5.7001953,6.0302734,3.359375,0,5.7294922-2.5498047,5.7294922-6.0302734Z"/>
  <path class="st0" d="M213.7646484,14.4594727h-5.9697266v-2.0097656h5.9697266v-6.3896484h2.1591797v6.3896484h5.9697266v2.0097656h-5.9697266v6.4199219h-2.1591797v-6.4199219Z"/>
</svg>