<?xml version="1.0" encoding="UTF-8"?>
<svg id="Ebene_1" xmlns="http://www.w3.org/2000/svg" version="1.1" viewBox="0 0 100 100">
  <!-- Generator: Adobe Illustrator 29.7.1, SVG Export Plug-In . SVG Version: 2.1.1 Build 8)  -->
  <defs>
    <style>
      .st0 {
        fill: none;
      }

      .st1 {
        fill: #fff;
      }

      .st2 {
        fill: #5ebf48;
      }
    </style>
  </defs>
  <g id="Gruppe_6168">
    <circle id="Ellipse_569" class="st2" cx="50" cy="50" r="50"/>
    <path id="Pfad_3433" class="st1" d="M68.8699989,43.8699999l-1.4580002-1.4580002,1.5060005-1.5279999c.5972977-.5383835.6450539-1.459034.1066704-2.0563297-.0336914-.0373764-.069294-.0729809-.1066704-.1066704l-6.836998-6.8369997c-.5400314-.597296-1.4620171-.6437175-2.0593147-.1036854-.0362797.0328009-.0708847.0674064-.1036854.1036854l-1.5280018,1.5059998-1.5199986-1.52,1.3939991-1.457c.7072277-.7237821,1.6889915-1.112488,2.7000008-1.069,1.0153313-.0007101,1.9883041.4068577,2.7000008,1.131l6.6679993,6.6690001c.7185974.6989689,1.1166344,1.6636715,1.0999985,2.6659994.0168381,1.0020733-.3812523,1.9665442-1.0999985,2.665l-1.4620018,1.3950005ZM42.4750004,70.3269997c-.6981821.7191505-1.6628361,1.1173172-2.665,1.0999985-1.0024643.0173569-1.9674416-.3807945-2.6659994-1.0999985l-6.7440009-6.7389984c-.6937196-.6854439-1.0767326-1.6249084-1.0599999-2.5999985-.019473-.9720802.3642219-1.9088764,1.0599999-2.5880032l1.4699998-1.4680004,1.52,1.4799995-1.4779999,1.5060005c-.5972965.5367317-.6463938,1.4560432-.1096618,2.0533409.0345771.0384789.0711832.0750847.1096618.1096611l6.8089998,6.8089981c.5367327.5972977,1.4560442.6463928,2.05334.1096611.0384789-.0345764.0750837-.0711823.1096601-.1096611l1.5059996-1.4780006,1.4799995,1.5200005-1.3949986,1.3950005ZM66.8069992,53.8419991l3.3670006-3.3670006c.6105499-.5688782.6443329-1.5249939.0754547-2.1355438-.0242538-.0260334-.0494232-.0512009-.0754547-.0754566l-17.6359997-17.635998c-.5688782-.6105509-1.5249939-.6443338-2.1355438-.0754564-.0260334.0242558-.0512009.0494237-.0754566.0754564l-3.3670006,3.3669999c-.5975723.5372515-.646471,1.4572077-.1092205,2.05478.0344467.0383148.0709057.0747728.1092205.1092205l17.6840019,17.6829987c.5367317.5972958,1.4560432.6463909,2.0533409.1096573.038475-.0345745.0750809-.0711803.1096573-.1096573M50.4130001,70.2419968l3.4090004-3.3810005c.5975723-.5413742.6431313-1.4646721.101759-2.0622444-.0322266-.0355682-.0661869-.0695305-.101759-.101757l-17.7120008-17.7159939c-.538384-.5972958-1.459034-.6450539-2.0563302-.1066704-.0373759.0336895-.0729804.069294-.1066699.1066704l-3.3819995,3.407999c-.6105509.5704975-.6430213,1.5279255-.0725248,2.1384754.0233483.0249882.0475371.0491772.0725248.072525l17.6350007,17.6369991c.5704975.6105499,1.5279255.6430206,2.1384754.072525.0249882-.0233498.0491772-.0475388.072525-.072525M48.948,56.7910004l7.8000011-7.8220005-4.9099998-4.9099998-7.8220005,7.8000011,4.9319992,4.9319992ZM51.8759995,71.743c-.6730022.6922874-1.602663,1.0749397-2.5679989,1.0569992-.9573841.0201569-1.8788795-.3643456-2.5380001-1.0590019l-17.7110004-17.7089977c-.6944585-.6567631-1.0790855-1.5763817-1.059-2.5319996-.0168929-.9661217.3663754-1.896244,1.059-2.5699997l3.3670001-3.4300003c.6858768-.6929569,1.6251445-1.0755272,2.5999999-1.059.9728541-.019968,1.9106436.3633289,2.5909996,1.059l4.8730001,4.8740005,7.8369999-7.8369999-4.8740005-4.8999996c-.6986656-.6650877-1.0833683-1.594696-1.059-2.559-.0202007-.9737778.3630657-1.9125838,1.059-2.5939999l3.4150009-3.425c.686842-.6939704,1.6277637-1.0766268,2.6040001-1.0590012.9715405-.0192157,1.9078064.3640488,2.5869999,1.059l17.684,17.684c.6927605.6860085,1.0752945,1.6251888,1.0590019,2.6000004.0192146.9715405-.364048,1.9078064-1.0589981,2.5869999l-3.4239998,3.4150009c-.6804237.6962948-1.6186523,1.0799828-2.5919991,1.0599995-.9653053.0239582-1.8958015-.3610249-2.5620003-1.0599995l-4.8999996-4.8740005-7.8369999,7.8369999,4.871994,4.8780003c.6931553.6857452,1.0757618,1.6250992,1.059,2.5999985.02005.9725761-.3632812,1.9100876-1.059,2.5900002l-3.4249992,3.3670006"/>
    <rect id="Rechteck_3498" class="st0" x="28" y="28" width="44.8019981" height="44.8019981"/>
  </g>
</svg>