<?xml version="1.0" encoding="UTF-8"?>
<svg id="Ebene_1" xmlns="http://www.w3.org/2000/svg" version="1.1" viewBox="0 0 100 100">
  <!-- Generator: Adobe Illustrator 29.7.1, SVG Export Plug-In . SVG Version: 2.1.1 Build 8)  -->
  <defs>
    <style>
      .st0 {
        fill: none;
      }

      .st1 {
        fill: #fff;
      }

      .st2 {
        fill: #5ebf48;
      }
    </style>
  </defs>
  <g id="Gruppe_6174">
    <circle id="Ellipse_567" class="st2" cx="50" cy="50" r="50"/>
    <path id="Pfad_3430" class="st1" d="M33.5910001,65.8180008c-2.0591955-2.0424595-3.7022612-4.4652863-4.8379998-7.1339989-1.1804869-2.7736568-1.7772102-5.7606792-1.7530003-8.7750015-.0223347-3.0050917.5743906-5.9825916,1.753-8.7470002,1.1400025-2.6746559,2.7823246-5.1058905,4.8380001-7.1620002l1.5210004,1.521c-1.8697581,1.8492516-3.3639035,4.0429291-4.4000001,6.4599999-1.0746279,2.5039654-1.6193862,5.2032452-1.5999999,7.9280005-.0219305,2.7293663.520056,5.4338493,1.592,7.9440002,1.0317888,2.4147186,2.5265999,4.6039371,4.3999996,6.4440002l-1.513,1.5209999M40.6540003,58.7560005c-2.359292-2.3368683-3.6766167-5.5263519-3.6540003-8.8470001-.0133591-1.6734562.3174906-3.3317881.9720001-4.8719997.6309347-1.4843731,1.5414724-2.8335447,2.6820002-3.974l1.5209999,1.5209999c-.954258.9336481-1.7162857,2.0452652-2.243,3.2720003-.5495014,1.2799873-.8273611,2.6600924-.816,4.0529995-.0131779,1.3857899.2630453,2.7590752.8109999,4.0319996.5355749,1.2295666,1.2982368,2.3470974,2.2480001,3.2940006l-1.5209999,1.5209999ZM49.5,52.4090004c-1.3685074.012125-2.4877319-1.0874405-2.4998569-2.4559488-.0059853-.675601.2641487-1.3243532.7478561-1.796051.9467392-.9890184,2.5159817-1.0232935,3.5049992-.0765543.9890194.9467392,1.0232944,2.5159817.0765553,3.5049992-.0249577.0260735-.0504837.0515976-.0765553.0765553-.4562111.4802418-1.09062.7505798-1.7530003.7469997M58.3469982,58.7560005l-1.5209999-1.5209999c.9537487-.9342499,1.7154007-2.046154,2.2419987-3.2730007.5504875-1.2797127.8287163-2.6599579.8170013-4.0529995.0126572-1.3858423-.2639008-2.7590876-.8120003-4.0319996-.5349846-1.229352-1.2973461-2.3465996-2.2469997-3.2930002l1.5209999-1.5209999c1.1401043,1.1408052,2.0505848,2.4898891,2.6820011,3.974.6541672,1.5402842.9846764,3.1986132.9710007,4.8719997.0128098,1.6687775-.3177032,3.322361-.9710007,4.8579998-.6335373,1.4873943-1.5436478,2.8410168-2.6819992,3.9890003M65.4090004,65.8180008l-1.5209999-1.5180016c1.8703041-1.8487968,3.3645287-4.0425873,4.4000015-6.4599991,1.0747948-2.5039139,1.6195602-5.203228,1.5999985-7.9279995.0210724-2.7193441-.5223846-5.413475-1.5960007-7.9120007-1.0421791-2.418457-2.5354538-4.6162851-4.4000015-6.4759998l1.5170021-1.5240002c2.0543289,2.0608718,3.696682,4.4947014,4.8390007,7.171,1.1772194,2.7616467,1.7735863,5.7359891,1.7519989,8.7380004.0212975,3.0003662-.5750694,5.9730186-1.7519989,8.7329998-1.1427345,2.6775513-2.7849998,5.1129456-4.8390007,7.1760006"/>
    <rect id="Rechteck_3495" class="st0" x="27" y="34" width="45" height="31.8169994"/>
  </g>
</svg>