<?xml version="1.0" encoding="UTF-8"?>
<svg id="Ebene_1" xmlns="http://www.w3.org/2000/svg" version="1.1" viewBox="0 0 20.2910004 20.0319996">
  <!-- Generator: Adobe Illustrator 29.7.1, SVG Export Plug-In . SVG Version: 2.1.1 Build 8)  -->
  <defs>
    <style>
      .st0 {
        fill: #fff;
      }
    </style>
  </defs>
  <path id="Pfad_3624" class="st0" d="M20.2560005,16.0390015l-2.2000008,3.6349983c-.0999985.0999985-.2869987.2869987-.3829994.2869987-.730217.0956421-1.4697838.0956421-2.2000008,0-3.2530003-.3829994-6.7919998-2.5830002-9.8530006-5.4529991C2.75,11.6380005.5499992,8.098999.0719986,4.8460007-.0236454,4.1157856-.0236454,3.376215.0719986,2.6459999c.0266037-.1672039.1339931-.3105145.2870007-.3829994L3.9939995.0629997c.2870007-.1000004.5739994-.1000004.6700001.1000004l3.6350002,5.1660004c.095787.2130623.095787.4569378,0,.6700001l-2.2000008,2.2999992c.6940174,1.1519871,1.5295124,2.2125664,2.4869995,3.1569996.9502258.9509888,2.0099735,1.7858295,3.1569996,2.4870014l2.3000011-2.2000008c.2121162-.1000938.4578819-.1000938.6699982,0l5.1660004,3.5400009c.3118401.1058388.4800949.4432411.3770027.7560005Z"/>
</svg>