<?xml version="1.0" encoding="UTF-8"?>
<svg xmlns="http://www.w3.org/2000/svg" width="50" height="50" viewBox="0 0 50 50">
  <defs>
    <clipPath id="clip-path">
      <rect width="50" height="50" fill="none"/>
    </clipPath>
  </defs>
  <g clip-path="url(#clip-path)">
    <path id="Pfad_3657" d="M25,0A25,25,0,1,1,0,25,25,25,0,0,1,25,0" fill="#ffffff"/>
    <path id="Pfad_3658" d="M37.024,31.211l-2.471,4.082c-.112.112-.322.322-.43.322a9.456,9.456,0,0,1-2.47,0c-3.654-.43-7.628-2.9-11.065-6.123-3.223-3.223-5.694-7.2-6.231-10.851a9.543,9.543,0,0,1,0-2.47.58.58,0,0,1,.322-.431l4.083-2.47c.322-.113.644-.113.752.112l4.082,5.8a.913.913,0,0,1,0,.752l-2.47,2.583a18.059,18.059,0,0,0,2.792,3.545,19.1,19.1,0,0,0,3.546,2.793l2.583-2.47a.876.876,0,0,1,.752,0l5.8,3.975A.674.674,0,0,1,37.024,31.211Z" fill="#5ebf48" stroke="#5ebf48" stroke-linecap="round" stroke-linejoin="round" stroke-width="1.5"/>
  </g>
</svg>
