<?xml version="1.0" encoding="UTF-8"?>
<svg id="Ebene_1" xmlns="http://www.w3.org/2000/svg" version="1.1" viewBox="0 0 100 100">
  <!-- Generator: Adobe Illustrator 29.7.1, SVG Export Plug-In . SVG Version: 2.1.1 Build 8)  -->
  <defs>
    <style>
      .st0 {
        fill: none;
      }

      .st1 {
        fill: #fff;
      }

      .st2 {
        fill: #5ebf48;
      }
    </style>
  </defs>
  <g id="Gruppe_6175">
    <circle id="Ellipse_566" class="st2" cx="50" cy="50" r="50"/>
    <rect id="Rechteck_3494" class="st0" x="30" y="27" width="40" height="45.5769997"/>
    <path id="Pfad_3434" class="st1" d="M49.7560005,48.6340008c1.0225353.0164795,2.0055466-.3945599,2.7119999-1.1340008.730135-.7173767,1.1345329-1.7025318,1.1189995-2.7259998.0164795-1.0225353-.3945599-2.0055475-1.1340008-2.7119999-.7175827-.7305574-1.703083-1.1353102-2.7269993-1.1199999-1.0225353-.0164795-2.0055475.3945589-2.7119999,1.1339998-.7276945.717804-1.1301813,1.7019806-1.1140003,2.723999-.0164795,1.0225353.3945589,2.0055466,1.1339998,2.7119999.7176847.7302895,1.7032099,1.1346912,2.7270002,1.1189995M49.7460003,69.204998c4.3842201-3.7075653,8.2320118-8.0063324,11.4330006-12.7729988,2.7906666-4.3066654,4.1863365-8.0373325,4.1870003-11.1920013.1460762-4.3075953-1.4556198-8.4912672-4.441-11.6000004-2.9175816-3.0314188-6.9783325-4.6918086-11.1840019-4.5729976-4.2055178-.1190697-8.2662449,1.5409489-11.1839991,4.572-2.9853795,3.1087332-4.5870765,7.2924051-4.441,11.6000004,0,3.1553326,1.4059999,6.8859997,4.2179999,11.1919994,3.208384,4.7542,7.0455546,9.0522232,11.4069991,12.7770004M49.7409992,72.0480003c-5.0286188-4.2577896-9.4903555-9.1429787-13.2759991-14.5360012-2.9766668-4.4946651-4.4650002-8.5853329-4.4650002-12.2719994-.1597185-4.8885527,1.7105758-9.6252794,5.1669998-13.086,3.3016129-3.3779258,7.8513794-5.242845,12.5739994-5.1539998,4.72262-.088846,9.2723866,1.7760736,12.5740013,5.1539998,3.4566822,3.4609609,5.3269978,8.1981034,5.1670017,13.0869994,0,3.6853333-1.4883347,7.7756653-4.4650002,12.2709999-3.7856464,5.3930225-8.2473812,10.2782116-13.2760029,14.5360012"/>
    <rect id="Rechteck_3499" class="st0" x="32" y="27" width="35.480999" height="45.0480003"/>
  </g>
</svg>