<?xml version="1.0" encoding="UTF-8"?>
<svg id="Ebene_1" xmlns="http://www.w3.org/2000/svg" version="1.1" viewBox="0 0 100 100">
  <!-- Generator: Adobe Illustrator 29.7.1, SVG Export Plug-In . SVG Version: 2.1.1 Build 8)  -->
  <defs>
    <style>
      .st0 {
        fill: none;
      }

      .st1 {
        fill: #fff;
      }

      .st2 {
        fill: #5ebf48;
      }
    </style>
  </defs>
  <g id="Gruppe_6167">
    <circle id="Ellipse_569" class="st2" cx="50" cy="50" r="50"/>
    <path id="Pfad_3432" class="st1" d="M26,61.4869995v-2.2110004c1.156654-.0996838,2.2508762-.567585,3.122-1.335001,1.1310337-.8368931,2.5311964-1.2268143,3.9319999-1.0949993,1.5617571-.1254921,3.1098337.3712444,4.3070002,1.382,1.0985422.9781628,2.5431232,1.4755363,4.0109997,1.3810005,1.4778881.0925732,2.9322834-.4039707,4.0450001-1.3810005,1.2089462-1.0079098,2.7637329-1.5038052,4.3330002-1.382,1.5681381-.1279106,3.1233215.3687992,4.3269997,1.382,1.0974083.9787388,2.5416317,1.4762363,4.0089989,1.3810005,1.4756699.0940742,2.9281387-.4027958,4.0369987-1.3810005,1.2044678-1.0089226,2.7566338-1.505127,4.3230019-1.382,1.4008026-.131815,2.8009644.2581081,3.9319992,1.0949993.8711243.7674179,1.9653473,1.2353191,3.1220016,1.335001v2.2110004c-1.258503-.1412773-2.4533119-.6282692-3.4519997-1.4069996-1.032814-.7812595-2.3063164-1.1767521-3.5999985-1.118-1.4536591-.0789967-2.880043.4170589-3.9710007,1.3810005-1.2304153,1.008728-2.8026123,1.5037785-4.3889999,1.382-1.5640125.1212578-3.1133137-.374836-4.316-1.382-1.1034737-.9758511-2.5497875-1.4727077-4.0200005-1.3810005-1.4663525-.0877457-2.9077778.4087887-4.0090008,1.3810005-1.2213879,1.010952-2.7884045,1.5066299-4.3689995,1.382-1.5733309.1199741-3.1317997-.3754959-4.3470001-1.382-1.0897865-.9659386-2.5170183-1.4622879-3.9709997-1.3810005-1.2939849-.0733757-2.570848.3237133-3.5950007,1.118-.9929335.7944984-2.1953579,1.2833214-3.461,1.4069996M26,52.0639992v-2.2109995c1.1564293-.1005802,2.2503827-.5683661,3.122-1.335,1.1310337-.8368921,2.5311964-1.2268152,3.9319999-1.0949993,1.5593529-.1231689,3.104393.3733997,4.3000002,1.382,1.1001148.9781971,2.5459204,1.4754972,4.0149994,1.3810005,1.4778881.0925732,2.9322834-.4039707,4.0450001-1.3810005,1.2097111-1.0086603,2.7657242-1.5046034,4.3360004-1.382,1.5678272-.127861,3.1226826.3688583,4.3260002,1.382,1.1050072.98209,2.5579357,1.4796095,4.0330009,1.3810005,1.4722214.0954132,2.9214745-.4018326,4.0250015-1.3810005,1.199398-1.0102787,2.7487907-1.5068607,4.3120003-1.382,1.405735-.1348324,2.8116493.2552042,3.9469986,1.0950003.8662529.7658091,1.9552155,1.2337093,3.1069984,1.3349991v2.2109995c-1.2607536-.1395855-2.4579391-.6266994-3.4580002-1.4069996-1.0316315-.783555-2.3059883-1.1793127-3.5999985-1.118-1.4536591-.0789967-2.880043.4170599-3.9710007,1.3810005-1.2296867,1.0070229-2.8002281,1.5012865-4.3850021,1.3800001-1.5637398.1218109-3.1130085-.3735533-4.3159981-1.3800001-1.1034737-.975852-2.5497875-1.4727077-4.0200005-1.3810005-1.4694195-.0858727-2.9135685.4102392-4.0200005,1.3810005-1.2162685,1.0058174-2.7753258,1.5005293-4.349,1.3800001-1.5759172.1185513-3.1366663-.3766174-4.3559999-1.382-1.0909557-.9639406-2.5173407-1.4599962-3.9709997-1.3809996-1.2939739-.0783234-2.5719147.3193216-3.5929999,1.118-.9896681.8003683-2.1937186,1.2905464-3.461,1.4089994M26,42.6409998v-2.2109997c1.1558421-.0991724,2.2497306-.5651786,3.122-1.33,1.1303384-.8386641,2.5305641-1.2303856,3.9319999-1.1,1.5594034-.1236069,3.1046066.3730139,4.3000002,1.382,1.1003447.9778044,2.5459814,1.4750459,4.0149994,1.381,1.4778881.0925734,2.9322834-.4039705,4.0450001-1.381,1.2095032-1.0090397,2.7656746-1.5050337,4.3360004-1.382,1.5678902-.1284115,3.1229496.3683735,4.3260002,1.382,1.105238.9816947,2.5579967,1.4791555,4.0330009,1.381,1.4721642.0949631,2.9212456-.4022248,4.0250015-1.381,1.1991806-1.0106644,2.7487373-1.5072986,4.3119965-1.382,1.4063683-.1334029,2.8123474.2584331,3.9469986,1.1.866909.7639967,1.9558105,1.230117,3.1070023,1.33v2.2109997c-1.2607574-.139586-2.4579391-.6266994-3.4580002-1.4070001-1.031498-.783911-2.3058662-1.1800265-3.5999985-1.119-1.4528389-.0767295-2.8776169.4207039-3.9670029,1.3850002-1.2304153,1.008728-2.8026123,1.5037785-4.3889999,1.382-1.5640106.1212568-3.1133118-.374836-4.3159981-1.382-1.1033154-.9762127-2.5496483-1.473434-4.0200005-1.382-1.4695568-.0855987-2.913723.4108782-4.0200005,1.382-1.2159672,1.0065341-2.7750568,1.5019727-4.349,1.382-1.5759172.1185508-3.1366663-.3766179-4.3559999-1.382-1.0903902-.9652915-2.5168037-1.4627945-3.9709997-1.385-1.3084497-.0720348-2.5997276.3247087-3.642,1.119-.9809291.7830126-2.1642698,1.2709844-3.4119999,1.4069998"/>
    <rect id="Rechteck_3497" class="st0" x="26" y="38" width="47.5" height="23.7250004"/>
  </g>
</svg>