<?xml version="1.0" encoding="UTF-8"?>
<svg id="Ebene_1" xmlns="http://www.w3.org/2000/svg" version="1.1" viewBox="0 0 60 60">
  <!-- Generator: Adobe Illustrator 29.7.1, SVG Export Plug-In . SVG Version: 2.1.1 Build 8)  -->
  <defs>
    <style>
      .st0 {
        fill: #fff;
      }

      .st1 {
        fill: #5ebf48;
      }
    </style>
  </defs>
  <rect class="st1" x="-.0007501" y=".003205" width="60" height="60"/>
  <g id="Gruppe_5946">
    <path id="Pfad_3619" class="st0" d="M29.9997485,22.9688394c-1.5092955.0000033-2.732826-1.2235176-2.732826-2.7328108s1.2235153-2.7328201,2.7328108-2.7328236c1.5092955-.0000035,2.732826,1.2235175,2.732826,2.7328108v.0000064c0,1.5092905-1.2235153,2.7328139-2.7328108,2.7328172"/>
    <path id="Pfad_3620" class="st0" d="M38.5910314,23.0068268l-.0219898.0059941-.0209908.0059941-.1459367.0429807c-2.7383292.8325636-5.5653175,1.3391879-8.4223545,1.5093489-2.7729936-.1582262-5.5178794-.6409884-8.1784605-1.4383805-.1277735-.0493866-.2582629-.0914369-.3908309-.1259449-.9266-.2398864-1.5613252.6987027-1.5613252,1.5593303s.7666682,1.258458,1.5403334,1.5503315v.0139939l4.6469888,1.4513753c.4747944.1819205.5997403.367837.6637128.5287705.1251437.627475.1193584,1.2740381-.0169928,1.8991796l-.2828776,2.1990452-1.57132,8.5962856c-.0046648.0233206-.0089959.0473275-.0129944.0719751l-.0109954.0619696c-.0908506.7675053.4576872,1.4633407,1.225193,1.5541979.1116713.0132084.2245289.0129186.3361311-.0008694.9565858,0,1.3784031-.6607095,1.5623236-1.5593227,0,0,1.3664082-7.6906717,2.0501124-7.6906717s2.091095,7.6906717,2.091095,7.6906717c.1829204.8996045.6047388,1.5593227,1.5623236,1.5593227.7669791.0951889,1.4659097-.4493905,1.5611043-1.2163772.014134-.1138728.0142084-.2290574.0002202-.3429454-.0099959-.0669724-.0219908-.1339447-.0369837-.1999104l-1.5923113-8.5283066-.2828776-2.1990452c-.1714927-.5882921-.1659305-1.2140665.0159929-1.7992243v-.0070008c.2266742-.2555657.5235523-.4387673.8536306-.5267724l4.3571154-1.5233428c.0266551-.0073363.0529785-.015664.0789663-.0249907.7806623-.2928725,1.5623236-.6996941,1.5623236-1.5583237s-.6337265-1.7992243-1.5613245-1.5603217"/>
  </g>
</svg>