<?xml version="1.0" encoding="UTF-8"?>
<svg id="Ebene_1" xmlns="http://www.w3.org/2000/svg" version="1.1" viewBox="0 0 100 100">
  <!-- Generator: Adobe Illustrator 29.7.1, SVG Export Plug-In . SVG Version: 2.1.1 Build 8)  -->
  <defs>
    <style>
      .st0 {
        fill: none;
      }

      .st1 {
        fill: #fff;
      }

      .st2 {
        fill: #5ebf48;
      }
    </style>
  </defs>
  <g id="Gruppe_6165">
    <path id="Pfad_3502" class="st2" d="M50,0c27.6142349,0,50,22.3857632,50,50s-22.3857651,50-50,50S0,77.6142349,0,50,22.3857632,0,50,0Z"/>
    <path id="Pfad_3435" class="st1" d="M32,65.9609985v-7.5c-.049995-2.6635532,1.0035675-5.2292366,2.911-7.0890007,1.8597634-1.9074306,4.4254467-2.9609928,7.089-2.9109974h26.8129997c.84375-.0179768,1.6587715.3067341,2.2589989.8999996.60923.5776367.9462395,1.3856602.9280014,2.2250004.0130272.707962-.2198715,1.398531-.6590004,1.9540005-.4312172.5513191-1.0265656.951252-1.7000008,1.1420002l-7.1599979,1.9279995v10.0149994c.0083675.6016579-.1372452,1.1954651-.4230003,1.7249985-.2835026.5167542-.6754723.9660339-1.1490002,1.3170013-.4774914.3483887-1.0369091.5674706-1.6240005.6360016-.6230564.0592308-1.2508259-.044136-1.8220005-.2999992l-10.2419996-4.0420036h-15.2209997M60.3659992,58.0769997h-15.4089994c-.5935965-.0170975-1.1677628.2124252-1.5859995.6340008-.4088268.3963814-.6542959.9315605-.6879997,1.5-.0077534.4600964.1116295.9134064.3450003,1.3099995.2596159.456501.6685543.8096428,1.158,1l14.0639992,5.5460014c.4778404.1961975,1.0230122.1327248,1.4430008-.1679993.4333057-.276268.6890335-.7603645.6730003-1.2739983v-8.5480042M34.1159999,63.8460007h8.5570004c-.6180391-.3796158-1.1418619-.8945503-1.5320005-1.5060005-.3824673-.5893898-.5850458-1.2773914-.5830002-1.9799995.014739-2.4239216,1.976079-4.3852615,4.4000006-4.3999996h11.355999l12.8079987-3.3120003c.2772102-.0539837.518322-.2234516.6629982-.4659996.1144485-.2125587.1498795-.4587955.0999985-.6949997-.0482635-.2442722-.1716881-.4673424-.3530006-.6380005-.1927109-.1841221-.4516411-.2825718-.7179985-.2730007h-26.8139954c-2.0994616-.0377922-4.1210046.794714-5.585,2.2999992-1.5052855,1.463995-2.3377919,3.4855385-2.3,5.5849991v5.3850021M47,45c-1.9946012.0296669-3.912735-.7665396-5.3000002-2.1999998-1.4338636-1.3869905-2.2301459-3.3053074-2.1999998-5.3000002-.0302663-1.9947157.7660351-3.9130781,2.1999998-5.3,1.3869905-1.4338636,3.3053074-2.230146,5.3000002-2.2,1.9947147-.0302658,3.9130783.7660358,5.2999992,2.2,1.4339657,1.3869216,2.2302666,3.3052843,2.2000008,5.3.0301456,1.9946928-.7661362,3.9130096-2.2000008,5.3000002-1.3871956,1.4335604-3.3053761,2.2297859-5.2999992,2.1999998M46.9949999,42.8839998c2.9540873.0221376,5.3667955-2.3546782,5.3889341-5.3087659.0001755-.0234108.0001965-.046823.0000648-.0702343.0271893-1.434422-.5386677-2.8165054-1.5639992-3.8199999-.9994965-1.0288873-2.380827-1.5973506-3.8150005-1.5699999-2.9546442-.0215859-5.3673563,2.3561277-5.3889418,5.3107724-.0001688.0230756-.0001879.0461516-.0000582.0692277-.0269508,1.4343777.5388699,2.81637,1.5640001,3.8199997.9998741,1.0282154,2.3810434,1.5962505,3.8149996,1.5690002"/>
    <rect id="Rechteck_3500" class="st0" x="32" y="30" width="40" height="40.3240013"/>
  </g>
</svg>