<?xml version="1.0" encoding="UTF-8"?>
<svg id="Ebene_1" xmlns="http://www.w3.org/2000/svg" xmlns:xlink="http://www.w3.org/1999/xlink" version="1.1" viewBox="0 0 60 60">
  <!-- Generator: Adobe Illustrator 29.7.1, SVG Export Plug-In . SVG Version: 2.1.1 Build 8)  -->
  <defs>
    <style>
      .st0 {
        fill: none;
      }

      .st1 {
        fill: #fff;
      }

      .st2 {
        clip-path: url(#clippath);
      }

      .st3 {
        fill: #5ebf48;
      }
    </style>
    <clipPath id="clippath">
      <rect class="st0" x="15" y="11" width="30.1549988" height="34.3600006"/>
    </clipPath>
  </defs>
  <g id="Gruppe_6172">
    <path id="Pfad_3394" class="st3" d="M30,0c16.5685425,0,30,13.4314575,30,30s-13.4314575,30-30,30S0,46.5685425,0,30C-.0221065,13.4535646,13.3735094.0221068,29.9199448.0000003c.0266857-.0000357.0533695-.0000357.0800552-.0000003"/>
    <rect id="Rechteck_3416" class="st0" width="60" height="60"/>
    <g class="st2">
      <g id="Gruppe_5779">
        <path id="Pfad_3530" class="st1" d="M17.7550001,45.3600006c-.7344987.0148849-1.4424483-.2746658-1.956-.7999992-.5259916-.514679-.8152581-1.2242699-.7990001-1.960001v-24.9310002c-.0148831-.734499.2746669-1.4424486.8-1.9560003.5137557-.5250297,1.2215683-.8145235,1.956-.8h3.7080002v-3.9129999h1.7999997v3.915h13.7730007v-3.915h1.6790009v3.915h3.6839981c1.5048828-.0166543,2.7383347,1.1897941,2.7549877,2.6946778.0002193.019773.0002232.0395484.0000114.0593219v24.9310007c.0188637,1.5054111-1.1862202,2.7410793-2.6916294,2.759943-.021122.0002632-.0422478.0002823-.0633698.0000572h-24.6449995ZM17.7550001,43.7600021h24.6449995c.6227665-.0412483,1.1187534-.5372353,1.1599998-1.1600018v-16.9570007h-26.9599994v16.9570007c.005577.305088.1365023.5944271.362.8000011.2055744.2254982.494912.3564224.8000001.3619995M16.6,24.0480003h26.9599994v-6.3790002c-.0056953-.3050613-.1366005-.5943546-.3619995-.8000002-.205574-.2254972-.4949112-.3564224-.7999992-.362h-24.6430006c-.305088.0055776-.5944257.1365027-.8.362-.2253997.2056451-.3563049.4949384-.362.8000002l.0069999,6.3790002ZM16.6,24.0480003h0ZM30.0820007,32.4560013c-.8161249.0157299-1.4904776-.6331177-1.5062084-1.4492435-.0157299-.8161259.6331186-1.4904766,1.4492435-1.5062084.8161259-.0157299,1.4904785.6331196,1.5062084,1.4492435.00774.4016094-.1483135.789072-.4322433,1.0732079-.2647791.27841-.6327925.4350967-1.0170002.4330006M22.5430007,32.4560013c-.8161254.0157299-1.4904776-.6331177-1.5062084-1.4492435-.0157309-.816124.6331172-1.4904766,1.4492426-1.5062084.8161254-.0157299,1.490478.6331177,1.5062089,1.4492435.007741.4016094-.1483126.789072-.4322433,1.0732079-.2647791.27841-.632792.4350967-1.0170002.4330006M37.6210003,32.4560013c-.8161259.0157299-1.4904785-.6331177-1.5062084-1.4492435s.6331177-1.4904766,1.4492435-1.5062084c.8161259-.0157299,1.4904785.6331196,1.5062084,1.4492435.00774.4016094-.1483135.789072-.4322433,1.0732079-.2647781.27841-.6327915.4350967-1.0170002.4330006M30.0820007,39.7050018c-.8161249.0157299-1.4904776-.6331177-1.5062084-1.4492435-.0157299-.8161259.6331186-1.4904766,1.4492435-1.5062084.8161259-.0157299,1.4904785.6331196,1.5062084,1.4492435.00774.4016094-.1483135.789072-.4322433,1.0732079-.2647791.27841-.6327925.4350967-1.0170002.4330006M22.5430007,39.7050018c-.8161254.0157299-1.4904776-.6331177-1.5062084-1.4492435-.0157309-.816124.6331172-1.4904766,1.4492426-1.5062084.8161254-.0157299,1.490478.6331177,1.5062089,1.4492435.007741.4016094-.1483126.789072-.4322433,1.0732079-.2647791.27841-.632792.4350967-1.0170002.4330006M37.6210003,39.7050018c-.8161259.0157299-1.4904785-.6331177-1.5062084-1.4492435s.6331177-1.4904766,1.4492435-1.5062084c.8161259-.0157299,1.4904785.6331196,1.5062084,1.4492435.00774.4016094-.1483135.789072-.4322433,1.0732079-.2647781.27841-.6327915.4350967-1.0170002.4330006"/>
      </g>
    </g>
  </g>
</svg>