<?xml version="1.0" encoding="UTF-8"?>
<svg id="Ebene_1" xmlns="http://www.w3.org/2000/svg" version="1.1" viewBox="0 0 100 100">
  <!-- Generator: Adobe Illustrator 29.7.1, SVG Export Plug-In . SVG Version: 2.1.1 Build 8)  -->
  <defs>
    <style>
      .st0 {
        fill: none;
      }

      .st1 {
        fill: #fff;
      }

      .st2 {
        fill: #5ebf48;
      }
    </style>
  </defs>
  <rect id="Rechteck_3494" class="st0" x="30" y="27.0000154" width="40" height="45.5769958"/>
  <rect id="Rechteck_3499" class="st0" x="32" y="27.0000154" width="35.4810028" height="45.0480042"/>
  <circle id="Ellipse_566" class="st2" cx="50" cy="50" r="50"/>
  <path class="st1" d="M50,46.8267598c-2.7719169,0-5.113584-.9557044-7.0249927-2.8671131-1.9120353-1.9120353-2.8680502-4.264275-2.8680502-7.0567305,0-2.7930707.9560148-5.1350511,2.8680502-7.0259241,1.9114087-1.890873,4.2530758-2.8363181,7.0249927-2.8363181s5.1135811.9454451,7.0249956,2.8363181c1.9120296,1.8908787,2.8680473,4.2328534,2.8680473,7.0259241,0,2.7924554-.9560177,5.1446894-2.8680473,7.0567248-1.9114144,1.9114144-4.2530787,2.8671188-7.0249956,2.8671188ZM24.9874011,72.9593259v-4.5423984c0-1.4099134.4302541-2.7112554,1.2907623-3.9040203.8611291-1.1927649,2.0072301-2.1313599,3.4383001-2.8157852,3.5048759-1.5760418,6.94193-2.7684962,10.3111621-3.5773604,3.3686112-.8088642,6.6921123-1.2132977,9.970506-1.2132977,3.2783909,0,6.6025185.4044335,9.9723716,1.2132977,3.3704797.8088642,6.7972687,2.009718,10.2803671,3.6025615,1.4596861.6719814,2.618241,1.6034189,3.4756304,2.7943182.8574008,1.1902755,1.2860983,2.4903728,1.2860983,3.9002834v4.5424012H24.9874011ZM27.2273353,70.7193917h45.5453294v-2.302467c0-.9121522-.3163864-1.7882145-.9491705-2.6281898-.6321575-.8399753-1.5187982-1.5607981-2.6599219-2.1624711-3.1110236-1.5138195-6.2640356-2.6390786-9.4590533-3.3757688-3.1950234-.7360636-6.4298592-1.1040968-9.7045189-1.1040968s-6.5197663.3680332-9.7353139,1.1040997c-3.2161714.7366931-6.3589242,1.8619493-9.4282555,3.3757688-1.1411209.601673-2.0277615,1.3224958-2.6599219,2.1624711-.6327813.8399753-.9491734,1.7160377-.9491734,2.628187v2.302467ZM50,44.5868256c2.1360282,0,3.9457069-.7413584,5.429039-2.2240696,1.4827112-1.4833321,2.2240696-3.2930137,2.2240696-5.429039s-.7413584-3.9457069-2.2240696-5.429039c-1.4833321-1.4827112-3.2930108-2.2240696-5.429039-2.2240696s-3.9457098.7413584-5.429039,2.2240696c-1.4827112,1.4833321-2.2240696,3.2930137-2.2240696,5.429039s.7413556,3.9457069,2.2240668,5.429039c1.4833378,1.4827112,3.2930194,2.2240696,5.4290419,2.2240696Z"/>
</svg>