<?xml version="1.0" encoding="UTF-8"?>
<svg id="Ebene_1" xmlns="http://www.w3.org/2000/svg" version="1.1" viewBox="0 0 100 100">
  <!-- Generator: Adobe Illustrator 29.7.1, SVG Export Plug-In . SVG Version: 2.1.1 Build 8)  -->
  <defs>
    <style>
      .st0 {
        fill: none;
      }

      .st1 {
        fill: #fff;
      }

      .st2 {
        fill: #5ebf48;
      }
    </style>
  </defs>
  <g id="Gruppe_6175">
    <circle id="Ellipse_566" class="st2" cx="50" cy="50" r="50"/>
    <rect id="Rechteck_3494" class="st0" x="30" y="27" width="40" height="45.5769958"/>
    <rect id="Rechteck_3499" class="st0" x="32" y="27" width="35.4810028" height="45.0480042"/>
    <g id="Gruppe_6172">
      <g id="Gruppe_5779">
        <path id="Pfad_3530" class="st1" d="M33.6973445,72.7168809c-.9716389.0196907-1.9081555-.3633443-2.5875134-1.0582865-.6958127-.6808479-1.0784717-1.6195369-1.0569644-2.5928083v-32.9802076c-.0196882-.9716389.3633455-1.9081555,1.0582878-2.5875134.6796267-.6945411,1.6159641-1.0775003,2.5875122-1.0582878h4.9051629v-5.176349h2.3811459v5.1789945h18.2197436v-5.1789945h2.2210821v5.1789945h4.8734116c1.9907484-.0220309,3.6224318,1.5739296,3.6444589,3.5646805.0002876.0261575.0002977.0523176.0000151.0784751v32.9802076c.024954,1.9914448-1.569205,3.6260651-3.5606498,3.6510141-.0279414.0003482-.0558879.0003734-.0838293.0000757,0,0-32.6018682,0-32.6018631.000005ZM33.6973445,70.6003079h32.6018682c.823835-.0545657,1.479956-.7106867,1.5345167-1.5345218v-22.4317279h-35.6642884v22.4317279c.0073777.4035886.1805746.786346.4788745,1.0582865.2719455.2983024.6546979.4714968,1.0582865.4788745M32.1694435,44.5241009h35.6642859v-8.4385198c-.0075341-.4035533-.1807032-.7862476-.4788745-1.058289-.2719455-.2982999-.6546979-.4714968-1.0582865-.4788745h-32.5992239c-.4035886.0073777-.786341.1805746-1.0582865.4788745-.2981712.2720389-.4713403.6547333-.4788745,1.0582865,0,0,.00926,8.4385198.00926,8.4385223ZM32.1694435,44.5241009h0ZM50.0042345,55.646704c-1.0796173.0208059-1.9716935-.8375257-1.992502-1.9171455s.8375282-1.971691,1.9171455-1.992502c1.0796198-.0208085,1.9716935.8375282,1.992502,1.9171455.010239.5312728-.1961979,1.0438314-.5717972,1.4197056-.3502668.3682998-.8370942.5755718-1.3453483.5728014M40.031198,55.646704c-1.0796198.0208059-1.971691-.8375257-1.992502-1.9171455-.020811-1.0796173.8375257-1.971691,1.9171429-1.992502,1.0796198-.0208085,1.9716935.8375257,1.992502,1.9171455.0102415.5312728-.1961979,1.0438314-.5717972,1.4197056-.3502668.3682998-.8370942.5755718-1.3453483.5728014M59.9772735,55.646704c-1.0796223.0208059-1.9716935-.8375257-1.9925045-1.9171455s.8375257-1.971691,1.9171429-1.992502c1.0796223-.0208085,1.9716935.8375282,1.9925045,1.9171455.010239.5312728-.1961954,1.0438314-.5717972,1.4197056-.3502642.3682998-.8370917.5755718-1.3453458.5728014M50.0042345,65.2361126c-1.0796173.0208059-1.9716935-.8375257-1.992502-1.9171429-.0208085-1.0796223.8375282-1.9716935,1.9171455-1.9925045,1.0796198-.0208059,1.9716935.8375257,1.992502,1.9171429.010239.5312703-.1961979,1.0438288-.5717972,1.4197031-.3502668.3682998-.8370942.5755718-1.3453483.5728014M40.031198,65.2361126c-1.0796198.0208059-1.971691-.8375257-1.992502-1.9171429s.8375257-1.9716935,1.9171429-1.9925045c1.0796198-.0208059,1.9716935.8375257,1.992502,1.9171429.0102415.5312703-.1961979,1.0438288-.5717972,1.4197031-.3502668.3682998-.8370942.5755718-1.3453483.5728014M59.9772735,65.2361126c-1.0796223.0208059-1.9716935-.8375257-1.9925045-1.9171429s.8375257-1.9716935,1.9171429-1.9925045c1.0796223-.0208059,1.9716935.8375257,1.9925045,1.9171429.010239.5312703-.1961954,1.0438288-.5717972,1.4197031-.3502642.3682998-.8370917.5755718-1.3453458.5728014"/>
      </g>
    </g>
  </g>
</svg>