<?xml version="1.0" encoding="UTF-8"?>
<svg id="Ebene_1" xmlns="http://www.w3.org/2000/svg" version="1.1" viewBox="0 0 100 100">
  <!-- Generator: Adobe Illustrator 29.7.1, SVG Export Plug-In . SVG Version: 2.1.1 Build 8)  -->
  <defs>
    <style>
      .st0 {
        fill: none;
      }

      .st1 {
        fill: #fff;
      }

      .st2 {
        fill: #5ebf48;
      }
    </style>
  </defs>
  <g id="Gruppe_6166">
    <circle id="Ellipse_568" class="st2" cx="50" cy="50" r="50"/>
    <rect id="Rechteck_3496" class="st0" x="28" y="29" width="43.0769997" height="41.7210007"/>
    <path id="Pfad_3436" class="st1" d="M38.5649996,52.2679996l13.1640005,1.3939991c.6509762.065958,1.3084335-.0164375,1.9230003-.2409992.6076355-.2227097,1.106617-.670145,1.394001-1.25l1.007-2.0580006-6.1530018-3.2229996-4.8570004-.3360004.1410007-2.0620003,5.316.3549995,14.0299988,7.3160019c1.2184181.6107159,2.5766487.8884335,3.9370003.8050003,1.3446541-.0684853,2.6239738-.6010647,3.6199989-1.507l-13.9459991-13.0200005c-.1611786-.1088762-.328083-.2090206-.5-.3000002-.1706085-.0894222-.3603783-.1360912-.5530014-.1359997h-15.2879982l-4.4769993-6.2810001-9.628,4.4660001,5.4170005,12.2840009c.4318628,1.0895882,1.1883984,2.0199833,2.1669998,2.664999.9763784.6599827,2.1101704,1.04953,3.2860003,1.1289997M38.3910007,54.4119987c-1.5586357-.126873-3.0549889-.6682396-4.3339996-1.5680008-1.2750664-.8938255-2.2708421-2.1305714-2.8719997-3.5669994l-6.1850014-14.1299987,13.0190001-6.1469998,4.8879995,6.8930001h14.3109989c.4598694.001575.9147873.0950737,1.3380013.2750001.4263763.1753716.8140717.4329309,1.1409988.7579999l15.5,14.487-1.1380005,1.1380005c-1.333168,1.3597488-3.0945625,2.2180176-4.9869995,2.4300003-1.9041023.234684-3.8340416-.1291447-5.5219994-1.0410004l-5.5200005-2.8400002-1.0559998,2.007c-.4733105.959938-1.2685261,1.7233028-2.2469997,2.1569996-.999073.4625549-2.1060219.6417427-3.2000008.5179996l-13.1359987-1.3699989M27.391,71.5l-.5910001-2.0299988,11.3690007-2.7999992c3.0273342-.7333298,6.0516663-1.4090004,9.073-2.0270004,3.0672245-.6217003,6.1894093-.931942,9.3190002-.9259987,2.6969223-.0042,5.3680916.5245934,7.8600006,1.5559998,2.5111427,1.0317459,4.8352394,2.4699898,6.8789978,4.2569962l-1.4399986,1.5079994c-1.8000717-1.6250725-3.8715286-2.9214249-6.1199989-3.829998-2.2610626-.9152107-4.6787529-1.3812218-7.118-1.3720016-3.1470604-.0059013-6.2865582.3083839-9.3699989.9379997-3.039999.6259995-6.1026669,1.3190002-9.1879997,2.0789986l-10.673003,2.6470032"/>
    <rect id="Rechteck_3501" class="st0" x="25" y="29" width="50.1920013" height="42.5040016"/>
  </g>
</svg>