<?xml version="1.0" encoding="UTF-8"?>
<svg id="Ebene_1" xmlns="http://www.w3.org/2000/svg" version="1.1" viewBox="0 0 100 100">
  <!-- Generator: Adobe Illustrator 29.7.1, SVG Export Plug-In . SVG Version: 2.1.1 Build 8)  -->
  <defs>
    <style>
      .st0 {
        fill: none;
      }

      .st1 {
        fill: #fff;
      }

      .st2 {
        fill: #5ebf48;
      }
    </style>
  </defs>
  <g id="Gruppe_6169">
    <circle id="Ellipse_568" class="st2" cx="50" cy="50" r="50"/>
    <path id="Pfad_3431" class="st1" d="M50.3999996,70.7210007c-2.663599-.3209381-5.2672291-1.0231171-7.7309999-2.0849991-2.5951328-1.1115265-4.9589424-2.6996117-6.9689999-4.682003-2.202867-2.2066574-3.9673626-4.8109856-5.1999998-7.6749992-1.4714316-3.5006104-2.2850229-7.2424545-2.4-11.0380001l-.1-1.9839993,1.872.1000004c2.1821749.1858692,4.3278062.6749039,6.3749998,1.4530001,2.2222652.7384977,4.3085537,1.8360281,6.1760006,3.2489996.2226954-3.4495077.9643707-6.8457012,2.2000008-10.0740004,1.1380444-3.2429004,2.7986126-6.2779298,4.9159985-8.9849997,2.1243744,2.7187903,3.7856789,5.7694149,4.9169998,9.0290003,1.2333431,3.2456045,1.9748611,6.6572638,2.2000008,10.1220007,1.8321056-1.3186436,3.8273907-2.3942699,5.9359989-3.1999998,2.0700111-.8888454,4.2726898-1.4294634,6.519001-1.6000004l1.9679985-.1000004-.0999985,2.0800009c-.0827713,3.126915-.6328583,6.2238541-1.632,9.1879997-.902565,2.6442089-2.2636795,5.108839-4.0209999,7.281002-1.7731476,2.1519966-3.9135628,3.972805-6.3220005,5.3779984-2.6944542,1.5606003-5.5872402,2.7503395-8.6000004,3.5369987M50.5669994,68.5810013c-.4580002-7.1733322-2.566-12.6000004-6.3239994-16.2800007-3.8226309-3.7099667-8.7333016-6.0976639-14.0120001-6.8129997.4706666,7.394001,2.6533332,12.9163322,6.5479994,16.5669994,3.7793694,3.5955582,8.6118088,5.8849068,13.7880001,6.5320015M49.5289993,56.1639996c1.2521248-2.4688892,2.9531288-4.6829758,5.0159988-6.5289993.0465221-2.8511276-.3826962-5.6900578-1.2700005-8.3999996-.9407806-2.9547815-2.1931572-5.8011236-3.7360001-8.4910002-1.5444508,2.6905117-2.7978573,5.5379143-3.7389984,8.4939995-.8873043,2.7099419-1.3165226,5.5488729-1.2700005,8.4000006,1.0348854.9074421,1.9601612,1.9327316,2.757,3.0550003.8160286,1.1117764,1.5640602,2.2718945,2.2399998,3.473999M52.6809978,67.7949982c2.0771275-.7307854,4.0712032-1.6790504,5.9489994-2.8289986,1.8980408-1.1657333,3.5871391-2.6415329,4.9970016-4.3659992,1.5357475-1.9085121,2.746006-4.0573826,3.5820007-6.3600006,1.0012093-2.8120651,1.5536346-5.7641792,1.637001-8.7479992-4.0592155.541954-7.918911,2.0887203-11.2290001,4.5-3.1062298,2.1831856-5.5252113,5.2071743-6.9729996,8.7169991.4844093,1.3703957.8976288,2.7649269,1.2380009,4.1780014.3678322,1.6172218.6350117,3.2556992.7999992,4.9059982"/>
    <rect id="Rechteck_3496" class="st0" x="28" y="29" width="43.0769997" height="41.7210007"/>
  </g>
</svg>