<?xml version="1.0" encoding="UTF-8"?>
<svg id="Ebene_1" xmlns="http://www.w3.org/2000/svg" version="1.1" viewBox="0 0 60 60">
  <!-- Generator: Adobe Illustrator 29.7.1, SVG Export Plug-In . SVG Version: 2.1.1 Build 8)  -->
  <defs>
    <style>
      .st0 {
        fill: none;
        stroke: #fff;
        stroke-linecap: round;
        stroke-linejoin: round;
        stroke-width: 1.5px;
      }

      .st1 {
        fill: #5ebf48;
      }
    </style>
  </defs>
  <path class="st1" d="M30,0c16.5999985,0,30,13.3999996,30,30s-13.4000015,30-30,30S0,46.5999985,0,30,13.3999996,0,30,0"/>
  <path class="st0" d="M25.8999996,35.9000015l-6.3999996,6.4000015-3.3999996.5999985.6000004-3.4000015,6.3999996-6.4000015M33.2000008,32.0999985l7.5-7.5,4.7000008-1.2000008c.5999985-.2000008.7999992-.7999992.2999992-1.2999992l-8.7999992-8.8000002c-.5-.5-1.0999985-.3999996-1.2999992.3000002l-1.2000008,4.7000008-7.5,7.5-8.6000004.7999992c-.7000008.1000004-.7999992.6000004-.3999996,1.1000004l13.2999992,13.3000011c.5.5,1,.2999992,1.0999985-.4000015l.9000015-8.5ZM27,26.1000004l5.9000015,5.8999996M34.5,18.7000008l5.9000015,5.8999996"/>
</svg>