<?xml version="1.0" encoding="UTF-8"?>
<svg id="Ebene_1" xmlns="http://www.w3.org/2000/svg" xmlns:xlink="http://www.w3.org/1999/xlink" version="1.1" viewBox="0 0 100 100">
  <!-- Generator: Adobe Illustrator 29.7.1, SVG Export Plug-In . SVG Version: 2.1.1 Build 8)  -->
  <defs>
    <style>
      .st0 {
        fill: none;
      }

      .st1 {
        fill: #fff;
      }

      .st2 {
        clip-path: url(#clippath);
      }

      .st3 {
        fill: #5ebf48;
      }
    </style>
    <clipPath id="clippath">
      <rect class="st0" x="28" y="27" width="45" height="45"/>
    </clipPath>
  </defs>
  <g id="Gruppe_6183">
    <g id="Gruppe_6182">
      <g id="Gruppe_6178">
        <path id="Pfad_3394" class="st3" d="M49.8359985,0c27.5236588,0,49.8359985,22.312336,49.8359985,49.8359985s-22.3123398,49.8359985-49.8359985,49.8359985S-.0000002,77.3596573,0,49.8359985C-.0370272,22.3493633,22.2152767.0370262,49.7019119-.0000009c.0446968-.0000602.0893898-.0000602.1340866.0000009"/>
        <rect id="Rechteck_3416" class="st0" width="100" height="100"/>
      </g>
      <g id="Gruppe_6180">
        <g class="st2">
          <g id="Gruppe_6179">
            <path id="Pfad_3662" class="st1" d="M59.9200001,60.4650002l1.5350018-1.5359993-9.8360023-9.8790016v-12.3029995h-2.1189995v13.1999989l10.4200001,10.5180016M50.5079994,72c-3.0076942.0194473-5.9868565-.5838737-8.75-1.7719994-5.3905306-2.2951317-9.6849179-6.5855789-11.9849994-11.9740009-1.1892875-2.7614079-1.7929985-5.7394428-1.773-8.7460003-.01988-3.0076351.5831066-5.9868183,1.771-8.75,2.2946695-5.3911896,6.5857285-9.6858315,11.9750003-11.9849994,2.7613735-1.1893989,5.7394333-1.7931145,8.7460003-1.773,3.0076275-.0197933,5.9867916.5831897,8.75,1.771,5.3905296,2.295133,9.6849174,6.5855788,11.9850006,11.9739999,1.1892052,2.7614355,1.7929115,5.7394514,1.7729988,8.7459993.0199966,3.0076466-.5829964,5.9868526-1.7709999,8.75-2.2946701,5.3911915-6.5857277,9.6858349-11.9750004,11.9850025-2.7611618,1.1901855-5.7393169,1.7942619-8.7460003,1.7739983M50.5,69.8839989c5.4228497.0854416,10.6396637-2.075264,14.4140015-5.9700012,3.8947334-3.7743378,6.0554352-8.9911499,5.9699974-14.4139977.0854759-5.4231491-2.0752106-10.6402864-5.9700012-14.415-3.7743378-3.8947358-8.9911499-6.055439-14.4139977-5.97-5.4228497-.0854397-10.6396618,2.0752633-14.4139996,5.97-3.8947906,3.7747135-6.0554779,8.9918509-5.9700005,14.415-.0854404,5.4228497,2.0752628,10.6396637,5.9699996,14.4140015,3.7743378,3.8947372,8.9911509,6.055439,14.4140005,5.9699974"/>
          </g>
        </g>
      </g>
    </g>
  </g>
</svg>